<svg xmlns="http://www.w3.org/2000/svg" width="15.094" height="28.693" viewBox="0 0 15.094 28.693">
  <g id="Group_60" data-name="Group 60" transform="translate(-6351.46 -5336.23)">
    <g id="Group_59" data-name="Group 59">
      <path id="Path_750" data-name="Path 750" d="M6360.592,5348.386h-3.19a.318.318,0,0,1-.319-.319v-1.535a.319.319,0,0,1,.319-.32h3.19a.32.32,0,0,1,.319.32v1.535A.319.319,0,0,1,6360.592,5348.386Zm-2.871-.638h2.551v-.9h-2.551Z" fill="#887a5b"/>
      <path id="Path_751" data-name="Path 751" d="M6362.671,5345.222h-7.348a.832.832,0,0,1-.831-.831V5342.3a.832.832,0,0,1,.831-.831h7.348a.831.831,0,0,1,.83.831v2.093A.831.831,0,0,1,6362.671,5345.222Zm-7.348-3.116a.192.192,0,0,0-.192.192v2.093a.192.192,0,0,0,.192.192h7.348a.192.192,0,0,0,.192-.192V5342.3a.192.192,0,0,0-.192-.192Z" fill="#887a5b"/>
      <path id="Path_752" data-name="Path 752" d="M6360.592,5346.851h-3.19a.318.318,0,0,1-.249-.119l-1.316-1.629a.32.32,0,0,1,.249-.52h5.822a.319.319,0,0,1,.248.52l-1.316,1.629A.317.317,0,0,1,6360.592,5346.851Zm-3.038-.639h2.885l.8-.99h-4.484Z" fill="#887a5b"/>
      <path id="Path_753" data-name="Path 753" d="M6359,5362.68c-.122,0-.245,0-.368-.009a7.56,7.56,0,0,1-7.17-6.939,1.242,1.242,0,0,1,.4-1.02,1.291,1.291,0,0,1,1.075-.328l2.867.447a1.289,1.289,0,0,1,1.036.915,2.245,2.245,0,0,0,2.645,1.576,2.186,2.186,0,0,0,1.684-1.593,2.267,2.267,0,0,0-1.534-2.765,3.559,3.559,0,0,1-2.5-2.348,5.5,5.5,0,0,1-.047-2.611.318.318,0,0,1,.313-.257h3.19a.34.34,0,0,1,.07.007,7.555,7.555,0,0,1,2.729,13.517A7.481,7.481,0,0,1,6359,5362.68Zm-6.266-7.673a.65.65,0,0,0-.442.174.6.6,0,0,0-.194.489,7.009,7.009,0,0,0,6.564,6.363,6.917,6.917,0,0,0,1.892-13.647h-2.887a4.707,4.707,0,0,0,.081,2.053,2.93,2.93,0,0,0,2.064,1.913,2.9,2.9,0,0,1,1.972,3.538,2.816,2.816,0,0,1-2.172,2.057,2.878,2.878,0,0,1-3.389-2.024.648.648,0,0,0-.52-.46l-2.868-.448A.646.646,0,0,0,6352.736,5355.007Z" fill="#887a5b"/>
      <path id="Path_754" data-name="Path 754" d="M6364.209,5356.955a.328.328,0,0,1-.089-.012.321.321,0,0,1-.219-.4,5.092,5.092,0,0,0-1.136-4.834.319.319,0,1,1,.472-.431,5.742,5.742,0,0,1,1.278,5.441A.319.319,0,0,1,6364.209,5356.955Z" fill="#887a5b"/>
      <path id="Path_755" data-name="Path 755" d="M6362.079,5342.106h-6.164a.319.319,0,0,1-.32-.32v-5.236a.319.319,0,0,1,.32-.32h1.939a.32.32,0,0,1,.32.32v1.846a.823.823,0,1,0,1.645,0v-1.846a.32.32,0,0,1,.32-.32h1.94a.319.319,0,0,1,.319.32v5.236A.319.319,0,0,1,6362.079,5342.106Zm-5.845-.639h5.525v-4.6h-1.3v1.527a1.461,1.461,0,1,1-2.923,0v-1.527h-1.3Z" fill="#887a5b"/>
      <path id="Path_756" data-name="Path 756" d="M6354.537,5364.923a.318.318,0,0,1-.268-.492l4.459-6.914a.319.319,0,0,1,.537.346l-4.459,6.914A.318.318,0,0,1,6354.537,5364.923Z" fill="#887a5b"/>
      <path id="Path_757" data-name="Path 757" d="M6363.476,5364.923a.318.318,0,0,1-.269-.146l-4.459-6.914a.319.319,0,1,1,.537-.346l4.459,6.914a.319.319,0,0,1-.1.441A.313.313,0,0,1,6363.476,5364.923Z" fill="#887a5b"/>
    </g>
  </g>
</svg>
