<svg id="background" xmlns="http://www.w3.org/2000/svg" xmlns:xlink="http://www.w3.org/1999/xlink" width="1921" height="1081" viewBox="0 0 1921 1081">
  <defs>
    <clipPath id="clip-path">
      <rect id="Rectangle_127" data-name="Rectangle 127" width="1921" height="1081" transform="translate(0 0)" fill="#09090a"/>
    </clipPath>
  </defs>
  <rect id="Rectangle_126" data-name="Rectangle 126" width="1921" height="1081" transform="translate(0 0)" fill="#09090a"/>
  <g id="Group_91" data-name="Group 91" clip-path="url(#clip-path)">
    <g id="patterns" opacity="0.25">
      <line id="Line_38" data-name="Line 38" transform="translate(1462.237 476.714)" fill="none" stroke="#fff" stroke-miterlimit="10" stroke-width="0.2"/>
      <line id="Line_39" data-name="Line 39" transform="translate(1587.739 474.433)" fill="none" stroke="#fff" stroke-miterlimit="10" stroke-width="0.2"/>
      <path id="Path_154" data-name="Path 154" d="M1587.739,474.433v44.876l52.482-.761,32.707-80.625-79.1-9.127-6.085,45.637" fill="none" stroke="#fff" stroke-miterlimit="10" stroke-width="0.2"/>
      <path id="Path_155" data-name="Path 155" d="M1347.384,471.39V412.823h-83.668v67.695l50.961,46.4,32.707-55.525" fill="none" stroke="#fff" stroke-miterlimit="10" stroke-width="0.2"/>
      <path id="Path_156" data-name="Path 156" d="M1491.9,434.12l-29.664,42.594-28.143,47.919,28.143-47.919L1491.9,434.12l20.537,92.035L1491.9,434.12" fill="none" stroke="#fff" stroke-miterlimit="10" stroke-width="0.2"/>
      <path id="Path_157" data-name="Path 157" d="M923.72,434.12l33.467,58.567,50.962-82.907-75.3-56.286L923.72,434.12" fill="none" stroke="#fff" stroke-miterlimit="10" stroke-width="0.2"/>
      <path id="Path_158" data-name="Path 158" d="M1131.369,453.136l57.046-33.467,10.648-72.259-64.652-3.042-35.749,54,32.707,54.765" fill="none" stroke="#fff" stroke-miterlimit="10" stroke-width="0.2"/>
      <path id="Path_159" data-name="Path 159" d="M532,351.973l-10.648,92.035,37.27,67.7-37.27-67.7L532,351.973l85.95,64.653L532,351.973" fill="none" stroke="#fff" stroke-miterlimit="10" stroke-width="0.2"/>
      <path id="Path_160" data-name="Path 160" d="M747.256,497.251,707.7,431.078l42.6-65.414,79.1,3.8-14.452,87.471-67.7,40.313" fill="none" stroke="#fff" stroke-miterlimit="10" stroke-width="0.2"/>
      <path id="Path_161" data-name="Path 161" d="M1434.094,524.634l78.344,1.521-78.344-1.521" fill="none" stroke="#fff" stroke-miterlimit="10" stroke-width="0.2"/>
      <path id="Path_162" data-name="Path 162" d="M558.624,511.7l59.328-95.077L558.624,511.7" fill="none" stroke="#fff" stroke-miterlimit="10" stroke-width="0.2"/>
      <path id="Path_163" data-name="Path 163" d="M1758.878,182.356l-66.935,75.3-30.425-84.429" fill="none" stroke="#fff" stroke-miterlimit="10" stroke-width="0.2"/>
      <path id="Path_164" data-name="Path 164" d="M1563.4,253.093l-19.776-57.807,45.638-41.834v55.525L1563.4,253.093" fill="none" stroke="#fff" stroke-miterlimit="10" stroke-width="0.2"/>
      <line id="Line_40" data-name="Line 40" transform="translate(1418.121 210.498)" fill="none" stroke="#fff" stroke-miterlimit="10" stroke-width="0.2"/>
      <path id="Path_165" data-name="Path 165" d="M1455.392,157.255l-37.27,53.243,37.27-53.243,24.34,115.614-24.34-115.614" fill="none" stroke="#fff" stroke-miterlimit="10" stroke-width="0.2"/>
      <path id="Path_166" data-name="Path 166" d="M1142.777,218.1l-66.934,75.3-30.425-84.428,84.429-66.935,12.93,76.062" fill="none" stroke="#fff" stroke-miterlimit="10" stroke-width="0.2"/>
      <path id="Path_167" data-name="Path 167" d="M550.257,223.429l-66.934,76.062L452.9,215.062" fill="none" stroke="#fff" stroke-miterlimit="10" stroke-width="0.2"/>
      <path id="Path_168" data-name="Path 168" d="M101.492,298.73,80.955,240.923l46.4-41.835v55.525L101.492,298.73" fill="none" stroke="#fff" stroke-miterlimit="10" stroke-width="0.2"/>
      <path id="Path_169" data-name="Path 169" d="M315.987,168.665l25.1,114.853-25.1-114.853" fill="none" stroke="#fff" stroke-miterlimit="10" stroke-width="0.2"/>
      <path id="Path_170" data-name="Path 170" d="M341.087,283.518l-97.359-2.282,72.259-112.571L243.728,281.236l97.359,2.282" fill="none" stroke="#fff" stroke-miterlimit="10" stroke-width="0.2"/>
      <path id="Path_171" data-name="Path 171" d="M101.492,298.73l25.861-44.116V199.089l-46.4,41.835,20.537,57.807" fill="none" stroke="#fff" stroke-miterlimit="10" stroke-width="0.2"/>
      <path id="Path_172" data-name="Path 172" d="M703.9,208.217V153.452H627.079v63.131l46.4,42.6L703.9,208.217" fill="none" stroke="#fff" stroke-miterlimit="10" stroke-width="0.2"/>
      <path id="Path_173" data-name="Path 173" d="M550.257,223.429l-12.931-75.3L452.9,215.062l30.425,84.429,66.934-76.062" fill="none" stroke="#fff" stroke-miterlimit="10" stroke-width="0.2"/>
      <path id="Path_174" data-name="Path 174" d="M-78.013,215.822-59,279.715l93.556-28.9L20.106,168.665-30.855,138.24l-47.159,77.583" fill="none" stroke="#fff" stroke-miterlimit="10" stroke-width="0.2"/>
      <path id="Path_175" data-name="Path 175" d="M1317.719,189.962v-54h-77.583v62.37l47.159,42.6,30.424-50.962" fill="none" stroke="#fff" stroke-miterlimit="10" stroke-width="0.2"/>
      <path id="Path_176" data-name="Path 176" d="M1142.777,218.1l-12.93-76.062-84.429,66.935,30.425,84.428,66.934-75.3" fill="none" stroke="#fff" stroke-miterlimit="10" stroke-width="0.2"/>
      <path id="Path_177" data-name="Path 177" d="M844.616,132.155l-23.58,56.286,82.147,34.228,37.27-66.935-17.494-50.962-78.344,27.383" fill="none" stroke="#fff" stroke-miterlimit="10" stroke-width="0.2"/>
      <path id="Path_178" data-name="Path 178" d="M1479.731,272.869l-96.6-2.282,34.989-60.089-34.989,60.089,96.6,2.282" fill="none" stroke="#fff" stroke-miterlimit="10" stroke-width="0.2"/>
      <path id="Path_179" data-name="Path 179" d="M1563.4,253.093l25.861-44.116V153.452l-45.638,41.834,19.776,57.807" fill="none" stroke="#fff" stroke-miterlimit="10" stroke-width="0.2"/>
      <path id="Path_180" data-name="Path 180" d="M1758.878,182.356l-12.931-76.062-84.429,66.934,30.425,84.429,66.935-75.3" fill="none" stroke="#fff" stroke-miterlimit="10" stroke-width="0.2"/>
      <path id="Path_181" data-name="Path 181" d="M1908.719,91.842l-81.386,47.918,8.367,88.992h92.8l31.185-76.822-50.962-60.089" fill="none" stroke="#fff" stroke-miterlimit="10" stroke-width="0.2"/>
      <path id="Path_182" data-name="Path 182" d="M1928.5,228.753h-92.8l-8.367-88.992" fill="none" stroke="#fff" stroke-miterlimit="10" stroke-width="0.2"/>
      <path id="Path_183" data-name="Path 183" d="M316.747-48.872l-66.174,75.3L220.149-58" fill="none" stroke="#fff" stroke-miterlimit="10" stroke-width="0.2"/>
      <path id="Path_184" data-name="Path 184" d="M108.338-117.328,45.207,2.85-23.249-55.718" fill="none" stroke="#fff" stroke-miterlimit="10" stroke-width="0.2"/>
      <line id="Line_41" data-name="Line 41" x1="55.525" y2="98.12" transform="translate(523.635 -61.042)" fill="none" stroke="#fff" stroke-miterlimit="10" stroke-width="0.2"/>
      <line id="Line_42" data-name="Line 42" y1="82.146" x2="34.989" transform="translate(401.936 -96.03)" fill="none" stroke="#fff" stroke-miterlimit="10" stroke-width="0.2"/>
      <path id="Path_185" data-name="Path 185" d="M624.8-13.123,709.225-79.3,722.156-4" fill="none" stroke="#fff" stroke-miterlimit="10" stroke-width="0.2"/>
      <path id="Path_186" data-name="Path 186" d="M912.31-119.609v73.78L872,23.386,808.106-34.421v-85.189" fill="none" stroke="#fff" stroke-miterlimit="10" stroke-width="0.2"/>
      <line id="Line_43" data-name="Line 43" x1="9.888" y1="101.162" transform="translate(987.612 -59.521)" fill="none" stroke="#fff" stroke-miterlimit="10" stroke-width="0.2"/>
      <path id="Path_187" data-name="Path 187" d="M1080.407-114.285l57.046,67.7-34.989,88.231" fill="none" stroke="#fff" stroke-miterlimit="10" stroke-width="0.2"/>
      <line id="Line_44" data-name="Line 44" x1="19.776" y1="66.173" transform="translate(1208.952 -61.042)" fill="none" stroke="#fff" stroke-miterlimit="10" stroke-width="0.2"/>
      <path id="Path_188" data-name="Path 188" d="M1313.916-108.961l75.3,69.216-81.386,65.413" fill="none" stroke="#fff" stroke-miterlimit="10" stroke-width="0.2"/>
      <path id="Path_189" data-name="Path 189" d="M1429.53,54.572l27.383-155.926,50.961,62.37V54.572" fill="none" stroke="#fff" stroke-miterlimit="10" stroke-width="0.2"/>
      <line id="Line_45" data-name="Line 45" y1="48.68" x2="72.258" transform="translate(1607.515 -94.509)" fill="none" stroke="#fff" stroke-miterlimit="10" stroke-width="0.2"/>
      <line id="Line_46" data-name="Line 46" x2="31.946" y2="62.37" transform="translate(1736.059 -62.563)" fill="none" stroke="#fff" stroke-miterlimit="10" stroke-width="0.2"/>
      <line id="Line_47" data-name="Line 47" x1="20.537" y1="57.807" transform="translate(1828.094 -51.915)" fill="none" stroke="#fff" stroke-miterlimit="10" stroke-width="0.2"/>
      <path id="Path_190" data-name="Path 190" d="M1874.492-93.749v55.525L1848.63,5.892l25.862-44.116V-93.749l-46.4,41.834L1848.63,5.892" fill="none" stroke="#fff" stroke-miterlimit="10" stroke-width="0.2"/>
      <path id="Path_191" data-name="Path 191" d="M1622.727,2.85,1768.005-.193l-31.946-62.37-56.286-31.946-72.258,48.68L1622.727,2.85" fill="none" stroke="#fff" stroke-miterlimit="10" stroke-width="0.2"/>
      <path id="Path_192" data-name="Path 192" d="M1429.53,54.572h78.344V-38.984l-50.961-62.37L1429.53,54.572" fill="none" stroke="#fff" stroke-miterlimit="10" stroke-width="0.2"/>
      <path id="Path_193" data-name="Path 193" d="M1307.832,25.668l81.386-65.413-75.3-69.216L1208.952-61.042l19.776,66.173,79.1,20.537" fill="none" stroke="#fff" stroke-miterlimit="10" stroke-width="0.2"/>
      <path id="Path_194" data-name="Path 194" d="M1102.465,41.641l34.989-88.231-57.046-67.7-92.8,54.765L997.5,41.641h104.965" fill="none" stroke="#fff" stroke-miterlimit="10" stroke-width="0.2"/>
      <path id="Path_195" data-name="Path 195" d="M912.31-45.829v-73.78h-104.2v85.189L872,23.386,912.31-45.829" fill="none" stroke="#fff" stroke-miterlimit="10" stroke-width="0.2"/>
      <path id="Path_196" data-name="Path 196" d="M722.156-4,709.225-79.3,624.8-13.123l30.425,85.19L722.156-4" fill="none" stroke="#fff" stroke-miterlimit="10" stroke-width="0.2"/>
      <path id="Path_197" data-name="Path 197" d="M436.925-96.03,401.936-13.884l121.7,50.962,55.525-98.12L553.3-137.1,436.925-96.03" fill="none" stroke="#fff" stroke-miterlimit="10" stroke-width="0.2"/>
      <line id="Line_48" data-name="Line 48" transform="translate(-23.249 -55.718)" fill="none" stroke="#fff" stroke-miterlimit="10" stroke-width="0.2"/>
      <path id="Path_198" data-name="Path 198" d="M-23.249-55.718l-22.058-61.61H108.338L45.207,2.85-23.249-55.718" fill="none" stroke="#fff" stroke-miterlimit="10" stroke-width="0.2"/>
      <path id="Path_199" data-name="Path 199" d="M316.747-48.872l-11.41-76.062L220.149-58l30.424,84.428,66.174-75.3" fill="none" stroke="#fff" stroke-miterlimit="10" stroke-width="0.2"/>
      <path id="Path_200" data-name="Path 200" d="M385.2,407.5l-30.424,42.6-28.143,47.919,28.143-47.919L385.2,407.5l19.776,92.8L385.2,407.5" fill="none" stroke="#fff" stroke-miterlimit="10" stroke-width="0.2"/>
      <path id="Path_201" data-name="Path 201" d="M326.635,498.012l78.343,2.282-78.343-2.282" fill="none" stroke="#fff" stroke-miterlimit="10" stroke-width="0.2"/>
      <path id="Path_202" data-name="Path 202" d="M1796.909,402.935l-29.664,42.594L1739.1,493.448l28.142-47.919,29.664-42.594,20.537,92.8-20.537-92.8" fill="none" stroke="#fff" stroke-miterlimit="10" stroke-width="0.2"/>
      <path id="Path_203" data-name="Path 203" d="M1739.1,493.448l78.344,2.282-78.344-2.282" fill="none" stroke="#fff" stroke-miterlimit="10" stroke-width="0.2"/>
      <path id="Path_204" data-name="Path 204" d="M199.612,519.309,179.836,461.5l46.4-41.834v55.525l-26.621,44.116L179.836,461.5l46.4-41.834v55.525l-26.621,44.116" fill="none" stroke="#fff" stroke-miterlimit="10" stroke-width="0.2"/>
      <line id="Line_49" data-name="Line 49" transform="translate(13.261 425.753)" fill="none" stroke="#fff" stroke-miterlimit="10" stroke-width="0.2"/>
      <path id="Path_205" data-name="Path 205" d="M13.261,425.753l39.552,34.989-71.5,60.089L-55.956,465.3l69.216-39.552" fill="none" stroke="#fff" stroke-miterlimit="10" stroke-width="0.2"/>
      <path id="Path_206" data-name="Path 206" d="M828.643,836.487l73.019,31.946,35.748-38.791-77.583-52.483-31.185,59.328" fill="none" stroke="#fff" stroke-miterlimit="10" stroke-width="0.2"/>
      <line id="Line_50" data-name="Line 50" x1="71.498" y2="60.089" transform="translate(-26.291 853.22)" fill="none" stroke="#fff" stroke-miterlimit="10" stroke-width="0.2"/>
      <path id="Path_207" data-name="Path 207" d="M131.917,878.32,80.195,968.834,59.658,898.1" fill="none" stroke="#fff" stroke-miterlimit="10" stroke-width="0.2"/>
      <line id="Line_51" data-name="Line 51" transform="translate(619.473 838.008)" fill="none" stroke="#fff" stroke-miterlimit="10" stroke-width="0.2"/>
      <path id="Path_208" data-name="Path 208" d="M236.883,817.471,306.1,912.548,246.01,965.791" fill="none" stroke="#fff" stroke-miterlimit="10" stroke-width="0.2"/>
      <path id="Path_209" data-name="Path 209" d="M441.488,841.05l39.552,34.989-71.5,60.089" fill="none" stroke="#fff" stroke-miterlimit="10" stroke-width="0.2"/>
      <path id="Path_210" data-name="Path 210" d="M547.975,857.784l71.5-19.776L566.99,928.521" fill="none" stroke="#fff" stroke-miterlimit="10" stroke-width="0.2"/>
      <path id="Path_211" data-name="Path 211" d="M409.543,936.127l71.5-60.089L441.488,841.05" fill="none" stroke="#fff" stroke-miterlimit="10" stroke-width="0.2"/>
      <line id="Line_52" data-name="Line 52" transform="translate(1494.183 906.463)" fill="none" stroke="#fff" stroke-miterlimit="10" stroke-width="0.2"/>
      <line id="Line_53" data-name="Line 53" transform="translate(1431.812 844.853)" fill="none" stroke="#fff" stroke-miterlimit="10" stroke-width="0.2"/>
      <path id="Path_212" data-name="Path 212" d="M1547.426,869.193l-53.243,37.27,53.243-37.27-115.614-24.34,115.614,24.34" fill="none" stroke="#fff" stroke-miterlimit="10" stroke-width="0.2"/>
      <line id="Line_54" data-name="Line 54" transform="translate(1431.812 844.853)" fill="none" stroke="#fff" stroke-miterlimit="10" stroke-width="0.2"/>
      <line id="Line_55" data-name="Line 55" transform="translate(1328.368 876.799)" fill="none" stroke="#fff" stroke-miterlimit="10" stroke-width="0.2"/>
      <line id="Line_56" data-name="Line 56" transform="translate(1233.291 908.745)" fill="none" stroke="#fff" stroke-miterlimit="10" stroke-width="0.2"/>
      <path id="Path_213" data-name="Path 213" d="M1292.619,837.247l35.749,39.552-35.749-39.552-59.328,71.5,59.328-71.5" fill="none" stroke="#fff" stroke-miterlimit="10" stroke-width="0.2"/>
      <line id="Line_57" data-name="Line 57" transform="translate(1233.291 908.745)" fill="none" stroke="#fff" stroke-miterlimit="10" stroke-width="0.2"/>
      <path id="Path_214" data-name="Path 214" d="M1037.813,831.162l57.807,19.776,41.834-46.4h-55.525l-44.116,26.622,57.807,19.776,41.834-46.4h-55.525l-44.116,26.622" fill="none" stroke="#fff" stroke-miterlimit="10" stroke-width="0.2"/>
      <path id="Path_215" data-name="Path 215" d="M1233.291,908.745l55.525,37.27,39.552-69.216-39.552,69.216-55.525-37.27" fill="none" stroke="#fff" stroke-miterlimit="10" stroke-width="0.2"/>
      <path id="Path_216" data-name="Path 216" d="M1431.812,844.853l2.282,96.6,60.089-34.989-60.089,34.989-2.282-96.6" fill="none" stroke="#fff" stroke-miterlimit="10" stroke-width="0.2"/>
      <path id="Path_217" data-name="Path 217" d="M566.99,928.521l-19.015-70.738,71.5-19.776L566.99,928.521" fill="none" stroke="#fff" stroke-miterlimit="10" stroke-width="0.2"/>
      <path id="Path_218" data-name="Path 218" d="M306.1,912.548l-69.216-95.077L208.739,898.1l37.27,67.695L306.1,912.548" fill="none" stroke="#fff" stroke-miterlimit="10" stroke-width="0.2"/>
      <path id="Path_219" data-name="Path 219" d="M409.543,936.127,372.272,880.6l69.216-39.552L372.272,880.6l37.27,55.525" fill="none" stroke="#fff" stroke-miterlimit="10" stroke-width="0.2"/>
      <path id="Path_220" data-name="Path 220" d="M131.917,878.32,80.195,968.834,59.658,898.1l72.259-19.776" fill="none" stroke="#fff" stroke-miterlimit="10" stroke-width="0.2"/>
      <line id="Line_58" data-name="Line 58" transform="translate(5.654 818.232)" fill="none" stroke="#fff" stroke-miterlimit="10" stroke-width="0.2"/>
      <path id="Path_221" data-name="Path 221" d="M5.654,818.232,45.207,853.22l-71.5,60.089-37.27-55.525L5.654,818.232" fill="none" stroke="#fff" stroke-miterlimit="10" stroke-width="0.2"/>
      <path id="Path_222" data-name="Path 222" d="M828.643,836.487l31.185-59.328,77.583,52.483-35.748,38.791-73.019-31.946" fill="none" stroke="#fff" stroke-miterlimit="10" stroke-width="0.2"/>
      <path id="Path_223" data-name="Path 223" d="M779.2,830.4,739.65,794.653,779.2,830.4,708.465,889.73,779.2,830.4" fill="none" stroke="#fff" stroke-miterlimit="10" stroke-width="0.2"/>
      <path id="Path_224" data-name="Path 224" d="M708.465,889.73,671.194,834.2l68.456-39.552L671.194,834.2l37.27,55.525" fill="none" stroke="#fff" stroke-miterlimit="10" stroke-width="0.2"/>
      <path id="Path_225" data-name="Path 225" d="M1663.04,941.452,1642.5,884.405l46.4-41.834v54.765l-25.861,44.116L1642.5,884.405l46.4-41.834v54.765l-25.861,44.116" fill="none" stroke="#fff" stroke-miterlimit="10" stroke-width="0.2"/>
      <path id="Path_226" data-name="Path 226" d="M1793.105,869.193l72.259-19.015-51.722,90.513-20.537-71.5" fill="none" stroke="#fff" stroke-miterlimit="10" stroke-width="0.2"/>
      <path id="Path_227" data-name="Path 227" d="M1865.364,850.178l-51.722,90.513-20.537-71.5,72.259-19.015" fill="none" stroke="#fff" stroke-miterlimit="10" stroke-width="0.2"/>
      <path id="Path_228" data-name="Path 228" d="M960.23,1033.487l-60.089-10.649L886.45,961.988l47.919,26.622,25.861,44.877" fill="none" stroke="#fff" stroke-miterlimit="10" stroke-width="0.2"/>
      <path id="Path_229" data-name="Path 229" d="M1099.422,1044.135l-25.861,44.115-20.537-57.046,46.4-41.834" fill="none" stroke="#fff" stroke-miterlimit="10" stroke-width="0.2"/>
      <line id="Line_59" data-name="Line 59" transform="translate(1041.615 914.83)" fill="none" stroke="#fff" stroke-miterlimit="10" stroke-width="0.2"/>
      <path id="Path_230" data-name="Path 230" d="M1041.615,914.83l-9.888,45.637H989.133L973.16,916.351l34.989-34.988,33.467,33.467" fill="none" stroke="#fff" stroke-miterlimit="10" stroke-width="0.2"/>
      <path id="Path_231" data-name="Path 231" d="M1073.562,1088.251l25.861-44.115V989.371l-46.4,41.834,20.537,57.046" fill="none" stroke="#fff" stroke-miterlimit="10" stroke-width="0.2"/>
      <path id="Path_232" data-name="Path 232" d="M960.23,1033.487,934.368,988.61,886.45,961.988l13.691,60.849,60.089,10.649" fill="none" stroke="#fff" stroke-miterlimit="10" stroke-width="0.2"/>
      <path id="Path_233" data-name="Path 233" d="M663.589,1009.907l-26.621,44.116-19.776-57.046" fill="none" stroke="#fff" stroke-miterlimit="10" stroke-width="0.2"/>
      <path id="Path_234" data-name="Path 234" d="M636.967,1054.023l26.621-44.116V955.143l-46.4,41.834,19.776,57.046" fill="none" stroke="#fff" stroke-miterlimit="10" stroke-width="0.2"/>
      <path id="Path_235" data-name="Path 235" d="M-24.009,1060.869l-25.861,44.116-20.537-57.807" fill="none" stroke="#fff" stroke-miterlimit="10" stroke-width="0.2"/>
      <path id="Path_236" data-name="Path 236" d="M-49.87,1104.984l25.861-44.116v-55.525l-46.4,41.834,20.537,57.807" fill="none" stroke="#fff" stroke-miterlimit="10" stroke-width="0.2"/>
      <path id="Path_237" data-name="Path 237" d="M1722.368,1069.235l-55.525-37.27,60.089-71.5,34.989,39.552-39.552,69.216" fill="none" stroke="#fff" stroke-miterlimit="10" stroke-width="0.2"/>
      <line id="Line_60" data-name="Line 60" transform="translate(1247.743 1046.417)" fill="none" stroke="#fff" stroke-miterlimit="10" stroke-width="0.2"/>
      <path id="Path_238" data-name="Path 238" d="M1247.743,1046.417l-9.888,44.876H1195.26l-15.973-44.116,34.989-34.228,33.467,33.467" fill="none" stroke="#fff" stroke-miterlimit="10" stroke-width="0.2"/>
      <path id="Path_239" data-name="Path 239" d="M525.917,997.737l-72.259,19.015,20.537,71.5,51.722-90.513-51.722,90.513" fill="none" stroke="#fff" stroke-miterlimit="10" stroke-width="0.2"/>
      <path id="Path_240" data-name="Path 240" d="M1382.372,1070V991.652h93.556l62.37,50.962L1382.372,1070" fill="none" stroke="#fff" stroke-miterlimit="10" stroke-width="0.2"/>
      <path id="Path_241" data-name="Path 241" d="M291.646,1004.583l-22.058,52.482,77.583,31.946,34.989-61.61-16.734-47.919-73.78,25.1" fill="none" stroke="#fff" stroke-miterlimit="10" stroke-width="0.2"/>
      <path id="Path_242" data-name="Path 242" d="M770.836,1050.98l25.861-44.116V951.34l-46.4,41.834,20.537,57.807" fill="none" stroke="#fff" stroke-miterlimit="10" stroke-width="0.2"/>
      <line id="Line_61" data-name="Line 61" transform="translate(1917.086 1013.711)" fill="none" stroke="#fff" stroke-miterlimit="10" stroke-width="0.2"/>
      <path id="Path_243" data-name="Path 243" d="M1917.086,1013.711l-9.888,44.876h-43.355l-15.213-43.355,34.989-34.989,33.467,33.467" fill="none" stroke="#fff" stroke-miterlimit="10" stroke-width="0.2"/>
      <path id="Path_244" data-name="Path 244" d="M1101.7,1170.4l-26.621,44.877-20.537-58.568,47.158-42.595" fill="none" stroke="#fff" stroke-miterlimit="10" stroke-width="0.2"/>
      <path id="Path_245" data-name="Path 245" d="M1075.083,1215.274,1101.7,1170.4v-56.286l-47.158,42.595,20.537,58.568" fill="none" stroke="#fff" stroke-miterlimit="10" stroke-width="0.2"/>
      <path id="Path_246" data-name="Path 246" d="M485.6,1240.374l26.621-45.637v-56.286l-47.919,42.594,21.3,59.328" fill="none" stroke="#fff" stroke-miterlimit="10" stroke-width="0.2"/>
      <path id="Path_247" data-name="Path 247" d="M7.937,1176.483l-26.622,44.876-20.537-58.567" fill="none" stroke="#fff" stroke-miterlimit="10" stroke-width="0.2"/>
      <path id="Path_248" data-name="Path 248" d="M-18.685,1221.359l26.622-44.876v-57.046l-47.159,43.355,20.537,58.567" fill="none" stroke="#fff" stroke-miterlimit="10" stroke-width="0.2"/>
      <path id="Path_249" data-name="Path 249" d="M1228.728,1228.965l-57.046-38.031,61.61-73.78,35.749,41.074-40.313,70.737" fill="none" stroke="#fff" stroke-miterlimit="10" stroke-width="0.2"/>
      <line id="Line_62" data-name="Line 62" transform="translate(654.462 1172.679)" fill="none" stroke="#fff" stroke-miterlimit="10" stroke-width="0.2"/>
      <path id="Path_250" data-name="Path 250" d="M654.462,1172.679l-10.649,45.637H600.458l-16.734-44.877,35.749-35.749,34.989,34.988" fill="none" stroke="#fff" stroke-miterlimit="10" stroke-width="0.2"/>
      <path id="Path_251" data-name="Path 251" d="M350.215,1152.9l-74.541,19.776,20.537,73.019,54-92.8-54,92.8" fill="none" stroke="#fff" stroke-miterlimit="10" stroke-width="0.2"/>
      <path id="Path_252" data-name="Path 252" d="M902.423,1209.95l-29.664-50.961,60.849-36.51,60.089,9.127-91.273,78.344" fill="none" stroke="#fff" stroke-miterlimit="10" stroke-width="0.2"/>
      <path id="Path_253" data-name="Path 253" d="M118.226,1152.143l-22.818,54,79.865,32.706,35.749-63.892-16.734-48.679-76.062,25.861" fill="none" stroke="#fff" stroke-miterlimit="10" stroke-width="0.2"/>
      <path id="Path_254" data-name="Path 254" d="M762.469,1210.71l26.622-45.637v-56.285l-47.919,42.594,21.3,59.328" fill="none" stroke="#fff" stroke-miterlimit="10" stroke-width="0.2"/>
      <line id="Line_63" data-name="Line 63" transform="translate(1425.727 1168.116)" fill="none" stroke="#fff" stroke-miterlimit="10" stroke-width="0.2"/>
      <path id="Path_255" data-name="Path 255" d="M1425.727,1168.116l-9.888,46.4h-44.116l-15.973-45.637,35.749-35.749,34.228,34.989" fill="none" stroke="#fff" stroke-miterlimit="10" stroke-width="0.2"/>
      <path id="Path_256" data-name="Path 256" d="M1577.851,1136.17l-73.78,19.776,20.537,73.019,53.243-92.8-53.243,92.8" fill="none" stroke="#fff" stroke-miterlimit="10" stroke-width="0.2"/>
      <path id="Path_257" data-name="Path 257" d="M1672.928,1225.162l26.621-44.876v-57.046l-47.158,42.595,20.537,59.328" fill="none" stroke="#fff" stroke-miterlimit="10" stroke-width="0.2"/>
      <path id="Path_258" data-name="Path 258" d="M1872.21,1176.483l-28.9-25.1,28.9,25.1-50.962,42.594,50.962-42.594" fill="none" stroke="#fff" stroke-miterlimit="10" stroke-width="0.2"/>
      <path id="Path_259" data-name="Path 259" d="M1821.248,1219.077l-26.622-39.552,48.68-28.143-48.68,28.143,26.622,39.552" fill="none" stroke="#fff" stroke-miterlimit="10" stroke-width="0.2"/>
      <path id="Path_260" data-name="Path 260" d="M1137.453,653.177l64.652,23.58,50.962-65.414" fill="none" stroke="#fff" stroke-miterlimit="10" stroke-width="0.2"/>
      <path id="Path_261" data-name="Path 261" d="M1034.77,626.556l-52.483,31.186,44.116,48.679" fill="none" stroke="#fff" stroke-miterlimit="10" stroke-width="0.2"/>
      <line id="Line_64" data-name="Line 64" y1="79.865" transform="translate(1091.817 626.556)" fill="none" stroke="#fff" stroke-miterlimit="10" stroke-width="0.2"/>
      <line id="Line_65" data-name="Line 65" transform="translate(508.423 677.518)" fill="none" stroke="#fff" stroke-miterlimit="10" stroke-width="0.2"/>
      <line id="Line_66" data-name="Line 66" y1="53.243" x2="30.425" transform="translate(551.017 653.177)" fill="none" stroke="#fff" stroke-miterlimit="10" stroke-width="0.2"/>
      <path id="Path_262" data-name="Path 262" d="M554.06,622.753l-45.637,54.765,42.594,28.9" fill="none" stroke="#fff" stroke-miterlimit="10" stroke-width="0.2"/>
      <line id="Line_67" data-name="Line 67" transform="translate(166.905 666.108)" fill="none" stroke="#fff" stroke-miterlimit="10" stroke-width="0.2"/>
      <path id="Path_263" data-name="Path 263" d="M281,671.432l-54.765,23.58-59.328-28.9,78.344-44.876L281,671.432" fill="none" stroke="#fff" stroke-miterlimit="10" stroke-width="0.2"/>
      <line id="Line_68" data-name="Line 68" x2="7.607" y2="45.637" transform="translate(-32.377 667.629)" fill="none" stroke="#fff" stroke-miterlimit="10" stroke-width="0.2"/>
      <path id="Path_264" data-name="Path 264" d="M22.388,723.915l-21.3-37.27-33.467-19.015" fill="none" stroke="#fff" stroke-miterlimit="10" stroke-width="0.2"/>
      <path id="Path_265" data-name="Path 265" d="M1323.044,716.309V632.641l66.173,29.664-32.707,74.541-33.467-20.537V632.641l66.173,29.664-32.707,74.541" fill="none" stroke="#fff" stroke-miterlimit="10" stroke-width="0.2"/>
      <path id="Path_266" data-name="Path 266" d="M-32.377,667.629,1.091,686.645l21.3,37.27L-24.77,713.266l-7.607-45.637" fill="none" stroke="#fff" stroke-miterlimit="10" stroke-width="0.2"/>
      <path id="Path_267" data-name="Path 267" d="M226.234,695.012l-59.328-28.9,78.344-44.876L281,671.432l-54.765,23.58" fill="none" stroke="#fff" stroke-miterlimit="10" stroke-width="0.2"/>
      <path id="Path_268" data-name="Path 268" d="M379.118,647.853l-38.791,65.413L403.457,751.3l62.371-41.834-3.043-75.3-83.668,13.691" fill="none" stroke="#fff" stroke-miterlimit="10" stroke-width="0.2"/>
      <path id="Path_269" data-name="Path 269" d="M340.326,713.266l38.791-65.413,83.668-13.691,3.043,75.3L403.457,751.3l-63.131-38.031" fill="none" stroke="#fff" stroke-miterlimit="10" stroke-width="0.2"/>
      <line id="Line_69" data-name="Line 69" transform="translate(581.442 653.177)" fill="none" stroke="#fff" stroke-miterlimit="10" stroke-width="0.2"/>
      <path id="Path_270" data-name="Path 270" d="M581.442,653.177,554.06,622.753l-45.637,54.765,42.594,28.9,30.425-53.243" fill="none" stroke="#fff" stroke-miterlimit="10" stroke-width="0.2"/>
      <line id="Line_70" data-name="Line 70" transform="translate(508.423 677.518)" fill="none" stroke="#fff" stroke-miterlimit="10" stroke-width="0.2"/>
      <line id="Line_71" data-name="Line 71" transform="translate(627.839 669.911)" fill="none" stroke="#fff" stroke-miterlimit="10" stroke-width="0.2"/>
      <path id="Path_271" data-name="Path 271" d="M627.839,669.911,697.056,629.6,682.6,684.363,697.056,629.6l-69.216,40.313L682.6,684.363l-54.765-14.452" fill="none" stroke="#fff" stroke-miterlimit="10" stroke-width="0.2"/>
      <path id="Path_272" data-name="Path 272" d="M861.349,696.533l34.228-54.765,24.34-48.68-24.34,48.68-34.228,54.765L818.754,593.089l42.594,103.444" fill="none" stroke="#fff" stroke-miterlimit="10" stroke-width="0.2"/>
      <path id="Path_273" data-name="Path 273" d="M1034.77,626.556h57.046v79.865H1026.4l-44.116-48.679,52.483-31.186" fill="none" stroke="#fff" stroke-miterlimit="10" stroke-width="0.2"/>
      <path id="Path_274" data-name="Path 274" d="M1195.26,602.217l57.807,9.127-50.962,65.414-64.652-23.58,57.807-50.961" fill="none" stroke="#fff" stroke-miterlimit="10" stroke-width="0.2"/>
      <path id="Path_275" data-name="Path 275" d="M919.917,593.089h0" fill="none" stroke="#fff" stroke-miterlimit="10" stroke-width="0.2"/>
      <path id="Path_276" data-name="Path 276" d="M1507.113,639.487l-30.424,42.594-28.143,48.679,28.143-48.679,30.424-42.594,19.776,92.795-19.776-92.795" fill="none" stroke="#fff" stroke-miterlimit="10" stroke-width="0.2"/>
      <path id="Path_277" data-name="Path 277" d="M1448.546,730.76l78.344,1.521-78.344-1.521" fill="none" stroke="#fff" stroke-miterlimit="10" stroke-width="0.2"/>
      <path id="Path_278" data-name="Path 278" d="M1642.5,722.394l-20.537-57.046,46.4-41.834v55.525L1642.5,722.394l-20.537-57.046,46.4-41.834v55.525L1642.5,722.394" fill="none" stroke="#fff" stroke-miterlimit="10" stroke-width="0.2"/>
      <path id="Path_279" data-name="Path 279" d="M1804.515,717.07l-19.776-57.807,45.637-41.835v55.525l-25.861,44.116-19.776-57.807,45.637-41.835v55.525l-25.861,44.116" fill="none" stroke="#fff" stroke-miterlimit="10" stroke-width="0.2"/>
      <line id="Line_72" data-name="Line 72" transform="translate(187.442 1031.965)" fill="none" stroke="#fff" stroke-miterlimit="10" stroke-width="0.2"/>
      <line id="Line_73" data-name="Line 73" transform="translate(92.365 1063.911)" fill="none" stroke="#fff" stroke-miterlimit="10" stroke-width="0.2"/>
      <path id="Path_280" data-name="Path 280" d="M151.693,992.413l35.749,39.552-35.749-39.552-59.328,71.5,59.328-71.5" fill="none" stroke="#fff" stroke-miterlimit="10" stroke-width="0.2"/>
      <line id="Line_74" data-name="Line 74" transform="translate(92.365 1063.911)" fill="none" stroke="#fff" stroke-miterlimit="10" stroke-width="0.2"/>
      <path id="Path_281" data-name="Path 281" d="M92.365,1063.911l55.525,37.27,39.552-69.216-39.552,69.216-55.525-37.27" fill="none" stroke="#fff" stroke-miterlimit="10" stroke-width="0.2"/>
    </g>
  </g>
</svg>
