<svg xmlns="http://www.w3.org/2000/svg" width="65.369" height="65.371" viewBox="0 0 65.369 65.371">
  <g id="logo" transform="translate(-1774.438 -82.553)">
    <g id="Group_96" data-name="Group 96">
      <g id="Group_94" data-name="Group 94">
        <path id="Path_307" data-name="Path 307" d="M1839.784,82.553l.023.023v65.348h-65.369V82.553Z" fill="#fff" fill-rule="evenodd"/>
      </g>
      <g id="Group_95" data-name="Group 95">
        <path id="Path_308" data-name="Path 308" d="M1809.233,109.268a1.9,1.9,0,0,1,1.165,1.675c-.146.582-.8.8-1.529.51a1.909,1.909,0,0,1-1.164-1.675c.146-.583.8-.8,1.528-.51Z" fill="#09090a" fill-rule="evenodd"/>
        <path id="Path_309" data-name="Path 309" d="M1810.981,97.549c.581.291,1.019.8.946,1.164,0,.365-.509.437-1.164.146-.583-.291-1.02-.8-.947-1.165,0-.364.582-.436,1.165-.145Z" fill="#09090a" fill-rule="evenodd"/>
        <path id="Path_310" data-name="Path 310" d="M1811.126,96.384c.51.218.874.655.8.946,0,.364-.437.364-.946.146-.51-.291-.873-.655-.8-1.019,0-.292.437-.292.946-.073Z" fill="#09090a" fill-rule="evenodd"/>
        <path id="Path_311" data-name="Path 311" d="M1811.272,95.219c.436.291.8.656.8.874-.073.291-.437.291-.947.072-.437-.218-.8-.582-.728-.873,0-.218.437-.291.874-.073Z" fill="#09090a" fill-rule="evenodd"/>
        <path id="Path_312" data-name="Path 312" d="M1811.418,94.127c.436.219.727.51.727.8q-.108.329-.873,0c-.437-.219-.728-.509-.655-.8,0-.219.364-.219.8,0Z" fill="#09090a" fill-rule="evenodd"/>
        <path id="Path_313" data-name="Path 313" d="M1811.562,93.035c.365.218.656.51.656.728s-.364.291-.8.073a1.284,1.284,0,0,1-.655-.8c.072-.145.363-.145.8,0Z" fill="#09090a" fill-rule="evenodd"/>
        <path id="Path_314" data-name="Path 314" d="M1811.636,92.162c.437.145.655.436.655.655,0,.145-.364.145-.729,0-.363-.219-.581-.51-.581-.655,0-.218.291-.218.655,0Z" fill="#09090a" fill-rule="evenodd"/>
        <path id="Path_315" data-name="Path 315" d="M1811.782,91.215c.363.146.581.364.581.583-.072.218-.29.146-.655,0s-.582-.364-.582-.583c.073-.218.292-.145.656,0Z" fill="#09090a" fill-rule="evenodd"/>
        <path id="Path_316" data-name="Path 316" d="M1811.927,90.269c.291.146.51.364.51.51-.074.218-.292.145-.583,0s-.51-.364-.51-.51.292-.145.583,0Z" fill="#09090a" fill-rule="evenodd"/>
        <path id="Path_317" data-name="Path 317" d="M1812,89.4c.291.145.509.364.509.509-.072.146-.291.073-.582,0-.219-.145-.437-.364-.437-.509.072-.146.218-.073.51,0Z" fill="#09090a" fill-rule="evenodd"/>
        <path id="Path_318" data-name="Path 318" d="M1812.145,88.6c.218.073.364.218.364.364s-.218.073-.436,0c-.219-.146-.437-.291-.437-.437.072-.073.218-.073.509.073Z" fill="#09090a" fill-rule="evenodd"/>
        <path id="Path_319" data-name="Path 319" d="M1812.218,87.794c.219.073.365.219.365.291-.074.146-.22.146-.365,0-.218-.072-.364-.218-.364-.364,0-.072.146-.072.364.073Z" fill="#09090a" fill-rule="evenodd"/>
        <path id="Path_320" data-name="Path 320" d="M1808.579,113.418a1.5,1.5,0,0,1-.946-1.456c.072-.509.655-.728,1.236-.437a1.551,1.551,0,0,1,.947,1.456c-.073.51-.583.655-1.237.437Z" fill="#09090a" fill-rule="evenodd"/>
        <path id="Path_321" data-name="Path 321" d="M1808.214,115.893a1.445,1.445,0,0,1-.945-1.456c.072-.51.582-.728,1.237-.437a1.447,1.447,0,0,1,.873,1.383c-.072.582-.582.8-1.165.51Z" fill="#09090a" fill-rule="evenodd"/>
        <path id="Path_322" data-name="Path 322" d="M1807.778,118.513a1.382,1.382,0,0,1-.874-1.455c.073-.51.583-.728,1.164-.51a1.482,1.482,0,0,1,.875,1.456c-.074.509-.583.728-1.165.509Z" fill="#09090a" fill-rule="evenodd"/>
        <path id="Path_323" data-name="Path 323" d="M1807.269,121.352a1.324,1.324,0,0,1-.8-1.383c.072-.582.582-.8,1.165-.582a1.484,1.484,0,0,1,.873,1.456.866.866,0,0,1-1.237.509Z" fill="#09090a" fill-rule="evenodd"/>
        <path id="Path_324" data-name="Path 324" d="M1806.832,124.264a1.332,1.332,0,0,1-.729-1.311.67.67,0,0,1,1.02-.509,1.179,1.179,0,0,1,.728,1.238.731.731,0,0,1-1.019.582Z" fill="#09090a" fill-rule="evenodd"/>
        <path id="Path_325" data-name="Path 325" d="M1806.249,127.685a1.128,1.128,0,0,1-.728-1.237.7.7,0,0,1,1.019-.582,1.282,1.282,0,0,1,.729,1.237c-.146.51-.583.8-1.02.582Z" fill="#09090a" fill-rule="evenodd"/>
        <path id="Path_326" data-name="Path 326" d="M1805.594,131.471a1.171,1.171,0,0,1-.656-1.238.655.655,0,0,1,.947-.509,1.029,1.029,0,0,1,.583,1.165.632.632,0,0,1-.874.582Z" fill="#09090a" fill-rule="evenodd"/>
        <path id="Path_327" data-name="Path 327" d="M1804.938,135.183a.929.929,0,0,1-.509-1.019.567.567,0,0,1,.8-.51c.364.074.583.51.509,1.019-.145.436-.436.657-.8.51Z" fill="#09090a" fill-rule="evenodd"/>
        <path id="Path_328" data-name="Path 328" d="M1811.782,110.579a1.529,1.529,0,0,1,.946,1.383c-.073.509-.51.655-1.092.364a1.609,1.609,0,0,1-1.019-1.383c.146-.437.582-.583,1.165-.364Z" fill="#09090a" fill-rule="evenodd"/>
        <path id="Path_329" data-name="Path 329" d="M1814.329,111.6a2.138,2.138,0,0,1,1.238,1.674c-.072.583-.655.8-1.383.51a2.141,2.141,0,0,1-1.238-1.747c.072-.582.655-.8,1.383-.437Z" fill="#09090a" fill-rule="evenodd"/>
        <path id="Path_330" data-name="Path 330" d="M1833.475,109.56c-.364-.146-.511-.146-.437.145a1.239,1.239,0,0,0,.655.874c.291.145.437.145.437-.146a1.869,1.869,0,0,0-.655-.873Z" fill="#09090a" fill-rule="evenodd"/>
        <path id="Path_331" data-name="Path 331" d="M1831.436,108.395c-.291-.146-.51-.073-.436.145a1.366,1.366,0,0,0,.581.728c.292.146.51.146.438-.073a1.537,1.537,0,0,0-.583-.8Z" fill="#09090a" fill-rule="evenodd"/>
        <path id="Path_332" data-name="Path 332" d="M1831.727,110.069c-.291-.218-.509-.146-.509.146a1.844,1.844,0,0,0,.655.873c.364.146.509.073.509-.145a1.85,1.85,0,0,0-.655-.874Z" fill="#09090a" fill-rule="evenodd"/>
        <path id="Path_333" data-name="Path 333" d="M1829.689,108.759c-.437-.219-.655-.073-.655.218a1.93,1.93,0,0,0,.8.946c.364.219.655.146.582-.145a1.44,1.44,0,0,0-.728-1.019Z" fill="#09090a" fill-rule="evenodd"/>
        <path id="Path_334" data-name="Path 334" d="M1824.594,127.9c-.51-.291-.873-.073-.873.51a2.146,2.146,0,0,0,.945,1.528c.509.291.873.073.873-.51a2.148,2.148,0,0,0-.945-1.528Z" fill="#09090a" fill-rule="evenodd"/>
        <path id="Path_335" data-name="Path 335" d="M1822.045,123.172c-.581-.291-1.019-.073-1.019.51a2,2,0,0,0,1.019,1.674c.583.364,1.02.073,1.02-.51a1.994,1.994,0,0,0-1.02-1.674Z" fill="#09090a" fill-rule="evenodd"/>
        <path id="Path_336" data-name="Path 336" d="M1819.352,119.1c-.583-.291-1.019-.073-1.019.509a1.859,1.859,0,0,0,1.019,1.529c.582.291,1.019.073,1.019-.51a1.861,1.861,0,0,0-1.019-1.528Z" fill="#09090a" fill-rule="evenodd"/>
        <path id="Path_337" data-name="Path 337" d="M1817.241,102.207c-.509-.291-.947-.218-.947.146a1.523,1.523,0,0,0,.947,1.092c.509.291.947.218.947-.146a1.525,1.525,0,0,0-.947-1.092Z" fill="#09090a" fill-rule="evenodd"/>
        <path id="Path_338" data-name="Path 338" d="M1827.87,109.414c-.438-.219-.657-.146-.657.146a1.563,1.563,0,0,0,.8,1.019c.365.218.655.145.655-.219a1.935,1.935,0,0,0-.8-.946Z" fill="#09090a" fill-rule="evenodd"/>
        <path id="Path_339" data-name="Path 339" d="M1825.758,108.177c-.437-.219-.728-.073-.655.218a1.6,1.6,0,0,0,.8,1.092c.436.218.727.145.727-.219a2.023,2.023,0,0,0-.873-1.091Z" fill="#09090a" fill-rule="evenodd"/>
        <path id="Path_340" data-name="Path 340" d="M1821.682,107.667c-.51-.291-.874-.146-.874.218a1.5,1.5,0,0,0,.946,1.165c.51.291.874.145.874-.218a1.661,1.661,0,0,0-.946-1.165Z" fill="#09090a" fill-rule="evenodd"/>
        <path id="Path_341" data-name="Path 341" d="M1823.721,106.939c-.511-.218-.947-.146-.875.291a1.862,1.862,0,0,0,.947,1.238c.581.291.946.145.946-.291a2.285,2.285,0,0,0-1.018-1.238Z" fill="#09090a" fill-rule="evenodd"/>
        <path id="Path_342" data-name="Path 342" d="M1821.536,105.775c-.655-.291-1.093-.219-1.093.291a2.277,2.277,0,0,0,1.166,1.383c.582.29,1.019.145,1.019-.291a1.846,1.846,0,0,0-1.092-1.383Z" fill="#09090a" fill-rule="evenodd"/>
        <path id="Path_343" data-name="Path 343" d="M1819.424,106.43c-.509-.292-.945-.146-.945.291a1.883,1.883,0,0,0,1.019,1.31c.509.218.945.146.945-.292a1.756,1.756,0,0,0-1.019-1.309Z" fill="#09090a" fill-rule="evenodd"/>
        <path id="Path_344" data-name="Path 344" d="M1816.8,115.238c-.582-.292-1.019-.073-1.091.436a1.854,1.854,0,0,0,1.019,1.456c.582.291,1.092.073,1.092-.437a1.752,1.752,0,0,0-1.02-1.455Z" fill="#09090a" fill-rule="evenodd"/>
        <path id="Path_345" data-name="Path 345" d="M1816.95,112.909c-.656-.292-1.165-.073-1.237.436a2,2,0,0,0,1.091,1.6c.655.292,1.164.073,1.238-.436a2.177,2.177,0,0,0-1.092-1.6Z" fill="#09090a" fill-rule="evenodd"/>
        <path id="Path_346" data-name="Path 346" d="M1817.023,110.8c-.729-.364-1.238-.145-1.31.364a1.95,1.95,0,0,0,1.237,1.675c.655.363,1.238.145,1.238-.437a1.991,1.991,0,0,0-1.165-1.6Z" fill="#09090a" fill-rule="evenodd"/>
        <path id="Path_347" data-name="Path 347" d="M1817.095,108.759c-.655-.291-1.237-.146-1.237.364a1.891,1.891,0,0,0,1.165,1.6c.655.291,1.165.146,1.237-.436a2.113,2.113,0,0,0-1.165-1.529Z" fill="#09090a" fill-rule="evenodd"/>
        <path id="Path_348" data-name="Path 348" d="M1817.095,107.012c-.581-.291-1.019-.146-1.091.291a1.757,1.757,0,0,0,1.019,1.31c.655.292,1.091.146,1.091-.291a1.755,1.755,0,0,0-1.019-1.31Z" fill="#09090a" fill-rule="evenodd"/>
        <path id="Path_349" data-name="Path 349" d="M1817.169,105.192c-.655-.218-1.093-.146-1.165.292a2.013,2.013,0,0,0,1.165,1.455c.581.291,1.091.146,1.091-.291a1.9,1.9,0,0,0-1.091-1.456Z" fill="#09090a" fill-rule="evenodd"/>
        <path id="Path_350" data-name="Path 350" d="M1817.241,103.59c-.655-.291-1.091-.145-1.165.292a1.875,1.875,0,0,0,1.093,1.31c.655.292,1.091.218,1.091-.218a1.861,1.861,0,0,0-1.019-1.384Z" fill="#09090a" fill-rule="evenodd"/>
        <path id="Path_351" data-name="Path 351" d="M1813.164,98.786c-.436-.218-.8-.146-.8.146-.072.291.292.655.729.873.437.146.727.146.8-.146a1.178,1.178,0,0,0-.729-.873Z" fill="#09090a" fill-rule="evenodd"/>
        <path id="Path_352" data-name="Path 352" d="M1813.164,97.549c-.364-.219-.655-.146-.727.072,0,.219.291.583.727.8.365.146.655.146.729-.072a.993.993,0,0,0-.729-.8Z" fill="#09090a" fill-rule="evenodd"/>
        <path id="Path_353" data-name="Path 353" d="M1813.238,96.384c-.365-.219-.655-.219-.655,0a.841.841,0,0,0,.581.655c.365.219.655.146.655,0a.842.842,0,0,0-.581-.655Z" fill="#09090a" fill-rule="evenodd"/>
        <path id="Path_354" data-name="Path 354" d="M1813.238,95.219c-.292-.145-.51-.145-.583,0,0,.218.218.437.509.583.365.145.583.145.583,0,.072-.219-.218-.437-.509-.583Z" fill="#09090a" fill-rule="evenodd"/>
        <path id="Path_355" data-name="Path 355" d="M1813.238,94.127c-.292-.146-.51-.146-.51,0,0,.219.218.437.51.582s.509.146.509-.072c0-.146-.218-.364-.509-.51Z" fill="#09090a" fill-rule="evenodd"/>
        <path id="Path_356" data-name="Path 356" d="M1813.31,93.035c-.292-.145-.51-.145-.51,0s.218.364.438.437c.291.146.436.219.509,0,0-.146-.218-.291-.437-.437Z" fill="#09090a" fill-rule="evenodd"/>
        <path id="Path_357" data-name="Path 357" d="M1813.31,92.089c-.218-.145-.437-.145-.437,0s.145.291.365.437c.291.072.436.146.436,0s-.145-.292-.364-.437Z" fill="#09090a" fill-rule="evenodd"/>
        <path id="Path_358" data-name="Path 358" d="M1813.31,91.07c-.218-.073-.364-.073-.364,0,0,.145.146.291.364.437.219.072.364.072.364,0,0-.146-.145-.292-.364-.437Z" fill="#09090a" fill-rule="evenodd"/>
        <path id="Path_359" data-name="Path 359" d="M1811.418,114.364c.436.219.8.073.873-.291a1.273,1.273,0,0,0-.729-1.092c-.509-.218-.873-.072-.945.291a1.228,1.228,0,0,0,.8,1.092Z" fill="#09090a" fill-rule="evenodd"/>
        <path id="Path_360" data-name="Path 360" d="M1811.053,116.912c.437.146.8,0,.874-.364a1.151,1.151,0,0,0-.728-1.092.55.55,0,0,0-.8.364,1.088,1.088,0,0,0,.655,1.092Z" fill="#09090a" fill-rule="evenodd"/>
        <path id="Path_361" data-name="Path 361" d="M1810.544,119.46a.566.566,0,0,0,.874-.364,1.2,1.2,0,0,0-.655-1.092c-.437-.146-.8,0-.875.437a1.056,1.056,0,0,0,.656,1.019Z" fill="#09090a" fill-rule="evenodd"/>
        <path id="Path_362" data-name="Path 362" d="M1810.108,122.3c.436.145.727,0,.8-.437a1.1,1.1,0,0,0-.582-1.019c-.438-.146-.8,0-.874.436a1.175,1.175,0,0,0,.656,1.02Z" fill="#09090a" fill-rule="evenodd"/>
        <path id="Path_363" data-name="Path 363" d="M1809.525,125.065a.549.549,0,0,0,.8-.437,1.133,1.133,0,0,0-.583-.946.581.581,0,0,0-.8.437,1.049,1.049,0,0,0,.582.946Z" fill="#09090a" fill-rule="evenodd"/>
        <path id="Path_364" data-name="Path 364" d="M1808.869,128.414a.492.492,0,0,0,.729-.437,1.013,1.013,0,0,0-.509-.874c-.365-.218-.655,0-.729.364a.883.883,0,0,0,.509.947Z" fill="#09090a" fill-rule="evenodd"/>
        <path id="Path_365" data-name="Path 365" d="M1819.352,104.756c-.509-.292-.946-.146-.946.218a1.721,1.721,0,0,0,.946,1.237c.582.292,1.019.146,1.019-.218a1.834,1.834,0,0,0-1.019-1.237Z" fill="#09090a" fill-rule="evenodd"/>
        <path id="Path_366" data-name="Path 366" d="M1819.352,108.322c-.437-.218-.8-.145-.8.218a1.467,1.467,0,0,0,.8,1.092c.51.219.873.146.873-.291,0-.364-.437-.8-.873-1.019Z" fill="#09090a" fill-rule="evenodd"/>
        <path id="Path_367" data-name="Path 367" d="M1819.352,110.069c-.509-.218-.873-.146-.946.291a1.7,1.7,0,0,0,.946,1.31c.582.292.947.146.947-.29a1.654,1.654,0,0,0-.947-1.311Z" fill="#09090a" fill-rule="evenodd"/>
        <path id="Path_368" data-name="Path 368" d="M1819.352,116.548c-.509-.218-.946-.073-.946.437a1.521,1.521,0,0,0,.873,1.31c.583.291.946.146.946-.364a1.727,1.727,0,0,0-.873-1.383Z" fill="#09090a" fill-rule="evenodd"/>
        <path id="Path_369" data-name="Path 369" d="M1827.65,107.594c-.437-.218-.727-.145-.727.219a2.02,2.02,0,0,0,.873,1.092c.437.218.729.145.729-.219a2.026,2.026,0,0,0-.875-1.092Z" fill="#09090a" fill-rule="evenodd"/>
        <path id="Path_370" data-name="Path 370" d="M1821.973,126.229c-.509-.218-.874,0-.874.51a1.656,1.656,0,0,0,.874,1.456c.509.291.873.073.873-.51a2.346,2.346,0,0,0-.873-1.456Z" fill="#09090a" fill-rule="evenodd"/>
        <path id="Path_371" data-name="Path 371" d="M1824.739,131.107c-.437-.291-.8-.073-.8.509a1.87,1.87,0,0,0,.874,1.529c.437.291.8,0,.727-.51a1.886,1.886,0,0,0-.8-1.528Z" fill="#09090a" fill-rule="evenodd"/>
        <path id="Path_372" data-name="Path 372" d="M1819.207,121.79c-.51-.219-.947,0-.947.509a1.722,1.722,0,0,0,.947,1.455c.509.291.946.073.946-.509a1.764,1.764,0,0,0-.946-1.455Z" fill="#09090a" fill-rule="evenodd"/>
        <path id="Path_373" data-name="Path 373" d="M1816.732,117.858c-.582-.218-.947-.072-1.019.437a1.727,1.727,0,0,0,.873,1.383c.583.218.946.073,1.019-.509a1.938,1.938,0,0,0-.873-1.311Z" fill="#09090a" fill-rule="evenodd"/>
        <path id="Path_374" data-name="Path 374" d="M1814.184,114c-.583-.218-1.02-.073-1.092.437a1.571,1.571,0,0,0,.947,1.383c.581.291,1.091.073,1.091-.437a1.525,1.525,0,0,0-.946-1.383Z" fill="#09090a" fill-rule="evenodd"/>
        <path id="Path_375" data-name="Path 375" d="M1819.352,114.364c-.509-.219-.873-.073-.873.364a1.612,1.612,0,0,0,.873,1.237c.51.219.873.073.873-.364a1.508,1.508,0,0,0-.873-1.237Z" fill="#09090a" fill-rule="evenodd"/>
        <path id="Path_376" data-name="Path 376" d="M1817.314,100.824c-.51-.218-.8-.218-.874.073,0,.364.364.728.8,1.019.509.218.8.146.8-.218a1.18,1.18,0,0,0-.728-.874Z" fill="#09090a" fill-rule="evenodd"/>
        <path id="Path_377" data-name="Path 377" d="M1825.613,106.648c-.364-.218-.583-.145-.583.145a1.176,1.176,0,0,0,.728.874c.292.146.582.072.582-.218a1.508,1.508,0,0,0-.727-.8Z" fill="#09090a" fill-rule="evenodd"/>
        <path id="Path_378" data-name="Path 378" d="M1821.827,111.525c-.437-.218-.728-.145-.728.218a1.444,1.444,0,0,0,.728,1.02c.437.218.728.073.728-.219a1.441,1.441,0,0,0-.728-1.019Z" fill="#09090a" fill-rule="evenodd"/>
        <path id="Path_379" data-name="Path 379" d="M1821.9,120.479c-.509-.218-.873,0-.873.437a1.747,1.747,0,0,0,.873,1.455c.583.292.947.073.947-.436a2.009,2.009,0,0,0-.947-1.456Z" fill="#09090a" fill-rule="evenodd"/>
        <path id="Path_380" data-name="Path 380" d="M1819.352,112.253c-.437-.218-.8-.072-.873.291a1.556,1.556,0,0,0,.873,1.165c.51.291.873.146.873-.291a1.506,1.506,0,0,0-.873-1.165Z" fill="#09090a" fill-rule="evenodd"/>
        <path id="Path_381" data-name="Path 381" d="M1824.23,114.8c-.437-.218-.8-.073-.8.291a2.071,2.071,0,0,0,.873,1.238c.437.218.8.145.8-.292a1.886,1.886,0,0,0-.873-1.237Z" fill="#09090a" fill-rule="evenodd"/>
        <path id="Path_382" data-name="Path 382" d="M1826.849,136.493c-.363-.218-.655,0-.655.509a2.34,2.34,0,0,0,.729,1.384c.364.218.655,0,.655-.509a2.334,2.334,0,0,0-.729-1.384Z" fill="#09090a" fill-rule="evenodd"/>
        <path id="Path_383" data-name="Path 383" d="M1823.865,108.832c-.436-.219-.727-.146-.727.218a1.362,1.362,0,0,0,.8,1.019c.436.219.728.146.728-.218a1.8,1.8,0,0,0-.8-1.019Z" fill="#09090a" fill-rule="evenodd"/>
        <path id="Path_384" data-name="Path 384" d="M1815.13,99.805c-.364-.218-.728-.146-.728.146,0,.218.292.582.728.8.365.219.728.146.728-.145,0-.219-.291-.582-.728-.8Z" fill="#09090a" fill-rule="evenodd"/>
        <path id="Path_385" data-name="Path 385" d="M1819.279,100.533c-.364-.219-.655-.146-.655.073a1.177,1.177,0,0,0,.728.873c.364.146.655.146.655-.145s-.291-.583-.728-.8Z" fill="#09090a" fill-rule="evenodd"/>
        <path id="Path_386" data-name="Path 386" d="M1823.575,105.629c-.292-.219-.51-.145-.51.073,0,.291.291.582.582.8.364.145.583.072.583-.146,0-.291-.292-.582-.655-.728Z" fill="#09090a" fill-rule="evenodd"/>
        <path id="Path_387" data-name="Path 387" d="M1821.754,113.564c-.436-.219-.728-.073-.728.291a1.675,1.675,0,0,0,.8,1.091c.364.219.728.073.728-.291a1.467,1.467,0,0,0-.8-1.091Z" fill="#09090a" fill-rule="evenodd"/>
        <path id="Path_388" data-name="Path 388" d="M1824.011,112.763c-.364-.219-.582-.146-.582.218a1.12,1.12,0,0,0,.655.874c.364.218.655.145.655-.219a1.421,1.421,0,0,0-.728-.873Z" fill="#09090a" fill-rule="evenodd"/>
        <path id="Path_389" data-name="Path 389" d="M1826.486,116.111c-.436-.218-.728-.073-.656.291a1.865,1.865,0,0,0,.729,1.165c.436.219.728.073.654-.364a1.569,1.569,0,0,0-.727-1.092Z" fill="#09090a" fill-rule="evenodd"/>
        <path id="Path_390" data-name="Path 390" d="M1829.835,110.579c-.291-.146-.511-.073-.511.218a1.42,1.42,0,0,0,.656.8c.365.218.582.145.51-.145a1.478,1.478,0,0,0-.655-.874Z" fill="#09090a" fill-rule="evenodd"/>
        <path id="Path_391" data-name="Path 391" d="M1819.279,99.3c-.364-.146-.655-.146-.655.072a1.244,1.244,0,0,0,.655.729c.365.145.583.145.583-.073s-.292-.51-.583-.728Z" fill="#09090a" fill-rule="evenodd"/>
        <path id="Path_392" data-name="Path 392" d="M1819.352,101.916c-.437-.218-.655-.145-.655.146a1.046,1.046,0,0,0,.655.728c.364.218.655.145.655-.073a1.355,1.355,0,0,0-.655-.8Z" fill="#09090a" fill-rule="evenodd"/>
        <path id="Path_393" data-name="Path 393" d="M1827.141,133.145c-.437-.219-.727-.073-.727.509a3.1,3.1,0,0,0,.8,1.529c.437.218.729.073.729-.51a2,2,0,0,0-.8-1.528Z" fill="#09090a" fill-rule="evenodd"/>
        <path id="Path_394" data-name="Path 394" d="M1817.314,99.587c-.364-.219-.655-.146-.655.072a1.04,1.04,0,0,0,.655.728c.364.219.582.146.654-.073a1.239,1.239,0,0,0-.654-.727Z" fill="#09090a" fill-rule="evenodd"/>
        <path id="Path_395" data-name="Path 395" d="M1821.682,109.632c-.364-.218-.656-.145-.656.146a1.24,1.24,0,0,0,.656.874c.363.145.655.072.582-.219a1.078,1.078,0,0,0-.582-.8Z" fill="#09090a" fill-rule="evenodd"/>
        <path id="Path_396" data-name="Path 396" d="M1821.464,104.537c-.292-.146-.51-.073-.51.146a.842.842,0,0,0,.582.655c.291.146.509.072.437-.146a.882.882,0,0,0-.509-.655Z" fill="#09090a" fill-rule="evenodd"/>
        <path id="Path_397" data-name="Path 397" d="M1821.9,118.149c-.363-.218-.655-.073-.655.292a1.225,1.225,0,0,0,.655.946c.365.218.656.073.583-.291a1.2,1.2,0,0,0-.583-.947Z" fill="#09090a" fill-rule="evenodd"/>
        <path id="Path_398" data-name="Path 398" d="M1824.594,124.919c-.438-.219-.729-.073-.729.437a1.586,1.586,0,0,0,.8,1.238c.364.218.655.073.655-.437a1.7,1.7,0,0,0-.727-1.238Z" fill="#09090a" fill-rule="evenodd"/>
        <path id="Path_399" data-name="Path 399" d="M1819.352,103.518c-.291-.146-.509-.073-.509.072a.879.879,0,0,0,.509.656c.292.072.51.072.51-.146a.975.975,0,0,0-.51-.582Z" fill="#09090a" fill-rule="evenodd"/>
        <path id="Path_400" data-name="Path 400" d="M1824.666,134.382c-.292-.218-.582,0-.582.438a1.479,1.479,0,0,0,.582,1.09c.364.221.583,0,.583-.436a1.487,1.487,0,0,0-.583-1.092Z" fill="#09090a" fill-rule="evenodd"/>
        <path id="Path_401" data-name="Path 401" d="M1835.221,110.724c-.218-.072-.364-.072-.364.146a1.472,1.472,0,0,0,.51.655c.291.145.437.145.363-.072a2.213,2.213,0,0,0-.509-.729Z" fill="#09090a" fill-rule="evenodd"/>
        <path id="Path_402" data-name="Path 402" d="M1825.976,110.069c-.363-.146-.581-.073-.581.219a1.844,1.844,0,0,0,.655.873c.364.146.581.073.581-.218a1.851,1.851,0,0,0-.655-.874Z" fill="#09090a" fill-rule="evenodd"/>
        <path id="Path_403" data-name="Path 403" d="M1821.318,100.387c-.292-.145-.583-.145-.583.073a1.238,1.238,0,0,0,.583.655c.364.146.581.146.581-.072a1.239,1.239,0,0,0-.581-.656Z" fill="#09090a" fill-rule="evenodd"/>
        <path id="Path_404" data-name="Path 404" d="M1833.765,111.38c-.29-.219-.51-.146-.436.145a1.705,1.705,0,0,0,.582.728c.291.146.437.146.437-.145a1.452,1.452,0,0,0-.583-.728Z" fill="#09090a" fill-rule="evenodd"/>
        <path id="Path_405" data-name="Path 405" d="M1828.743,117.494c-.364-.146-.583-.073-.583.292a1.694,1.694,0,0,0,.728,1.019c.364.218.582.145.582-.219a1.838,1.838,0,0,0-.727-1.092Z" fill="#09090a" fill-rule="evenodd"/>
        <path id="Path_406" data-name="Path 406" d="M1837.186,112.035c-.217-.146-.363-.073-.363.146a1.829,1.829,0,0,0,.509.582c.146.146.292.073.292-.073a2.078,2.078,0,0,0-.438-.655Z" fill="#09090a" fill-rule="evenodd"/>
        <path id="Path_407" data-name="Path 407" d="M1829.4,107.376c-.218-.146-.364-.146-.364.073a1.284,1.284,0,0,0,.51.582c.218.146.436.146.363-.073a.688.688,0,0,0-.509-.582Z" fill="#09090a" fill-rule="evenodd"/>
        <path id="Path_408" data-name="Path 408" d="M1828.379,140.062c-.291-.292-.509-.074-.437.362a1.8,1.8,0,0,0,.509,1.31c.364.292.583.074.51-.435a1.818,1.818,0,0,0-.582-1.237Z" fill="#09090a" fill-rule="evenodd"/>
        <path id="Path_409" data-name="Path 409" d="M1821.973,129.505c-.364-.145-.655,0-.655.437a1.482,1.482,0,0,0,.655,1.165c.364.145.655,0,.655-.437a1.718,1.718,0,0,0-.655-1.165Z" fill="#09090a" fill-rule="evenodd"/>
        <path id="Path_410" data-name="Path 410" d="M1826.34,114.145c-.29-.145-.436-.072-.436.146a.983.983,0,0,0,.51.728c.217.146.435.073.435-.218a1.463,1.463,0,0,0-.509-.656Z" fill="#09090a" fill-rule="evenodd"/>
        <path id="Path_411" data-name="Path 411" d="M1821.172,99.15c-.291-.146-.509-.146-.509.073a1.117,1.117,0,0,0,.509.509c.292.146.51.146.437-.073,0-.145-.219-.363-.437-.509Z" fill="#09090a" fill-rule="evenodd"/>
        <path id="Path_412" data-name="Path 412" d="M1823.065,100.169c-.219-.072-.365-.072-.365.073s.22.364.438.437c.218.145.363.145.291,0,0-.219-.146-.365-.364-.51Z" fill="#09090a" fill-rule="evenodd"/>
        <path id="Path_413" data-name="Path 413" d="M1819.207,125.138a.378.378,0,0,0-.583.363,1.028,1.028,0,0,0,.583.874c.291.146.581.073.581-.291a1.136,1.136,0,0,0-.581-.946Z" fill="#09090a" fill-rule="evenodd"/>
        <path id="Path_414" data-name="Path 414" d="M1816.514,120.916c-.364-.219-.656-.073-.656.218a.944.944,0,0,0,.582.873.381.381,0,0,0,.583-.291.988.988,0,0,0-.509-.8Z" fill="#09090a" fill-rule="evenodd"/>
        <path id="Path_415" data-name="Path 415" d="M1813.893,116.912a.386.386,0,0,0-.583.218.9.9,0,0,0,.509.8q.547.217.656-.218a.927.927,0,0,0-.582-.8Z" fill="#09090a" fill-rule="evenodd"/>
        <path id="Path_416" data-name="Path 416" d="M1822.92,99c-.22-.072-.438-.072-.438.074a.848.848,0,0,0,.438.436c.29.145.436.145.436,0,0-.218-.218-.364-.436-.51Z" fill="#09090a" fill-rule="evenodd"/>
        <path id="Path_417" data-name="Path 417" d="M1824.374,99c-.218-.072-.363-.072-.363,0,0,.219.219.364.363.437.22.146.365.146.365,0s-.219-.291-.365-.437Z" fill="#09090a" fill-rule="evenodd"/>
        <path id="Path_418" data-name="Path 418" d="M1831,119.169c-.22-.146-.365-.073-.365.145a1.055,1.055,0,0,0,.51.728c.218.146.364.073.364-.218a1.094,1.094,0,0,0-.509-.655Z" fill="#09090a" fill-rule="evenodd"/>
        <path id="Path_419" data-name="Path 419" d="M1829.034,119.751c-.291-.146-.509-.073-.509.291a1.691,1.691,0,0,0,.581.874c.292.145.51,0,.438-.292a1.236,1.236,0,0,0-.51-.873Z" fill="#09090a" fill-rule="evenodd"/>
        <path id="Path_420" data-name="Path 420" d="M1826.631,118.441c-.217-.146-.437-.073-.437.218a1.683,1.683,0,0,0,.51.728c.291.146.509.073.437-.218a.981.981,0,0,0-.51-.728Z" fill="#09090a" fill-rule="evenodd"/>
        <path id="Path_421" data-name="Path 421" d="M1824.3,117.13c-.291-.145-.437-.072-.437.146a.968.968,0,0,0,.437.728c.292.072.437,0,.437-.218a.972.972,0,0,0-.437-.656Z" fill="#09090a" fill-rule="evenodd"/>
        <path id="Path_422" data-name="Path 422" d="M1821.827,115.82c-.218-.146-.437-.073-.437.145a.835.835,0,0,0,.437.655c.292.146.437.073.437-.145a.777.777,0,0,0-.437-.655Z" fill="#09090a" fill-rule="evenodd"/>
        <path id="Path_423" data-name="Path 423" d="M1831.218,121.279c-.218-.145-.364-.072-.364.219a1.111,1.111,0,0,0,.436.728c.219.145.437.073.365-.219a1.115,1.115,0,0,0-.437-.728Z" fill="#09090a" fill-rule="evenodd"/>
        <path id="Path_424" data-name="Path 424" d="M1833.547,122.881c-.218-.145-.364,0-.292.218a.866.866,0,0,0,.365.655c.218.219.364.073.291-.145a1.71,1.71,0,0,0-.364-.728Z" fill="#09090a" fill-rule="evenodd"/>
        <path id="Path_425" data-name="Path 425" d="M1821.318,101.7c-.219-.146-.437-.073-.437.073,0,.218.218.436.437.582.291.073.436.073.436-.073,0-.218-.218-.437-.436-.582Z" fill="#09090a" fill-rule="evenodd"/>
        <path id="Path_426" data-name="Path 426" d="M1806.54,108.177c-.655-.219-1.164-.073-1.237.363a1.3,1.3,0,0,0,.873,1.311c.582.291,1.165.145,1.237-.364a1.419,1.419,0,0,0-.873-1.31Z" fill="#09090a" fill-rule="evenodd"/>
        <path id="Path_427" data-name="Path 427" d="M1803.92,106.866c-.728-.363-1.457-.145-1.6.437s.291,1.237,1.092,1.6,1.456.145,1.6-.437a1.57,1.57,0,0,0-1.092-1.6Z" fill="#09090a" fill-rule="evenodd"/>
        <path id="Path_428" data-name="Path 428" d="M1784.338,87.066c.437.146.655.364.509.583s-.655.291-1.091.145-.655-.437-.509-.582a1.065,1.065,0,0,1,1.091-.146Z" fill="#09090a" fill-rule="evenodd"/>
        <path id="Path_429" data-name="Path 429" d="M1787.1,87.94c.437.145.655.364.51.582a1.014,1.014,0,0,1-.947.073c-.436-.146-.655-.364-.509-.582a1.011,1.011,0,0,1,.946-.073Z" fill="#09090a" fill-rule="evenodd"/>
        <path id="Path_430" data-name="Path 430" d="M1786.231,89.323c.436.073.655.364.582.582a1.061,1.061,0,0,1-1.091.146c-.438-.146-.656-.437-.51-.655a1.134,1.134,0,0,1,1.019-.073Z" fill="#09090a" fill-rule="evenodd"/>
        <path id="Path_431" data-name="Path 431" d="M1789.07,90.051c.509.218.8.509.655.8-.146.218-.655.291-1.238.145-.51-.218-.8-.509-.582-.8.146-.219.655-.292,1.165-.146Z" fill="#09090a" fill-rule="evenodd"/>
        <path id="Path_432" data-name="Path 432" d="M1788.706,112.471a.735.735,0,0,1,.582.947.935.935,0,0,1-1.091.437c-.511-.219-.729-.656-.583-1.019a.872.872,0,0,1,1.092-.365Z" fill="#09090a" fill-rule="evenodd"/>
        <path id="Path_433" data-name="Path 433" d="M1792.709,110.288a1.006,1.006,0,1,1-.727,1.82c-.583-.292-.947-.8-.729-1.311a1.105,1.105,0,0,1,1.456-.509Z" fill="#09090a" fill-rule="evenodd"/>
        <path id="Path_434" data-name="Path 434" d="M1796.713,108.977a1.262,1.262,0,0,1,.874,1.383c-.146.583-.8.728-1.456.51-.655-.291-1.093-.874-.874-1.383a1.078,1.078,0,0,1,1.456-.51Z" fill="#09090a" fill-rule="evenodd"/>
        <path id="Path_435" data-name="Path 435" d="M1803.92,95.8c.509.291.873.728.8,1.019-.072.364-.583.437-1.164.218-.583-.291-.947-.728-.8-1.092.072-.291.582-.364,1.165-.145Z" fill="#09090a" fill-rule="evenodd"/>
        <path id="Path_436" data-name="Path 436" d="M1790.963,92.38c.509.146.8.51.655.728a1.171,1.171,0,0,1-1.238.218c-.509-.218-.8-.509-.655-.8s.655-.364,1.238-.146Z" fill="#09090a" fill-rule="evenodd"/>
        <path id="Path_437" data-name="Path 437" d="M1793.582,93.253c.51.219.8.583.656.874s-.656.364-1.165.146c-.582-.146-.873-.582-.727-.874s.727-.364,1.236-.146Z" fill="#09090a" fill-rule="evenodd"/>
        <path id="Path_438" data-name="Path 438" d="M1798.023,96.6c.583.291.947.728.8,1.092-.146.291-.655.437-1.31.219-.582-.292-.947-.728-.8-1.092s.728-.437,1.31-.219Z" fill="#09090a" fill-rule="evenodd"/>
        <path id="Path_439" data-name="Path 439" d="M1796.131,94.127c.655.219,1.019.728.873,1.02-.146.363-.727.509-1.383.218-.655-.218-1.02-.728-.874-1.092.146-.292.8-.437,1.384-.146Z" fill="#09090a" fill-rule="evenodd"/>
        <path id="Path_440" data-name="Path 440" d="M1798.752,95.074c.655.291,1.091.8.946,1.237-.146.364-.8.51-1.529.219s-1.165-.874-.947-1.238c.146-.437.8-.51,1.53-.218Z" fill="#09090a" fill-rule="evenodd"/>
        <path id="Path_441" data-name="Path 441" d="M1800.571,97.621c.582.292,1.019.8.874,1.165s-.728.51-1.311.218c-.655-.291-1.091-.8-.945-1.164s.727-.51,1.382-.219Z" fill="#09090a" fill-rule="evenodd"/>
        <path id="Path_442" data-name="Path 442" d="M1800.426,107.885a1.4,1.4,0,0,1,.946,1.31c-.145.583-.8.728-1.456.437a1.184,1.184,0,0,1-.873-1.31.948.948,0,0,1,1.383-.437Z" fill="#09090a" fill-rule="evenodd"/>
        <path id="Path_443" data-name="Path 443" d="M1801.009,105.775c.727.291,1.164.873,1.019,1.455-.146.509-.8.655-1.529.364a1.479,1.479,0,0,1-1.02-1.456c.219-.509.874-.654,1.53-.363Z" fill="#09090a" fill-rule="evenodd"/>
        <path id="Path_444" data-name="Path 444" d="M1801.59,103.736c.728.364,1.165,1.02,1.019,1.529-.146.582-.8.728-1.6.437-.8-.364-1.239-1.019-1.093-1.6.218-.51.873-.655,1.674-.364Z" fill="#09090a" fill-rule="evenodd"/>
        <path id="Path_445" data-name="Path 445" d="M1802.1,101.916c.727.291,1.164.874,1.019,1.383s-.8.656-1.529.364-1.237-.946-1.091-1.456c.218-.509.873-.582,1.6-.291Z" fill="#09090a" fill-rule="evenodd"/>
        <path id="Path_446" data-name="Path 446" d="M1802.537,100.314a1.237,1.237,0,0,1,.945,1.165c-.145.437-.727.583-1.382.292s-1.019-.8-.873-1.238c.072-.436.655-.509,1.31-.219Z" fill="#09090a" fill-rule="evenodd"/>
        <path id="Path_447" data-name="Path 447" d="M1803.046,98.64c.728.292,1.165.874,1.019,1.311s-.728.582-1.456.218c-.655-.291-1.091-.873-1.019-1.31.146-.437.8-.509,1.456-.219Z" fill="#09090a" fill-rule="evenodd"/>
        <path id="Path_448" data-name="Path 448" d="M1803.482,97.112c.729.364,1.093.873,1.02,1.31-.145.364-.728.51-1.383.146-.728-.291-1.091-.8-1.019-1.238.145-.364.727-.509,1.382-.218Z" fill="#09090a" fill-rule="evenodd"/>
        <path id="Path_449" data-name="Path 449" d="M1808.652,96.675a1.093,1.093,0,0,1,.727.8c-.072.291-.436.291-.873.145a1.174,1.174,0,0,1-.728-.873c.073-.291.436-.291.874-.073Z" fill="#09090a" fill-rule="evenodd"/>
        <path id="Path_450" data-name="Path 450" d="M1809.015,95.437c.364.219.655.51.583.728,0,.292-.365.292-.8.146-.363-.218-.655-.582-.583-.8,0-.218.365-.218.8-.073Z" fill="#09090a" fill-rule="evenodd"/>
        <path id="Path_451" data-name="Path 451" d="M1809.307,94.346c.291.145.581.436.509.655,0,.146-.291.218-.655.073-.364-.219-.582-.51-.582-.655.073-.219.364-.219.728-.073Z" fill="#09090a" fill-rule="evenodd"/>
        <path id="Path_452" data-name="Path 452" d="M1809.6,93.253c.29.146.51.365.436.583,0,.145-.291.145-.582,0s-.509-.364-.509-.583q.108-.217.655,0Z" fill="#09090a" fill-rule="evenodd"/>
        <path id="Path_453" data-name="Path 453" d="M1809.816,92.307a.613.613,0,0,1,.51.51c-.074.145-.292.145-.583,0s-.51-.364-.51-.51c.074-.218.292-.145.583,0Z" fill="#09090a" fill-rule="evenodd"/>
        <path id="Path_454" data-name="Path 454" d="M1810.034,91.361c.292.146.51.291.437.437,0,.146-.219.146-.509,0-.219-.073-.437-.291-.364-.437,0-.146.218-.146.436,0Z" fill="#09090a" fill-rule="evenodd"/>
        <path id="Path_455" data-name="Path 455" d="M1810.252,90.56c.292.146.437.292.437.437-.072.146-.218.073-.509,0-.218-.145-.364-.291-.364-.437s.218-.145.436,0Z" fill="#09090a" fill-rule="evenodd"/>
        <path id="Path_456" data-name="Path 456" d="M1810.471,89.76c.218.145.364.291.364.364,0,.145-.218.073-.437,0-.146-.146-.364-.219-.29-.364,0-.146.218-.073.363,0Z" fill="#09090a" fill-rule="evenodd"/>
        <path id="Path_457" data-name="Path 457" d="M1805.813,111.816a1.029,1.029,0,0,1-.729-1.019c.074-.364.51-.509.947-.291a1.026,1.026,0,0,1,.727,1.019c-.072.364-.509.51-.945.291Z" fill="#09090a" fill-rule="evenodd"/>
        <path id="Path_458" data-name="Path 458" d="M1805.376,114.291a1.052,1.052,0,0,1-.656-1.019c.073-.363.51-.509.947-.291a1,1,0,0,1,.655.946.612.612,0,0,1-.946.364Z" fill="#09090a" fill-rule="evenodd"/>
        <path id="Path_459" data-name="Path 459" d="M1805.012,116.912a1.083,1.083,0,0,1-.655-1.092c.072-.364.436-.51.873-.364a1.05,1.05,0,0,1,.655,1.019c-.072.437-.437.583-.873.437Z" fill="#09090a" fill-rule="evenodd"/>
        <path id="Path_460" data-name="Path 460" d="M1804.648,119.678a.851.851,0,0,1-.583-.946c.072-.437.437-.583.873-.437a1.1,1.1,0,0,1,.583,1.019.581.581,0,0,1-.873.364Z" fill="#09090a" fill-rule="evenodd"/>
        <path id="Path_461" data-name="Path 461" d="M1804.137,122.736a.836.836,0,0,1-.509-.946.55.55,0,0,1,.8-.365.938.938,0,0,1,.583.946c-.074.365-.437.51-.875.365Z" fill="#09090a" fill-rule="evenodd"/>
        <path id="Path_462" data-name="Path 462" d="M1803.7,126.229a.832.832,0,0,1-.51-.946.549.549,0,0,1,.8-.364.79.79,0,0,1,.51.874c-.145.436-.437.582-.8.436Z" fill="#09090a" fill-rule="evenodd"/>
        <path id="Path_463" data-name="Path 463" d="M1801.153,96.165c.583.292.947.728.875,1.093-.146.436-.729.509-1.311.218s-1.019-.728-.874-1.092.728-.437,1.31-.219Z" fill="#09090a" fill-rule="evenodd"/>
        <path id="Path_464" data-name="Path 464" d="M1799.916,99.3c.583.218.873.655.8,1.018-.146.292-.583.437-1.165.219-.509-.219-.874-.655-.728-1.019s.583-.436,1.092-.218Z" fill="#09090a" fill-rule="evenodd"/>
        <path id="Path_465" data-name="Path 465" d="M1799.407,100.9c.581.291.946.8.873,1.165-.146.437-.728.509-1.31.291-.656-.219-1.019-.728-.874-1.165.146-.364.728-.509,1.311-.291Z" fill="#09090a" fill-rule="evenodd"/>
        <path id="Path_466" data-name="Path 466" d="M1797.441,106.793c.582.219.947.728.8,1.165a.9.9,0,0,1-1.31.364c-.583-.218-.947-.728-.8-1.164s.727-.583,1.31-.365Z" fill="#09090a" fill-rule="evenodd"/>
        <path id="Path_467" data-name="Path 467" d="M1791.763,90.924c.51.219.8.583.655.874s-.728.364-1.311.146c-.509-.219-.873-.583-.655-.874.146-.291.729-.364,1.311-.146Z" fill="#09090a" fill-rule="evenodd"/>
        <path id="Path_468" data-name="Path 468" d="M1791.763,113.054c.51.218.874.8.655,1.237a1.02,1.02,0,0,1-1.383.51.93.93,0,0,1-.655-1.237c.146-.51.727-.655,1.383-.51Z" fill="#09090a" fill-rule="evenodd"/>
        <path id="Path_469" data-name="Path 469" d="M1787.759,114.8a1,1,0,0,1,.655,1.31,1.131,1.131,0,0,1-1.456.509.954.954,0,0,1-.655-1.237,1.2,1.2,0,0,1,1.456-.582Z" fill="#09090a" fill-rule="evenodd"/>
        <path id="Path_470" data-name="Path 470" d="M1795.912,111.6a1.237,1.237,0,0,1,.8,1.311,1.106,1.106,0,0,1-1.456.509,1.283,1.283,0,0,1-.8-1.383c.218-.51.8-.655,1.455-.437Z" fill="#09090a" fill-rule="evenodd"/>
        <path id="Path_471" data-name="Path 471" d="M1799.77,110.288a1.287,1.287,0,0,1,.8,1.31.972.972,0,0,1-1.31.437c-.583-.292-.947-.8-.8-1.311a.972.972,0,0,1,1.31-.436Z" fill="#09090a" fill-rule="evenodd"/>
        <path id="Path_472" data-name="Path 472" d="M1803.337,109.123a1.358,1.358,0,0,1,.874,1.31c-.146.51-.729.655-1.31.437a1.26,1.26,0,0,1-.873-1.383c.072-.437.655-.655,1.309-.364Z" fill="#09090a" fill-rule="evenodd"/>
        <path id="Path_473" data-name="Path 473" d="M1798.1,104.683c.582.291.874.727.8,1.164a.94.94,0,0,1-1.238.291,1.122,1.122,0,0,1-.8-1.164c.146-.364.729-.437,1.238-.291Z" fill="#09090a" fill-rule="evenodd"/>
        <path id="Path_474" data-name="Path 474" d="M1804.283,94.564c.437.218.8.583.729.873s-.51.292-1.02.073-.8-.582-.728-.873.51-.291,1.019-.073Z" fill="#09090a" fill-rule="evenodd"/>
        <path id="Path_475" data-name="Path 475" d="M1794.311,92.016c.436.146.655.51.582.728a.827.827,0,0,1-1.019.073c-.436-.145-.655-.437-.582-.655.146-.291.582-.291,1.019-.146Z" fill="#09090a" fill-rule="evenodd"/>
        <path id="Path_476" data-name="Path 476" d="M1796.713,100.024a.808.808,0,0,1,.655.873c-.146.291-.582.364-1.091.218-.438-.218-.729-.582-.656-.946a.93.93,0,0,1,1.092-.145Z" fill="#09090a" fill-rule="evenodd"/>
        <path id="Path_477" data-name="Path 477" d="M1793.582,107.885a.919.919,0,1,1-.581,1.675c-.655-.292-.947-.8-.8-1.238a1.088,1.088,0,0,1,1.382-.437Z" fill="#09090a" fill-rule="evenodd"/>
        <path id="Path_478" data-name="Path 478" d="M1798.752,102.862c.509.219.873.656.727,1.093-.146.363-.655.436-1.165.218-.581-.218-.873-.655-.727-1.019.072-.364.582-.51,1.165-.292Z" fill="#09090a" fill-rule="evenodd"/>
        <path id="Path_479" data-name="Path 479" d="M1793.219,100.679a1.028,1.028,0,0,1,.728,1.019c-.219.364-.728.436-1.31.291-.583-.218-.874-.655-.729-1.019s.729-.51,1.311-.291Z" fill="#09090a" fill-rule="evenodd"/>
        <path id="Path_480" data-name="Path 480" d="M1784.266,116.693a.681.681,0,0,1,.437.874,1.041,1.041,0,0,1-1.093.437.758.758,0,0,1-.437-.946.9.9,0,0,1,1.093-.365Z" fill="#09090a" fill-rule="evenodd"/>
        <path id="Path_481" data-name="Path 481" d="M1795.4,95.656c.51.219.8.582.655.874s-.581.363-1.091.218c-.583-.218-.8-.583-.728-.873.145-.292.655-.365,1.164-.219Z" fill="#09090a" fill-rule="evenodd"/>
        <path id="Path_482" data-name="Path 482" d="M1806.54,95.656c.437.219.655.509.655.8-.072.218-.437.291-.873.073-.437-.146-.728-.583-.655-.8,0-.219.436-.292.873-.073Z" fill="#09090a" fill-rule="evenodd"/>
        <path id="Path_483" data-name="Path 483" d="M1800.134,91.579c.365.146.583.365.51.583,0,.145-.291.218-.656.072-.29-.145-.509-.363-.509-.509.073-.218.364-.218.655-.146Z" fill="#09090a" fill-rule="evenodd"/>
        <path id="Path_484" data-name="Path 484" d="M1796.713,92.962c.365.146.583.437.509.656-.072.145-.436.218-.873.073-.364-.146-.582-.438-.51-.656s.51-.218.874-.073Z" fill="#09090a" fill-rule="evenodd"/>
        <path id="Path_485" data-name="Path 485" d="M1795.985,101.843c.437.219.728.583.655.947-.145.364-.655.437-1.164.218-.438-.146-.729-.582-.655-.874.145-.363.655-.436,1.164-.291Z" fill="#09090a" fill-rule="evenodd"/>
        <path id="Path_486" data-name="Path 486" d="M1793.947,99c.436.219.728.51.582.8s-.509.364-1.019.219c-.437-.146-.655-.51-.509-.8.072-.291.509-.364.946-.219Z" fill="#09090a" fill-rule="evenodd"/>
        <path id="Path_487" data-name="Path 487" d="M1790.234,99.732c.583.219.8.582.656.947a.915.915,0,0,1-1.165.218c-.583-.146-.873-.51-.655-.873a1.015,1.015,0,0,1,1.164-.292Z" fill="#09090a" fill-rule="evenodd"/>
        <path id="Path_488" data-name="Path 488" d="M1788.269,91.579c.437.146.655.437.509.655a.93.93,0,0,1-1.019.146c-.437-.146-.655-.436-.509-.655a.935.935,0,0,1,1.019-.146Z" fill="#09090a" fill-rule="evenodd"/>
        <path id="Path_489" data-name="Path 489" d="M1800.717,90.488c.292.145.582.364.51.582,0,.145-.364.218-.728.073s-.583-.364-.511-.583c0-.145.365-.218.729-.072Z" fill="#09090a" fill-rule="evenodd"/>
        <path id="Path_490" data-name="Path 490" d="M1802.028,93.618c.435.145.727.509.655.8-.146.218-.51.218-.947.072-.437-.218-.727-.583-.655-.8s.509-.292.947-.073Z" fill="#09090a" fill-rule="evenodd"/>
        <path id="Path_491" data-name="Path 491" d="M1802.463,92.38c.364.218.656.51.583.655-.073.218-.363.291-.8.073a.843.843,0,0,1-.582-.655c.073-.219.437-.219.8-.073Z" fill="#09090a" fill-rule="evenodd"/>
        <path id="Path_492" data-name="Path 492" d="M1797.3,98.422a.738.738,0,0,1,.581.8c-.072.218-.509.291-.873.145-.437-.218-.727-.509-.582-.8.073-.218.51-.291.874-.146Z" fill="#09090a" fill-rule="evenodd"/>
        <path id="Path_493" data-name="Path 493" d="M1799.189,93.981c.363.219.509.438.509.656-.073.145-.437.218-.8.072-.291-.145-.509-.436-.437-.582.072-.219.364-.291.729-.146Z" fill="#09090a" fill-rule="evenodd"/>
        <path id="Path_494" data-name="Path 494" d="M1794.383,105.847a.741.741,0,0,1,.583.8c-.145.364-.509.437-.946.291s-.728-.509-.582-.873a.747.747,0,0,1,.945-.219Z" fill="#09090a" fill-rule="evenodd"/>
        <path id="Path_495" data-name="Path 495" d="M1801.518,95.074a.693.693,0,0,1,.436.509c-.072.146-.364.219-.655.073s-.51-.364-.436-.509c.072-.219.364-.219.655-.073Z" fill="#09090a" fill-rule="evenodd"/>
        <path id="Path_496" data-name="Path 496" d="M1804.575,93.4c.291.146.583.437.509.655-.072.146-.364.219-.727.073a.877.877,0,0,1-.51-.655c.073-.219.364-.219.728-.073Z" fill="#09090a" fill-rule="evenodd"/>
        <path id="Path_497" data-name="Path 497" d="M1781.645,86.338c.363.073.509.291.363.437a1.061,1.061,0,0,1-.873.146c-.365-.073-.583-.292-.437-.437a1.323,1.323,0,0,1,.947-.146Z" fill="#09090a" fill-rule="evenodd"/>
        <path id="Path_498" data-name="Path 498" d="M1792.709,94.782c.437.146.655.437.583.728a.932.932,0,0,1-1.019.146c-.437-.146-.655-.509-.51-.728.073-.219.51-.291.946-.146Z" fill="#09090a" fill-rule="evenodd"/>
        <path id="Path_499" data-name="Path 499" d="M1783.465,88.449c.363.073.583.364.437.51-.146.218-.583.218-1.02.145-.364-.145-.582-.363-.436-.509a.932.932,0,0,1,1.019-.146Z" fill="#09090a" fill-rule="evenodd"/>
        <path id="Path_500" data-name="Path 500" d="M1787.322,98.859c.437.145.655.437.51.8-.146.292-.656.365-1.165.219-.436-.146-.655-.51-.509-.8s.655-.365,1.164-.219Z" fill="#09090a" fill-rule="evenodd"/>
        <path id="Path_501" data-name="Path 501" d="M1779.242,85.756c.292.072.437.218.292.364a.9.9,0,0,1-.8.146c-.292-.073-.51-.219-.364-.292.146-.218.509-.218.873-.218Z" fill="#09090a" fill-rule="evenodd"/>
        <path id="Path_502" data-name="Path 502" d="M1789.8,88.959c.292.145.511.291.365.437-.073.145-.437.218-.729.073-.363-.073-.509-.292-.437-.437a.734.734,0,0,1,.8-.073Z" fill="#09090a" fill-rule="evenodd"/>
        <path id="Path_503" data-name="Path 503" d="M1783.319,119.387a.548.548,0,0,1,.437.8.877.877,0,0,1-1.019.436.562.562,0,0,1-.365-.873.723.723,0,0,1,.947-.364Z" fill="#09090a" fill-rule="evenodd"/>
        <path id="Path_504" data-name="Path 504" d="M1780.407,120.989c.363.145.509.436.363.727a.829.829,0,0,1-.945.364.512.512,0,0,1-.291-.728.786.786,0,0,1,.873-.363Z" fill="#09090a" fill-rule="evenodd"/>
        <path id="Path_505" data-name="Path 505" d="M1790.744,115.747a.738.738,0,0,1,.509.946.751.751,0,0,1-1.019.437.742.742,0,1,1,.51-1.383Z" fill="#09090a" fill-rule="evenodd"/>
        <path id="Path_506" data-name="Path 506" d="M1786.74,117.567a.984.984,0,0,1,.582,1.019.934.934,0,0,1-1.091.437.772.772,0,1,1,.509-1.456Z" fill="#09090a" fill-rule="evenodd"/>
        <path id="Path_507" data-name="Path 507" d="M1791.107,98.131c.365.146.511.364.438.582-.073.146-.438.219-.728.146-.365-.146-.583-.364-.437-.582.072-.146.437-.219.727-.146Z" fill="#09090a" fill-rule="evenodd"/>
        <path id="Path_508" data-name="Path 508" d="M1799.189,88.886a.529.529,0,0,1,.436.437c-.073.146-.292.146-.582,0-.291-.073-.437-.219-.437-.364.072-.146.291-.146.583-.073Z" fill="#09090a" fill-rule="evenodd"/>
        <path id="Path_509" data-name="Path 509" d="M1795.038,114.291a.735.735,0,0,1,.438.8.616.616,0,0,1-.875.291c-.363-.145-.581-.437-.436-.8.073-.292.436-.438.873-.292Z" fill="#09090a" fill-rule="evenodd"/>
        <path id="Path_510" data-name="Path 510" d="M1798.97,112.763a.786.786,0,0,1,.437.8c-.074.291-.364.436-.8.291a.784.784,0,0,1-.437-.8.567.567,0,0,1,.8-.291Z" fill="#09090a" fill-rule="evenodd"/>
        <path id="Path_511" data-name="Path 511" d="M1802.609,111.816c.364.146.583.437.51.728a.493.493,0,0,1-.728.292.851.851,0,0,1-.509-.8.54.54,0,0,1,.727-.219Z" fill="#09090a" fill-rule="evenodd"/>
        <path id="Path_512" data-name="Path 512" d="M1792.273,89.978c.218.073.364.219.291.364s-.291.146-.582.073c-.219-.146-.364-.291-.292-.437a.524.524,0,0,1,.583,0Z" fill="#09090a" fill-rule="evenodd"/>
        <path id="Path_513" data-name="Path 513" d="M1784.048,98.131c.363.073.509.291.363.437-.073.218-.437.291-.728.218-.364-.073-.51-.291-.364-.509.073-.146.437-.219.729-.146Z" fill="#09090a" fill-rule="evenodd"/>
        <path id="Path_514" data-name="Path 514" d="M1786.231,100.387c.436.073.582.364.436.656-.072.218-.509.291-.873.218-.436-.146-.655-.437-.51-.655a.849.849,0,0,1,.947-.219Z" fill="#09090a" fill-rule="evenodd"/>
        <path id="Path_515" data-name="Path 515" d="M1789.288,101.625a.481.481,0,0,1,.437.582.733.733,0,0,1-.8.219q-.546-.219-.437-.655a.622.622,0,0,1,.8-.146Z" fill="#09090a" fill-rule="evenodd"/>
        <path id="Path_516" data-name="Path 516" d="M1792.346,102.717c.291.073.437.364.363.51-.072.218-.363.291-.727.218-.292-.146-.437-.364-.364-.583s.364-.291.728-.145Z" fill="#09090a" fill-rule="evenodd"/>
        <path id="Path_517" data-name="Path 517" d="M1795.184,103.809c.292.146.51.364.364.582-.072.219-.364.292-.655.146a.478.478,0,0,1-.364-.582c.072-.219.364-.292.655-.146Z" fill="#09090a" fill-rule="evenodd"/>
        <path id="Path_518" data-name="Path 518" d="M1801.153,89.541c.292.146.437.291.437.437-.072.146-.291.146-.581.073-.22-.073-.438-.291-.438-.437.073-.145.292-.145.582-.073Z" fill="#09090a" fill-rule="evenodd"/>
        <path id="Path_519" data-name="Path 519" d="M1799.7,88.013c.218.072.436.218.364.363,0,.146-.219.146-.437.073-.292-.145-.436-.291-.436-.436a.421.421,0,0,1,.509,0Z" fill="#09090a" fill-rule="evenodd"/>
        <path id="Path_520" data-name="Path 520" d="M1798.169,86.629c.219.073.363.219.363.292-.072.145-.218.145-.436.073s-.363-.219-.363-.365c.072-.073.218-.073.436,0Z" fill="#09090a" fill-rule="evenodd"/>
        <path id="Path_521" data-name="Path 521" d="M1802.827,91.434a.531.531,0,0,1,.437.51c-.072.145-.291.145-.581,0s-.51-.365-.438-.51.292-.146.582,0Z" fill="#09090a" fill-rule="evenodd"/>
        <path id="Path_522" data-name="Path 522" d="M1783.1,99.587c.291.072.436.291.364.51a.764.764,0,0,1-.8.145c-.364-.073-.51-.291-.437-.51a.856.856,0,0,1,.874-.145Z" fill="#09090a" fill-rule="evenodd"/>
        <path id="Path_523" data-name="Path 523" d="M1780.115,98.859c.365.073.437.291.365.437a.894.894,0,0,1-.8.218c-.291-.073-.437-.291-.363-.436a.772.772,0,0,1,.8-.219Z" fill="#09090a" fill-rule="evenodd"/>
        <path id="Path_524" data-name="Path 524" d="M1805.012,96.966c-.146.364.218.8.727,1.092-.655-.145-1.091-.073-1.237.364a1.271,1.271,0,0,0,.582,1.092c-.509-.073-.873.073-.947.437-.145.436.22.946.8,1.31-.655-.218-1.164,0-1.31.437a1.307,1.307,0,0,0,.583,1.164.882.882,0,0,0-1.019.51,1.464,1.464,0,0,0,.728,1.311c-.656-.073-1.093.145-1.237.582a1.747,1.747,0,0,0,1.237,1.747c.655.291,1.31.218,1.528-.146a2.275,2.275,0,0,0,1.238,1.383,1.294,1.294,0,0,0,1.382-.072,2.56,2.56,0,0,0,1.239,1.237,1.189,1.189,0,0,0,1.31-.073,2.269,2.269,0,0,0,1.165,1.165,1.32,1.32,0,0,0,1.382,0,2.365,2.365,0,0,0,1.165,1.237c.8.365,1.384.146,1.456-.509a1.985,1.985,0,0,0-.8-1.456.743.743,0,0,0,.947-.583,2.018,2.018,0,0,0-.728-1.31c.436.073.8-.146.8-.509a1.985,1.985,0,0,0-.946-1.456c.581.218,1.018,0,1.018-.436a1.746,1.746,0,0,0-.727-1.166c.436.073.8-.072.8-.436a1.765,1.765,0,0,0-.947-1.311c.51.146.873.073.947-.291a1.626,1.626,0,0,0-1.092-1.237c-.51-.292-.947-.219-1.093,0a1.553,1.553,0,0,0-1.019-1.019c-.437-.292-.873-.292-1.092,0a1.869,1.869,0,0,0-1.091-1.165c-.583-.291-1.02-.219-1.238,0a1.477,1.477,0,0,0-1.019-.946c-.582-.364-1.093-.292-1.237.072h0c.072-.364-.365-.873-1.02-1.164-.582-.291-1.165-.219-1.237.145Zm8.3,11.429a.878.878,0,0,1,.509.655c0,.291-.29.364-.581.218a.874.874,0,0,1-.51-.728c0-.218.29-.291.582-.145Zm-2.4-1.092a.682.682,0,0,1,.436.582c0,.219-.291.292-.509.219a.879.879,0,0,1-.509-.655c.072-.219.291-.219.582-.146Zm-2.474-1.092c.29.146.509.364.435.582,0,.219-.29.292-.509.146-.292-.146-.509-.364-.436-.582,0-.219.29-.291.51-.146Zm-2.112-.582c-.073.218-.363.291-.728.146-.291-.146-.51-.437-.436-.656s.29-.291.655-.145a.879.879,0,0,1,.509.655Zm7.279,1.092a.724.724,0,0,1,.438.582.419.419,0,0,1-.51.146c-.291-.146-.511-.437-.437-.656,0-.145.218-.218.509-.072Zm-7.425-3.422c.292.146.438.364.364.583,0,.146-.218.218-.509.073-.292-.073-.51-.365-.437-.51.073-.218.291-.291.582-.146Zm7.571,1.6c.218.145.437.364.437.583-.073.218-.291.218-.51.145a.779.779,0,0,1-.436-.583c0-.218.218-.218.509-.145Zm-7.207-3.349c.218.146.437.364.437.582-.073.146-.291.219-.583.073-.291-.073-.509-.364-.435-.509.072-.219.29-.219.581-.146Zm7.279,1.747a.6.6,0,0,1,.438.51c0,.219-.218.219-.438.073a.533.533,0,0,1-.436-.51c0-.145.218-.218.436-.073Zm-6.987-3.348a.683.683,0,0,1,.437.582.341.341,0,0,1-.511.073.7.7,0,0,1-.436-.509c0-.219.292-.219.51-.146Zm7.061,1.6c.291.146.509.364.509.582-.073.219-.291.219-.583.073a.739.739,0,0,1-.436-.509c0-.219.218-.219.51-.146Zm-2.111-.946a.537.537,0,0,1,.363.437c0,.218-.218.218-.437.145a.694.694,0,0,1-.436-.509c0-.219.218-.219.51-.073Zm-2.184-1.092a.753.753,0,0,1,.364.51c0,.145-.219.218-.51.073-.219-.146-.437-.292-.363-.51,0-.146.218-.146.509-.073Zm-2.4-1.164a.778.778,0,0,1,.438.582c0,.218-.292.218-.583.072s-.51-.364-.436-.509c.072-.218.29-.218.581-.145Z" fill="#09090a" fill-rule="evenodd"/>
      </g>
    </g>
  </g>
</svg>
