<svg xmlns="http://www.w3.org/2000/svg" width="53.293" height="48.626" viewBox="0 0 53.293 48.626">
  <g id="Component_34_11" data-name="Component 34 – 11" transform="translate(1.692 1.692)">
    <path id="Path_1779" data-name="Path 1779" d="M-114.062-132.965a24.928,24.928,0,0,0,10.844-20.585A24.955,24.955,0,0,0-128.173-178.5a24.955,24.955,0,0,0-24.955,24.955" transform="translate(153.128 178.504)" fill="none" stroke="#fff" stroke-width="3.384"/>
    <g id="right" transform="translate(9.888 14.872)">
      <g id="Group_956" data-name="Group 956" transform="translate(0)">
        <path id="Path_1278" data-name="Path 1278" d="M-19.855,92.882l7.4-7.4a.493.493,0,0,1,.7,0,.493.493,0,0,1,0,.7l-6.562,6.562H9.642a.494.494,0,1,1,0,.987H-18.315l6.562,6.562a.493.493,0,0,1,0,.7.492.492,0,0,1-.349.145.492.492,0,0,1-.349-.145l-7.4-7.4A.493.493,0,0,1-19.855,92.882Z" transform="translate(20 -85.333)" fill="#fff" stroke="#fff" stroke-width="1"/>
      </g>
    </g>
  </g>
</svg>
