<svg xmlns="http://www.w3.org/2000/svg" width="15.214" height="25.363" viewBox="0 0 15.214 25.363">
  <g id="Group_361" data-name="Group 361" transform="translate(-2827.989 -1711.072)">
    <path id="Path_3260" data-name="Path 3260" d="M2838.248,1731.45v1.526a8.311,8.311,0,0,1,3.351.894c-.542.422-2.722,1.043-6,1.043s-5.46-.621-6-1.043a8.284,8.284,0,0,1,3.326-.891v-1.526c-2.2.234-4.93.842-4.93,2.418,0,2.492,6.829,2.564,7.607,2.564s7.607-.072,7.607-2.564C2843.2,1732.289,2840.456,1731.683,2838.248,1731.45Z" fill="#887a5b"/>
    <path id="Path_3261" data-name="Path 3261" d="M2834.442,1723.65v9.967a.254.254,0,0,0,.253.254h1.777a.254.254,0,0,0,.253-.254v-9.967a6.98,6.98,0,0,1-2.283,0Z" fill="#887a5b"/>
    <path id="Path_3262" data-name="Path 3262" d="M2835.584,1722.221a5.574,5.574,0,1,0-5.575-5.575A5.574,5.574,0,0,0,2835.584,1722.221Zm.879-8.768a1.606,1.606,0,1,1,.236,1.972A1.423,1.423,0,0,1,2836.463,1713.453Z" fill="#887a5b"/>
  </g>
</svg>
