<svg xmlns="http://www.w3.org/2000/svg" width="41.161" height="68.62" viewBox="0 0 41.161 68.62"><defs><style>.a{fill:#fff;}</style></defs><g transform="translate(-835.393 -457.628)"><path class="a" d="M863.147,512.762v4.128c4.853.566,8.043,1.624,9.067,2.42-1.467,1.14-7.365,2.819-16.241,2.819s-14.774-1.679-16.241-2.819c1.019-.793,4.184-1.845,9-2.413v-4.128c-5.963.635-13.338,2.279-13.338,6.541,0,6.743,18.473,6.938,20.58,6.938s20.581-.2,20.581-6.938C876.554,515.032,869.121,513.391,863.147,512.762Z"/><path class="a" d="M852.849,491.659v26.965a.689.689,0,0,0,.687.687h4.806a.688.688,0,0,0,.686-.687V491.659a19.057,19.057,0,0,1-6.178,0Z"/><path class="a" d="M855.939,487.793a15.083,15.083,0,1,0-15.083-15.084A15.08,15.08,0,0,0,855.939,487.793Zm2.378-23.721c1.3-1.3,3.683-1.01,5.331.64s1.937,4.035.641,5.332-3.683,1.01-5.332-.64S857.02,465.367,858.317,464.072Z"/></g></svg>