<svg xmlns="http://www.w3.org/2000/svg" width="31" height="43.108" viewBox="0 0 31 43.108"><defs><style>.a,.c{fill:#fff;}.a{font-size:12.156px;font-family:ManifaV2-SemiBold, ManifaV2;font-weight:600;}.b{fill:#887a5b;}</style></defs><g transform="translate(-958.449 -756.986)"><g transform="translate(-1897 -2280)"><path class="b" d="M2869.106,3080.094l3.422-10.554,3.422-10.554h-13.687l3.422,10.554Z"/><circle class="b" cx="14.25" cy="14.25" r="14.25" transform="translate(2855.449 3036.986)"/></g><g transform="translate(-1897 -2280)"><path class="c" d="M2879.237,3053.8h-2.577v-2.84h.714v-.953h1.43a.238.238,0,0,0,0-.476h-1.191v-.953h1.191a.239.239,0,0,0,0-.477h-.238v-4.139a.626.626,0,0,0-.625-.625h0c-.021,0-.039.01-.06.012v0a.62.62,0,0,0-.565.612v.01h-.025l-.054.03a5.728,5.728,0,0,1-2.472.766,5.112,5.112,0,0,1-2.094-.573v-.232a.625.625,0,0,0-.624-.625h0a.625.625,0,0,0-.624.625v.231a5.12,5.12,0,0,1-2.1.574,5.442,5.442,0,0,1-2.271-.659v-.146a.618.618,0,0,0-.335-.544l-.238-.076v.006a.418.418,0,0,0-.051-.01h0a.625.625,0,0,0-.625.624v4.14h-1.528v1.906h1.667v.952h.715v2.84h-7.861a.238.238,0,0,0,0,.476h7.861v.643a.238.238,0,1,0,.476,0v-3.959h1.43v4.021a.238.238,0,1,0,.476,0v-.7h5.241v.7a.238.238,0,0,0,.476,0v-4.021h1.43v4.021a.238.238,0,0,0,.476,0v-.7h2.577a.238.238,0,0,0,0-.476Zm-2.339-3.316h-2.858v-.477h2.858Zm-10.719-1.906h.952v.953h-.952Zm1.429,0h.953v.953h-.953Zm1.429,0h.953v.953h-.953Zm1.429,0h.953v.953h-.953Zm1.43,0h.952v.953h-.952Zm1.429,0h.953v.953h-.953Zm3.1.953h-.239v-.953h.953v.953Zm-.715,0h-.953v-.953h.953Zm2.382-1.43h-.3v-4.139a.144.144,0,0,1,.125-.138h.03l.007,0a.145.145,0,0,1,.136.143Zm-3.325-2.858a5.978,5.978,0,0,0,2.55-.745v3.6h-4.645v-3.382A5.321,5.321,0,0,0,2874.764,3045.245Zm-2.868-1.282a.148.148,0,0,1,.148-.148h0a.149.149,0,0,1,.148.148v4.14h-.3v-4.14Zm-2.573,1.282a5.321,5.321,0,0,0,2.1-.525v3.383h-4.367v-3.463A5.622,5.622,0,0,0,2869.323,3045.245Zm-3.045-1.282a.146.146,0,0,1,.136-.143h.025a.146.146,0,0,1,.136.143v4.14h-.3Zm-1.529,4.617h.953v.953h-.953Zm1.906,1.906h-.238v-.477h2.858v.477h-2.62Zm7.623,3.316h-5.241v-2.84h.715v-.953h3.811v.953h.715Z"/><path class="c" d="M2865.977,3054.961a.24.24,0,0,0-.337,0,.485.485,0,0,0-.159.344c0,.662,1.485.839,2.363.839s2.363-.177,2.363-.839a.485.485,0,0,0-.161-.345.223.223,0,0,0-.324-.007.23.23,0,0,0,.012.33,4.861,4.861,0,0,1-3.756.013A.239.239,0,0,0,2865.977,3054.961Z"/><path class="c" d="M2870.978,3055.248a.238.238,0,0,0-.226.42c.209.112.265.206.265.239,0,.219-1.08.729-3.173.729s-3.169-.51-3.169-.729c0-.028.038-.1.178-.189a.238.238,0,0,0-.259-.4.71.71,0,0,0-.4.59c0,.828,1.889,1.205,3.645,1.205s3.649-.377,3.649-1.205C2871.493,3055.654,2871.32,3055.433,2870.978,3055.248Z"/><path class="c" d="M2873.6,3054.961a.241.241,0,0,0-.338,0,.489.489,0,0,0-.159.344c0,.662,1.486.839,2.363.839s2.363-.177,2.363-.839a.485.485,0,0,0-.16-.345.224.224,0,0,0-.325-.007.231.231,0,0,0,.013.33,3.094,3.094,0,0,1-1.891.384,3.057,3.057,0,0,1-1.865-.371A.239.239,0,0,0,2873.6,3054.961Z"/><path class="c" d="M2878.6,3055.248a.239.239,0,0,0-.227.42c.21.112.265.206.265.239,0,.219-1.079.729-3.173.729s-3.168-.51-3.168-.729c0-.028.037-.1.177-.189a.238.238,0,0,0-.258-.4.71.71,0,0,0-.4.59c0,.828,1.889,1.205,3.644,1.205s3.65-.377,3.65-1.205C2879.116,3055.654,2878.943,3055.433,2878.6,3055.248Z"/></g></g></svg>