<svg xmlns="http://www.w3.org/2000/svg" width="123.5" height="177.271" viewBox="0 0 123.5 177.271">
  <g id="quality_2_" data-name="quality (2)" transform="translate(-77.598)">
    <path id="Path_657" data-name="Path 657" d="M197.373,45.472l-11.65-9.757-2.652-14.963a10.378,10.378,0,0,0-10.234-8.58h-.01l-15.2.014L145.982,2.431a10.379,10.379,0,0,0-13.362.012l-11.632,9.778-15.2.014a10.379,10.379,0,0,0-10.228,8.6L92.939,35.8,81.308,45.579A10.378,10.378,0,0,0,79,58.74l7.61,13.153L83.985,86.859a10.379,10.379,0,0,0,6.692,11.566l12.813,4.65.05,63.8a10.389,10.389,0,0,0,16.321,8.539l19.365-13.443,19.365,13.443a10.394,10.394,0,0,0,16.321-8.539v-63.72L188.1,98.337a10.379,10.379,0,0,0,6.67-11.578L192.119,71.8l7.586-13.167a10.378,10.378,0,0,0-2.332-13.157Zm-55.184,105.9a5.2,5.2,0,0,0-5.927,0l-22.328,15.5v0l-.037-48.3a10.37,10.37,0,0,0,11.236,2.753l14.274-5.21L153.69,121.3a10.382,10.382,0,0,0,10.827-2.35V166.87Zm40.925-84.764a10.408,10.408,0,0,0-1.228,7l2.653,14.962-14.276,5.211a10.411,10.411,0,0,0-4.536,3.263c-.056.068-.108.14-.161.21a10.3,10.3,0,0,0-.745,1.1l-7.582,13.168h0l-14.284-5.183a10.411,10.411,0,0,0-7.11.006l-14.274,5.211L113.957,98.4a10.371,10.371,0,0,0-1.459-1.938c-.05-.054-.1-.111-.15-.163a10.41,10.41,0,0,0-3.842-2.464L94.222,88.655l2.625-14.967a10.412,10.412,0,0,0-1.241-7L88,53.534l11.632-9.778a10.407,10.407,0,0,0,3.549-6.161L105.8,22.628,121,22.614a10.409,10.409,0,0,0,6.679-2.438L139.308,10.4l11.649,9.756a10.411,10.411,0,0,0,6.675,2.426h.009l15.2-.014,2.652,14.963a10.41,10.41,0,0,0,3.561,6.154L190.7,53.44Z" fill="#cce4f5"/>
    <path id="Path_658" data-name="Path 658" d="M199.294,93.29a29.969,29.969,0,1,0,29.969,29.969A30,30,0,0,0,199.294,93.29Zm0,49.543a19.575,19.575,0,1,1,19.575-19.575A19.6,19.6,0,0,1,199.294,142.833Z" transform="translate(-59.947 -60.968)" fill="#cce4f5"/>
  </g>
</svg>
