<svg xmlns="http://www.w3.org/2000/svg" width="69.2" height="66.601" viewBox="0 0 69.2 66.601"><defs><style>.a{fill:#fff;}</style></defs><g transform="translate(-1105.354 -462.738)"><path class="a" d="M1147.818,514.6l.12,2.046,1.491-1.379Z"/><path class="a" d="M1115.335,520.22c3.216-5.125,4.714-14.462,4.816-18.814C1118.266,505.265,1115.3,513.915,1115.335,520.22Z"/><path class="a" d="M1146.212,523.3a1.188,1.188,0,0,0-1.657.282c-2.305,3.249-4.226,2.077-6.451.718-1.38-.844-3.1-1.892-4.478-.582-1.413,1.34-1.866.925-3.37-.45-1.271-1.165-3.015-2.758-5.725-2.348-2.443.372-3.283,2.487-3.9,4.031-.813,2.044-1.065,2.254-2.284,1.851a4.155,4.155,0,0,1-2.622-3.219c5.562-5.937,7.225-20.533,6.685-24.3-.066-.454-.264-1.833-1.457-1.985-.847-.113-1.762.2-3.788,5a62.322,62.322,0,0,0-3.194,9.967,29.829,29.829,0,0,0-.851,10.5,5.273,5.273,0,0,1-1.075.641c-3.555,1.553-4.2.874-4.2.867-.593-.688.644-4.21,2.545-7.246a1.188,1.188,0,0,0-2.014-1.262c-1.086,1.734-4.466,7.582-2.33,10.06,1.569,1.821,4.72.735,6.954-.242a6.777,6.777,0,0,0,.74-.379,6.121,6.121,0,0,0,3.865,3.852,4.953,4.953,0,0,0,1.548.275c2.3,0,3.146-2.137,3.689-3.506.589-1.483,1-2.4,2.046-2.558,1.589-.242,2.595.682,3.763,1.751,1.423,1.3,3.568,3.269,6.568.46a7.168,7.168,0,0,1,1.646.847c2.109,1.289,6.039,3.689,9.627-1.371A1.189,1.189,0,0,0,1146.212,523.3Z"/><path class="a" d="M1173.809,466.949l-10.239-4.125a1.189,1.189,0,0,0-1.546.658l-15.8,39.225a1.189,1.189,0,0,0,.659,1.546l10.239,4.125a1.189,1.189,0,0,0,1.546-.658l15.8-39.225A1.189,1.189,0,0,0,1173.809,466.949Zm-16.9,38.78-8.035-3.236,14.913-37.021,8.035,3.237Z"/><path class="a" d="M1155.576,509.579l-4.227,3.909-3.685-1.526-.334-5.705a1.189,1.189,0,0,0-2.373.14l.755,12.9a1.19,1.19,0,0,0,.742,1.033,1.207,1.207,0,0,0,.444.085,1.192,1.192,0,0,0,.807-.315l9.485-8.772a1.188,1.188,0,1,0-1.614-1.745Z"/></g></svg>