<svg xmlns="http://www.w3.org/2000/svg" width="35.172" height="35.806" viewBox="0 0 35.172 35.806">
  <g id="user_2_" data-name="user (2)" transform="translate(0 0)">
    <g id="Group_10" data-name="Group 10" transform="translate(0 22.65)">
      <g id="Group_9" data-name="Group 9" transform="translate(0)">
        <path id="Path_17" data-name="Path 17" d="M28.355,309.134l-5.347-1.867a1.207,1.207,0,0,0-.4-.068H12.561a1.2,1.2,0,0,0-.4.068l-5.347,1.867A10.4,10.4,0,0,0,0,319.039a1.287,1.287,0,0,0,1.256,1.316h32.66a1.287,1.287,0,0,0,1.256-1.316A10.4,10.4,0,0,0,28.355,309.134ZM2.618,317.724a7.706,7.706,0,0,1,4.994-6.1l5.153-1.8h9.642l5.15,1.8a7.706,7.706,0,0,1,5,6.1Z" transform="translate(0 -307.199)" fill="#fff"/>
      </g>
    </g>
    <g id="Group_12" data-name="Group 12" transform="translate(9.692 0)">
      <g id="Group_11" data-name="Group 11">
        <path id="Path_18" data-name="Path 18" d="M144.427,0a7.894,7.894,0,0,0-7.894,7.894v5.262a7.894,7.894,0,1,0,15.787,0V7.894A7.894,7.894,0,0,0,144.427,0Zm5.262,13.156a5.262,5.262,0,0,1-10.525,0V7.894a5.262,5.262,0,0,1,10.525,0Z" transform="translate(-136.533)" fill="#fff"/>
      </g>
    </g>
  </g>
</svg>
