<svg xmlns="http://www.w3.org/2000/svg" width="33.03" height="33.03" viewBox="0 0 33.03 33.03"><defs><style>.a{fill:#fff;}</style></defs><g transform="translate(-176.524 -1661.047)"><rect class="a" width="1.16" height="2.023" transform="translate(192.459 1664.409)"/><rect class="a" width="2.023" height="1.16" transform="translate(198.102 1667.633) rotate(-60.005)"/><rect class="a" width="1.16" height="2.023" transform="matrix(0.866, -0.5, 0.5, 0.866, 185.96, 1666.461)"/><path class="a" d="M193.039,1661.047a16.515,16.515,0,1,0,16.515,16.515A16.534,16.534,0,0,0,193.039,1661.047Zm0,31.87a15.355,15.355,0,1,1,15.355-15.355A15.372,15.372,0,0,1,193.039,1692.917Z"/><rect class="a" width="2.023" height="1.16" transform="translate(202.388 1671.495) rotate(-29.998)"/><rect class="a" width="2.023" height="1.16" transform="matrix(0.866, -0.5, 0.5, 0.866, 181.359, 1683.636)"/><rect class="a" width="2.023" height="1.16" transform="translate(204.169 1676.982)"/><rect class="a" width="2.023" height="1.16" transform="translate(179.886 1676.982)"/><rect class="a" width="1.16" height="2.023" transform="matrix(0.5, -0.866, 0.866, 0.5, 202.388, 1683.629)"/><rect class="a" width="1.16" height="2.023" transform="matrix(0.5, -0.866, 0.866, 0.5, 181.359, 1671.488)"/><path class="a" d="M193.676,1673.993c-.02,0-.04-.005-.06-.008-.083-.014-.167-.026-.251-.034l-.074,0c-.085-.006-.17-.011-.255-.011h-.018c-.109,0-.219.005-.328.015-.046.005-.092.013-.138.019-.067.009-.135.017-.2.03s-.141.032-.211.05c-.042.011-.084.019-.125.031-.081.024-.161.053-.24.082-.03.011-.06.02-.09.032-.081.033-.161.071-.24.109-.027.014-.055.025-.081.039-.077.04-.152.085-.226.131-.027.017-.056.031-.083.049-.073.048-.143.1-.213.154-.026.02-.054.038-.08.059-.094.076-.185.157-.272.243a3.629,3.629,0,0,0,2.55,6.211h0a3.626,3.626,0,0,0,3.578-4.222l3.972-5.737-1.126-1.14Zm-.637,6.038a2.469,2.469,0,0,1-1.735-4.226c.059-.059.121-.113.184-.165.024-.019.05-.036.075-.054s.081-.062.123-.09.058-.034.087-.051.08-.049.121-.071.066-.031.1-.046.078-.038.118-.054.081-.029.122-.043.066-.025.1-.035c.056-.016.113-.029.17-.041l.057-.014a2.467,2.467,0,0,1,1.086.031c.028.007.057.013.085.021l.028.007a2.445,2.445,0,0,1,1.037.627l.825-.815a3.594,3.594,0,0,0-.631-.507l3.6-2.429-3.219,4.65.061.253a2.466,2.466,0,0,1-2.4,3.052Z"/><rect class="a" width="12.298" height="1.16" transform="translate(186.89 1687.982)"/></g></svg>