<svg xmlns="http://www.w3.org/2000/svg" width="19" height="20.4" viewBox="0 0 19 20.4"><defs><style>.a{fill:#887a5b;}</style></defs><g transform="translate(-3267.554 -4347.964)"><path class="a" d="M3271.291,4367.2a2.37,2.37,0,1,1,2.37-2.37A2.373,2.373,0,0,1,3271.291,4367.2Zm0-4.059a1.688,1.688,0,1,0,1.688,1.689A1.69,1.69,0,0,0,3271.291,4363.138Z"/><path class="a" d="M3271.291,4368.364a3.537,3.537,0,1,1,3.537-3.537A3.542,3.542,0,0,1,3271.291,4368.364Zm0-6.393a2.855,2.855,0,1,0,2.856,2.856A2.859,2.859,0,0,0,3271.291,4361.971Z"/><path class="a" d="M3274.487,4365.167h-1.167a.341.341,0,1,1,0-.681h1.167a.341.341,0,1,1,0,.681Z"/><path class="a" d="M3269.261,4365.167h-1.167a.341.341,0,1,1,0-.681h1.167a.341.341,0,1,1,0,.681Z"/><path class="a" d="M3274.619,4356.637H3267.9a.341.341,0,0,1-.341-.341v-5.074a.341.341,0,0,1,.341-.341h6.724a.342.342,0,0,1,.341.341v5.074A.341.341,0,0,1,3274.619,4356.637Zm-6.383-.682h6.042v-4.392h-6.042Z"/><path class="a" d="M3274.619,4354.974H3267.9a.341.341,0,0,1-.341-.341v-1.748a.341.341,0,0,1,.341-.341h6.724a.341.341,0,0,1,.341.341v1.748A.342.342,0,0,1,3274.619,4354.974Zm-6.383-.682h6.042v-1.066h-6.042Z"/><path class="a" d="M3273.79,4351.563h-5.066a.341.341,0,0,1-.341-.341v-1.158a.34.34,0,0,1,.341-.341h5.066a.341.341,0,0,1,.341.341v1.158A.341.341,0,0,1,3273.79,4351.563Zm-4.726-.682h4.385v-.477h-4.385Z"/><path class="a" d="M3274.619,4350.4H3267.9a.34.34,0,0,1-.341-.34v-1.07a1.031,1.031,0,0,1,1.03-1.03h5.346a1.031,1.031,0,0,1,1.03,1.03v1.07A.341.341,0,0,1,3274.619,4350.4Zm-6.383-.681h6.042v-.729a.348.348,0,0,0-.348-.348h-5.346a.348.348,0,0,0-.348.348Z"/><path class="a" d="M3270,4362.242a.343.343,0,0,1-.341-.341v-5.6a.341.341,0,0,1,.341-.341h2.5a.341.341,0,0,1,.341.341v5.575a.34.34,0,0,1-.47.315,2.866,2.866,0,0,0-2.237.027A.34.34,0,0,1,3270,4362.242Zm.341-5.6v4.781a3.552,3.552,0,0,1,1.822-.019v-4.762Z"/><path class="a" d="M3280.106,4362.692a.366.366,0,0,1-.047,0,.344.344,0,0,1-.225-.133l-4.047-5.37a.342.342,0,0,1,.067-.478l4.053-3.053a.341.341,0,0,1,.477.067l4.047,5.37a.342.342,0,0,1-.067.478l-4.053,3.053A.338.338,0,0,1,3280.106,4362.692Zm-3.569-5.644,3.636,4.826,3.508-2.644-3.636-4.826Z"/><path class="a" d="M3281.434,4361.691l-.047,0a.346.346,0,0,1-.225-.133l-4.046-5.37a.337.337,0,0,1-.066-.252.342.342,0,0,1,.132-.225l1.4-1.052a.343.343,0,0,1,.478.067l4.047,5.37a.34.34,0,0,1-.068.477l-1.4,1.052A.342.342,0,0,1,3281.434,4361.691Zm-3.569-5.644,3.637,4.826.851-.642-3.637-4.826Z"/><path class="a" d="M3283.66,4358.976a.344.344,0,0,1-.273-.135l-3.049-4.047a.342.342,0,0,1,.067-.477l.926-.7a.339.339,0,0,1,.477.067l3.049,4.046a.341.341,0,0,1,.066.253.348.348,0,0,1-.133.225l-.925.7A.344.344,0,0,1,3283.66,4358.976Zm-2.572-4.32,2.639,3.5.381-.287-2.639-3.5Z"/><path class="a" d="M3285.084,4358.941a.366.366,0,0,1-.047,0,.344.344,0,0,1-.225-.133l-4.047-5.37a.341.341,0,0,1,.067-.477l.854-.644a1.031,1.031,0,0,1,1.443.2l3.217,4.269a1.029,1.029,0,0,1-.2,1.443l-.854.643A.338.338,0,0,1,3285.084,4358.941Zm-3.569-5.644,3.636,4.826.582-.439a.35.35,0,0,0,.069-.488l-3.218-4.269a.348.348,0,0,0-.487-.069Z"/><path class="a" d="M3274.384,4364.362a.341.341,0,0,1-.206-.614l4.181-3.15-1.1-1.454-3.107,2.341a.341.341,0,1,1-.41-.544l3.379-2.547a.342.342,0,0,1,.478.067l1.506,2a.34.34,0,0,1-.067.478l-4.452,3.355A.345.345,0,0,1,3274.384,4364.362Z"/></g></svg>