<svg xmlns="http://www.w3.org/2000/svg" width="18.275" height="18.415" viewBox="0 0 18.275 18.415"><defs><style>.a{fill:none;stroke:#887a5b;stroke-miterlimit:10;}</style></defs><g transform="translate(-2798.378 -4271.875)"><path class="a" d="M2810.241,4279.334v-1.515l-1.893-1.893-.757.757-2.272-2.272a4.075,4.075,0,0,0-2.082-1.073l-3.219-.82v1.515l2.65,1.136a5.074,5.074,0,0,1,1.515,1.136l1.893,1.893-1.515,1.515.758.757-.649,2.1a1.109,1.109,0,0,0,.27,1.307l4.923,4.922,4.922-4.922Z"/><path class="a" d="M2811,4287.664l1.515,1.515,3.029-3.029-1.515-1.515"/><line class="a" x2="1.136" y2="1.136" transform="translate(2815.164 4286.528)"/><line class="a" x1="1.136" y1="1.136" transform="translate(2812.892 4288.8)"/><path class="a" d="M2800.4,4275.926c-.218.8-1.518,1.884-1.518,3.029a1.516,1.516,0,0,0,3.033,0C2801.911,4277.81,2800.615,4276.724,2800.4,4275.926Z"/><path class="a" d="M2801.532,4281.985c-.164.6-1.136,1.413-1.136,2.271a1.137,1.137,0,0,0,2.275,0C2802.671,4283.4,2801.7,4282.583,2801.532,4281.985Z"/><path class="a" d="M2807.212,4279.712l4.544,4.544-2.272,2.272-3.408-3.408,1.514-1.515.757.757v1.515l1.136,1.136"/></g></svg>