<svg xmlns="http://www.w3.org/2000/svg" width="20.625" height="13.569" viewBox="0 0 20.625 13.569"><defs><style>.a{fill:#887a5b;}</style></defs><path class="a" d="M2625.883,4278.633a.614.614,0,0,0-.574-.4h-1.75a.407.407,0,0,0-.407.407v1.7h-.667v-1.7a.407.407,0,0,0-.407-.407h-1.368l-1.35-1.35a.682.682,0,0,0-.48-.2h-2.32V4276h1.207a.621.621,0,0,0,.625-.589.611.611,0,0,0-.61-.633h-5.345a.619.619,0,0,0-.625.589.61.61,0,0,0,.61.633h1.221v.678h-1.98a.679.679,0,0,0-.48.2l-1.251,1.251a.338.338,0,0,1-.24.1h-1.341a.407.407,0,0,0-.407.407v2.273h-.678v-2.055a.621.621,0,0,0-.589-.625.612.612,0,0,0-.633.611v5.82a.62.62,0,0,0,.589.624.611.611,0,0,0,.633-.61v-2.069h.678v3.223a.407.407,0,0,0,.407.407h2.918a.339.339,0,0,1,.2.067l2.556,1.912a.672.672,0,0,0,.406.135h7.644a.407.407,0,0,0,.407-.407v-2.861h.667v1.7a.408.408,0,0,0,.407.408h1.75a.614.614,0,0,0,.574-.4A10.966,10.966,0,0,0,2625.883,4278.633Zm-.861,7.537h-.853v-1.764a.339.339,0,0,0-.339-.339h-2.023a.34.34,0,0,0-.339.339v2.928h-6.921l-2.467-1.845a1.371,1.371,0,0,0-.811-.269h-2.307v-5.97h.73a1.345,1.345,0,0,0,.959-.4l1.152-1.151h6.936l1.55,1.549h1.179v1.764a.339.339,0,0,0,.339.339h2.023a.339.339,0,0,0,.339-.339v-1.764h.853a9.832,9.832,0,0,1,0,6.92Z" transform="translate(-2606.044 -4274.783)"/></svg>