<svg xmlns="http://www.w3.org/2000/svg" width="20.625" height="13.568" viewBox="0 0 20.625 13.568"><defs><style>.a{fill:#887a5b;}</style></defs><path class="a" d="M3034.89,4352.295a.613.613,0,0,0-.574-.4h-1.75a.407.407,0,0,0-.407.407v1.7h-.667v-1.7a.407.407,0,0,0-.407-.407h-1.368l-1.35-1.35a.68.68,0,0,0-.48-.2h-2.32v-.678h1.207a.621.621,0,0,0,.625-.589.611.611,0,0,0-.61-.632h-5.345a.619.619,0,0,0-.625.588.61.61,0,0,0,.61.633h1.221v.678h-1.98a.68.68,0,0,0-.48.2l-1.251,1.251a.338.338,0,0,1-.24.1h-1.341a.407.407,0,0,0-.407.407v2.273h-.678v-2.054a.62.62,0,0,0-.589-.625.61.61,0,0,0-.633.61v5.82a.621.621,0,0,0,.589.625.612.612,0,0,0,.633-.611v-2.069h.678v3.223a.407.407,0,0,0,.407.407h2.918a.345.345,0,0,1,.2.067l2.556,1.912a.675.675,0,0,0,.406.135h7.644a.407.407,0,0,0,.407-.407v-2.86h.667v1.7a.407.407,0,0,0,.407.407h1.75a.613.613,0,0,0,.574-.4A10.96,10.96,0,0,0,3034.89,4352.295Zm-.861,7.536h-.853v-1.764a.339.339,0,0,0-.339-.339h-2.023a.339.339,0,0,0-.339.339V4361h-6.921l-2.467-1.845a1.365,1.365,0,0,0-.811-.27h-2.307v-5.97h.73a1.348,1.348,0,0,0,.959-.4l1.152-1.152h6.936l1.55,1.549h1.179v1.764a.339.339,0,0,0,.339.339h2.023a.339.339,0,0,0,.339-.339v-1.764h.853a9.832,9.832,0,0,1,0,6.92Z" transform="translate(-3015.051 -4348.445)"/></svg>