<svg xmlns="http://www.w3.org/2000/svg" width="15.668" height="15.668" viewBox="0 0 15.668 15.668"><defs><style>.a{fill:#887a5b;}</style></defs><g transform="translate(-2799.755 -4310.797)"><path class="a" d="M2813.129,4313.091a7.836,7.836,0,1,0,2.294,5.54,7.786,7.786,0,0,0-2.294-5.54m-5.54,12.456a6.916,6.916,0,1,1,6.916-6.916,6.923,6.923,0,0,1-6.916,6.916"/><path class="a" d="M2807.589,4313.091a5.54,5.54,0,1,0,5.54,5.539,5.546,5.546,0,0,0-5.54-5.539m3.273,6.9-1.5-.868.009-.032h1.735a1.822,1.822,0,0,0,1.106-.372,4.617,4.617,0,0,1-.125.988.921.921,0,0,1-1.222.284m-7.7-.043a.92.92,0,0,1,.916-.857h1.735l.009.032-1.5.868a1.815,1.815,0,0,0-.771.874,4.585,4.585,0,0,1-.386-.917m1.157-2.676,1.5.868-.009.033h-1.735a1.828,1.828,0,0,0-1.107.371,4.68,4.68,0,0,1,.126-.988.92.92,0,0,1,1.222-.284m7.7.044a.92.92,0,0,1-.916.857h-1.735l-.009-.033,1.5-.868a1.812,1.812,0,0,0,.771-.874,4.6,4.6,0,0,1,.386.918m-4.43,2.234a.918.918,0,1,1,.919-.919.92.92,0,0,1-.919.919m3.24-3.631a.916.916,0,0,1-.426.559l-1.505.868-.023-.023.868-1.5a1.82,1.82,0,0,0,.232-1.143,4.745,4.745,0,0,1,.8.608.912.912,0,0,1,.058.636m-1.88-.56-.868,1.5-.033-.008v-1.736a1.826,1.826,0,0,0-.371-1.106,4.572,4.572,0,0,1,.988.125.919.919,0,0,1,.284,1.222m-1.819-.241v1.736l-.032.008-.867-1.5a1.822,1.822,0,0,0-.876-.771,4.592,4.592,0,0,1,.918-.386.919.919,0,0,1,.857.916m-2.78,6.226a.908.908,0,0,1,.426-.558l1.505-.869.023.023-.869,1.5a1.817,1.817,0,0,0-.231,1.143,4.7,4.7,0,0,1-.8-.608.911.911,0,0,1-.058-.636m1.881.56.867-1.5.032.009v1.735a1.826,1.826,0,0,0,.372,1.106,4.574,4.574,0,0,1-.988-.125.92.92,0,0,1-.283-1.222m1.817.241v-1.735l.033-.009.868,1.5a1.81,1.81,0,0,0,.874.771,4.589,4.589,0,0,1-.917.386.92.92,0,0,1-.858-.916m-3.807-6.695a.924.924,0,0,1,1.194.368l.869,1.5-.023.023-1.505-.868a1.816,1.816,0,0,0-1.143-.232,4.722,4.722,0,0,1,.608-.8m6.7,6.363a.925.925,0,0,1-1.2-.368l-.868-1.5.023-.023,1.505.869a1.814,1.814,0,0,0,.913.246,2.031,2.031,0,0,0,.23-.015,4.7,4.7,0,0,1-.608.8"/></g></svg>