<svg xmlns="http://www.w3.org/2000/svg" width="20.041" height="13.178" viewBox="0 0 20.041 13.178"><defs><style>.a{fill:#887a5b;}</style></defs><g transform="translate(-3013.013 -4310.627)"><path class="a" d="M3033.051,4322.834c0-.043,0-.087-.005-.131s0-.088,0-.132v-.1l-.005-.056c0-.073-.011-.146-.017-.221l0-.056-.007-.071-.015-.144c0-.049-.008-.1-.013-.145,0-.024,0-.047-.007-.071s-.006-.044-.01-.066c-.023-.174-.045-.344-.075-.508-.015-.083-.028-.164-.044-.242s-.031-.156-.047-.23c-.03-.15-.067-.29-.1-.42l-.024-.094c-.008-.031-.016-.061-.025-.091-.016-.058-.032-.113-.046-.165s-.028-.1-.043-.145-.027-.086-.039-.123l-.043-.135a.1.1,0,0,0-.128-.069l-3.388.966a.1.1,0,0,0-.074.119c0,.019.007.042.012.068s.011.053.017.084.009.064.015.1.012.074.018.114c0,.02.006.04.009.061s0,.043.007.065c.01.088.024.183.03.285,0,.05.008.1.013.155s0,.108.007.163c.008.109.006.224.009.339v.081l0,.077c0,.025,0,.051,0,.076v.038l0,.055c0,.074,0,.148-.009.221l0,.055v-.01l0,.021c0,.029,0,.058-.008.086s0,.057-.008.086l-.009.084c-.008.056-.013.111-.021.166s-.016.107-.024.159-.016.1-.025.151-.018.1-.027.142-.017.09-.028.133-.018.082-.028.121c0,.019-.009.037-.013.055s-.008.03-.011.045l-.008.025h4.144a.1.1,0,0,0,.1-.1v0c0-.077.007-.156.01-.237s0-.164,0-.248,0-.169,0-.256c0-.043,0-.086,0-.13"/><path class="a" d="M3031.973,4318.484a.1.1,0,0,0,.056-.141c-.011-.023-.025-.052-.039-.083s-.031-.063-.048-.1-.046-.094-.071-.146l-.082-.165-.045-.083c-.015-.028-.031-.056-.046-.085-.031-.058-.064-.119-.1-.181s-.073-.125-.11-.19l-.059-.1-.062-.1c-.042-.068-.085-.135-.129-.2-.092-.136-.183-.278-.287-.418-.025-.034-.049-.069-.075-.1l-.039-.052-.04-.053-.159-.206c-.055-.068-.11-.135-.166-.2-.028-.032-.055-.066-.084-.1s-.056-.065-.085-.1l-.083-.1-.086-.093c-.057-.062-.115-.122-.17-.181s-.113-.115-.168-.171-.11-.111-.166-.16l-.158-.149c-.052-.048-.1-.092-.151-.135s-.1-.083-.141-.123-.088-.072-.129-.107l-.116-.093c-.035-.029-.069-.054-.1-.077l-.109-.085a.1.1,0,0,0-.144.017l-1.819,2.2a.1.1,0,0,0,.008.14l.052.051.063.063c.022.023.046.049.072.075l.082.087.087.1c.03.036.064.07.1.108l.1.117c.035.04.067.084.1.127s.069.087.1.132.069.094.1.141c.017.024.035.048.051.073l.05.074.051.074c.017.024.032.05.049.076.032.052.065.1.1.153s.061.1.091.157l.025.039.02.039.043.079c.059.1.109.209.161.309.023.051.047.1.07.151.012.025.024.049.034.073s.021.049.031.072q.032.072.059.138c.019.046.035.089.052.132l.024.061c.007.019.016.04.022.057.011.033.022.066.033.1l.029.085c.012.036.024.07.033.1l.031.089a.1.1,0,0,0,.136.064Z"/><path class="a" d="M3022.713,4314.554l.092.012.106.018.121.022c.037.006.075.014.116.023l1.148-2.348-.17-.026-.112-.017-.11-.013-.21-.025-.2-.017c-.064,0-.124-.011-.183-.014l-.163-.009-.143-.005-.123,0-.132,0a.1.1,0,0,0-.1.1l-.1,2.186a.1.1,0,0,0,.09.108l.079.011"/><path class="a" d="M3025.8,4315.756c.03.023.06.044.087.064l.078.055c.01.007.027.021.041.03s.027.022.041.031l.074.056a.1.1,0,0,0,.149-.027l1.5-2.282a.1.1,0,0,0-.035-.147l-.081-.046-.045-.026c-.016-.009-.033-.02-.053-.03l-.137-.076-.157-.086-.166-.083c-.058-.028-.117-.06-.181-.088l-.2-.09c-.067-.032-.137-.06-.209-.09s-.144-.062-.218-.09c-.021-.006-.039-.014-.059-.021l-.646,2.805c.035.022.069.047.1.068l.11.073"/><path class="a" d="M3020.7,4314.542l.086-.012.084-.008.16-.017.151-.01.071,0c.023,0,.046,0,.066,0l.115,0c.036,0,.07,0,.1,0h.2a.1.1,0,0,0,.1-.111l-.136-2.058a.1.1,0,0,0-.116-.1c-.026,0-.058.007-.093.011l-.107.014-.149.022c-.053.008-.11.016-.169.026-.031,0-.059.01-.089.016s-.059.011-.09.017l-.191.037-.2.046c-.035.008-.071.017-.107.024s-.07.02-.108.028l-.221.059-.227.069c-.037.012-.077.023-.116.036l-.115.038-.116.04c-.039.014-.077.027-.116.043l-.231.088c-.076.03-.152.062-.228.094l-.113.049-.111.051-.11.05-.108.052-.208.106c-.07.035-.135.072-.2.107s-.129.07-.19.106l-.175.1c-.058.033-.111.069-.162.1l-.148.1-.131.09-.114.078c-.035.025-.065.049-.094.069l-.1.074a.1.1,0,0,0-.023.142l.855,1.257a.1.1,0,0,0,.136.032l.076-.044c.026-.013.053-.031.084-.046s.066-.034.1-.052.073-.039.114-.06l.129-.062c.044-.022.09-.046.14-.067l.152-.067c.051-.023.106-.043.16-.066s.112-.046.17-.066l.177-.064c.029-.011.059-.02.091-.03l.091-.03.093-.03.094-.027c.062-.017.125-.036.188-.052l.19-.048.094-.021.095-.019.093-.021.094-.016.182-.032.177-.024"/><path class="a" d="M3014.874,4316.166c-.022.032-.046.063-.068.1s-.045.064-.069.1-.043.066-.064.1c-.044.066-.088.132-.131.2l-.124.2-.031.051-.029.05c-.02.034-.038.069-.059.1-.078.133-.147.271-.215.4-.034.067-.066.133-.1.2l-.045.095c-.015.031-.028.063-.043.093-.027.062-.054.122-.08.18s-.048.116-.071.17-.044.106-.063.156-.036.1-.053.142-.032.087-.047.126-.025.074-.036.107l-.037.108a.105.105,0,0,0,.061.131l.8.3a.1.1,0,0,0,.131-.051c.011-.025.026-.053.041-.087s.028-.058.044-.091l.055-.1c.019-.038.04-.078.062-.12s.047-.085.072-.131.052-.093.079-.141.059-.1.09-.149l.047-.077.051-.078c.033-.053.068-.106.1-.16.075-.106.148-.218.232-.325.019-.027.039-.055.06-.082l.03-.041.032-.04c.042-.054.085-.108.128-.161s.088-.1.133-.157c.021-.026.043-.053.065-.078l.069-.075.068-.075c.021-.024.044-.049.066-.072l.137-.14c.043-.046.09-.088.134-.132s.086-.085.13-.124l.125-.114c.041-.037.082-.07.12-.1l.111-.094.1-.078c.03-.025.06-.047.086-.068s.028-.022.043-.033l.04-.031.075-.056a.1.1,0,0,0,.016-.151l-.906-1.061a.1.1,0,0,0-.151-.007c-.02.018-.042.04-.066.065s-.025.023-.037.035l-.043.041c-.032.032-.064.066-.1.1s-.074.076-.113.116l-.118.127c-.04.045-.083.089-.126.138l-.132.152c-.045.052-.088.107-.134.163s-.092.113-.137.172l-.138.182c-.023.031-.046.061-.067.093"/><path class="a" d="M3013.228,4319.886c-.006.026-.012.057-.019.091s-.013.068-.021.1-.015.086-.023.133-.017.1-.027.152a.688.688,0,0,0-.012.081l-.012.084c-.015.115-.035.239-.046.371-.007.066-.014.134-.021.2s-.008.141-.013.212c-.012.143-.014.293-.019.443l0,.057v.057c0,.038,0,.077,0,.114s0,.077,0,.114v.058l0,.057c0,.077.007.153.01.229l0,.058v.018l0,.041c0,.036.005.072.007.109s.006.072.008.108.007.075.011.112l.011.111c0,.018,0,.036,0,.055l.008.053c.008.07.016.14.026.208s.019.134.03.2.021.128.032.188l0,.014a.1.1,0,0,0,.1.085h.281a.1.1,0,0,0,.1-.11l0-.048c0-.058-.007-.118-.008-.18l-.006-.191c0-.064,0-.13,0-.2,0-.016,0-.034,0-.05s0-.034,0-.05l0-.1c0-.034,0-.069,0-.1s0-.072,0-.108l0-.11v-.042h0v-.007l0-.054.018-.213,0-.053.006-.054.012-.106c0-.035.009-.07.012-.1l.007-.054.008-.052c.021-.138.04-.274.066-.4.012-.066.023-.129.036-.192s.027-.123.041-.183c.024-.119.057-.23.082-.333.007-.025.014-.05.02-.074l.02-.07c.014-.045.026-.088.039-.128s.021-.077.033-.113.025-.071.034-.1.021-.063.03-.088a.1.1,0,0,0-.073-.133l-.7-.187a.1.1,0,0,0-.129.079"/><path class="a" d="M3021.184,4323.53a1.618,1.618,0,0,0,2.163-.743,1.632,1.632,0,0,0,.124-.348l1.637-7.1.623-2.706.386-1.675a.266.266,0,0,0-.266-.329.256.256,0,0,0-.234.152l-.786,1.607-1.159,2.37-3.231,6.61a1.618,1.618,0,0,0,.743,2.164m.769-2.288a.793.793,0,1,1-.792.793.793.793,0,0,1,.792-.793"/></g></svg>