<svg xmlns="http://www.w3.org/2000/svg" width="18.109" height="15.867" viewBox="0 0 18.109 15.867"><defs><style>.a{fill:#887a5b;}</style></defs><g transform="translate(-2606.594 -4310.702)"><path class="a" d="M2624.5,4317.273a.946.946,0,0,0-.918-.945v-3.538a.945.945,0,0,0-.027-1.89h-10.377a.945.945,0,0,0-.026,1.89v1.863h-5.6a.767.767,0,0,0-.077,1.529v2.545a.767.767,0,0,0,0,1.526v4.589a.767.767,0,0,0,.077,1.529h16a.946.946,0,0,0,.027-1.891v-6.262A.945.945,0,0,0,2624.5,4317.273Zm-17.254,8.331a.307.307,0,0,1,.308-.307h.152c.006,0,.012,0,.018,0h3.126a.229.229,0,0,0,0-.458h-2.915v-4.58h2.915a.229.229,0,0,0,0-.458h-3.3a.308.308,0,1,1,0-.616h.152a.23.23,0,0,0,.229-.229v-2.768h2.915a.229.229,0,0,0,0-.458h-3.3a.308.308,0,0,1,0-.616h5.6v1.217a.945.945,0,0,0,0,1.89v6.262a.947.947,0,0,0-.919.945.93.93,0,0,0,.139.487h-4.818A.308.308,0,0,1,2607.251,4325.6Zm16.106-.666h.2a.487.487,0,1,1,0,.974h-10.377a.487.487,0,1,1,0-.974h.2a.233.233,0,0,0,.071-.014h4.914a.229.229,0,1,0,0-.459h-4.756v-6.252h1.987a.229.229,0,0,0,0-.458h-2.216a.223.223,0,0,0-.027,0h-.176a.487.487,0,1,1,0-.974h.2a.23.23,0,0,0,.229-.229v-3.767h4.756a.229.229,0,1,0,0-.458h-5.188a.487.487,0,1,1,0-.974h10.377a.487.487,0,1,1,0,.974h-.2a.23.23,0,0,0-.229.229v4a.23.23,0,0,0,.229.229h.2a.487.487,0,1,1,0,.974h-.2a.23.23,0,0,0-.229.23v6.719A.23.23,0,0,0,2623.357,4324.938Z"/><path class="a" d="M2623.56,4326.569h-16a.964.964,0,0,1-.275-1.889v-4.265a.965.965,0,0,1,0-1.85v-2.221a.965.965,0,0,1,.275-1.889h5.4v-1.489a1.143,1.143,0,0,1,.224-2.264h10.377a1.143,1.143,0,0,1,.225,2.264v3.186a1.144,1.144,0,0,1,0,2.242v5.91a1.144,1.144,0,0,1-.225,2.265Zm-16-11.718a.568.568,0,0,0-.057,1.134l.178.018v2.9l-.178.018a.575.575,0,0,0-.512.566.567.567,0,0,0,.512.566l.178.018v4.947l-.178.018a.568.568,0,0,0,.057,1.134h16a.747.747,0,0,0,.021-1.495l-.192-.006v-6.646l.192-.006a.747.747,0,0,0,0-1.494l-.192,0V4312.6l.192-.005a.747.747,0,0,0-.021-1.494h-10.377a.747.747,0,0,0-.021,1.494l.193.005v2.254Zm16,11.259h-10.377a.685.685,0,1,1,0-1.37l5.188-.014v-.063h-4.954v-6.648h2.185v-.062l-2.419,0a.685.685,0,0,1,0-1.37h.2l.031-4h4.954v-.062h-5.188a.685.685,0,1,1,0-1.37h10.377a.685.685,0,1,1,0,1.37h-.2l-.032,4.027.234.031a.685.685,0,0,1,0,1.37h-.2l-.032,6.751.032.031h.2a.685.685,0,1,1,0,1.37Zm-10.377-.974a.289.289,0,1,0,0,.578h10.377a.289.289,0,1,0,0-.578h-.2a.429.429,0,0,1-.428-.427v-6.719a.429.429,0,0,1,.428-.428h.2a.289.289,0,0,0,0-.578h-.2a.428.428,0,0,1-.428-.427v-4a.429.429,0,0,1,.428-.427h.2a.289.289,0,1,0,0-.578h-10.377a.289.289,0,1,0,0,.578h5.188a.427.427,0,1,1,0,.854h-4.558v3.569a.428.428,0,0,1-.427.427h-.2a.289.289,0,0,0,0,.578l2.419,0a.427.427,0,1,1,0,.854h-1.789v5.856h4.558a.427.427,0,1,1,0,.855h-4.885a.4.4,0,0,1-.1.014Zm-.454.974h-5.17a.506.506,0,1,1,0-1.012l3.3,0v-.062h-3.113v-4.976h3.113v-.063l-3.3,0a.506.506,0,1,1,0-1.012h.152l.031-3h3.113v-.062h-3.3a.506.506,0,1,1,0-1.012h5.8v1.608l-.193,0a.747.747,0,0,0,0,1.494l.193.006v6.646l-.192.006a.753.753,0,0,0-.727.748.738.738,0,0,0,.11.384Zm-5-.619-.17,0a.11.11,0,1,0,0,.22h4.519a1.124,1.124,0,0,1-.038-.288,1.136,1.136,0,0,1,.919-1.122v-5.91a1.143,1.143,0,0,1,0-2.242v-.843h-5.4a.11.11,0,1,0,0,.22h3.3a.427.427,0,1,1,0,.854h-2.717v2.57a.428.428,0,0,1-.427.427h-.152a.11.11,0,1,0,0,.22l3.3,0a.427.427,0,0,1,0,.855h-2.717v4.184h2.717a.427.427,0,1,1,0,.854Z"/><path class="a" d="M2618.572,4316.006a.228.228,0,0,0-.164.069c-.085.088-2.084,2.162-2.122,3.757a2.264,2.264,0,0,0,.591,1.683,2.5,2.5,0,0,0,3.391,0,2.267,2.267,0,0,0,.591-1.683c-.039-1.6-2.037-3.669-2.122-3.757A.228.228,0,0,0,2618.572,4316.006Zm1.368,5.189a2.049,2.049,0,0,1-2.735,0,1.8,1.8,0,0,1-.461-1.352c.029-1.17,1.356-2.746,1.828-3.271.473.525,1.8,2.1,1.828,3.271A1.793,1.793,0,0,1,2619.94,4321.195Z"/><path class="a" d="M2618.573,4322.375a2.566,2.566,0,0,1-1.838-.721,2.457,2.457,0,0,1-.647-1.827c.04-1.68,2.091-3.8,2.179-3.89a.442.442,0,0,1,.612,0c.086.088,2.137,2.2,2.178,3.889a2.456,2.456,0,0,1-.647,1.827A2.567,2.567,0,0,1,2618.573,4322.375Zm0-6.171a.028.028,0,0,0-.022.009c-.021.021-2.03,2.1-2.067,3.623a2.074,2.074,0,0,0,.535,1.541,2.308,2.308,0,0,0,3.107,0,2.073,2.073,0,0,0,.535-1.541c-.038-1.53-2.046-3.6-2.066-3.622Zm0,5.712a2.1,2.1,0,0,1-1.509-.583,1.982,1.982,0,0,1-.517-1.5c.029-1.216,1.323-2.782,1.878-3.4l.148-.164.147.164c.555.616,1.849,2.182,1.878,3.4a1.979,1.979,0,0,1-.517,1.5h0A2.1,2.1,0,0,1,2618.573,4321.916Zm0-5.044c-.516.595-1.606,1.972-1.63,2.975a1.6,1.6,0,0,0,.4,1.209,1.851,1.851,0,0,0,2.451,0,1.6,1.6,0,0,0,.4-1.209C2620.178,4318.844,2619.088,4317.467,2618.573,4316.872Z"/><path class="a" d="M2617.97,4320.384a.788.788,0,0,1-.2-.593.23.23,0,0,0-.224-.235.236.236,0,0,0-.235.224,1.241,1.241,0,0,0,.329.924,1.3,1.3,0,0,0,.929.366.229.229,0,1,0,0-.459A.842.842,0,0,1,2617.97,4320.384Z"/><path class="a" d="M2618.573,4321.268a1.491,1.491,0,0,1-1.072-.426,1.432,1.432,0,0,1-.385-1.067.438.438,0,0,1,.42-.417.432.432,0,0,1,.435.438.6.6,0,0,0,.141.449h0a.641.641,0,0,0,.461.168.427.427,0,0,1,0,.855Zm-1.037-1.5a.021.021,0,0,0-.024.019,1.056,1.056,0,0,0,.272.782,1.1,1.1,0,0,0,.789.306v-.063a1.034,1.034,0,0,1-.744-.287.971.971,0,0,1-.254-.736A.052.052,0,0,0,2617.536,4319.765Z"/></g></svg>