<svg xmlns="http://www.w3.org/2000/svg" width="20.353" height="18.829" viewBox="0 0 20.353 18.829"><defs><style>.a{fill:#887a5b;}</style></defs><g transform="translate(-1118.634 -874.129)"><g transform="translate(-3815 -3473)"><path class="a" d="M4952.792,4348.324a4.08,4.08,0,1,0,1.195,2.885,4.054,4.054,0,0,0-1.195-2.885m-2.885,6.487a3.6,3.6,0,1,1,3.6-3.6,3.606,3.606,0,0,1-3.6,3.6"/><path class="a" d="M4949.907,4348.324a2.884,2.884,0,1,0,2.885,2.885,2.888,2.888,0,0,0-2.885-2.885m1.7,3.593-.783-.452,0-.017h.9a.946.946,0,0,0,.575-.194,2.358,2.358,0,0,1-.065.515.479.479,0,0,1-.636.148m-4.011-.023a.478.478,0,0,1,.477-.446h.9l0,.017-.783.452a.945.945,0,0,0-.4.455,2.334,2.334,0,0,1-.2-.478m.6-1.393.783.452,0,.017h-.9a.957.957,0,0,0-.577.193,2.418,2.418,0,0,1,.066-.514.479.479,0,0,1,.636-.148m4.011.022a.478.478,0,0,1-.476.447h-.9l0-.017.783-.452a.95.95,0,0,0,.4-.456,2.354,2.354,0,0,1,.2.478m-2.307,1.164a.478.478,0,1,1,.479-.478.478.478,0,0,1-.479.478m1.688-1.891a.477.477,0,0,1-.222.291l-.784.452-.012-.012.452-.784a.943.943,0,0,0,.121-.6,2.468,2.468,0,0,1,.414.317.475.475,0,0,1,.031.331m-.979-.291-.452.782-.017,0v-.9a.952.952,0,0,0-.194-.576,2.418,2.418,0,0,1,.515.065.48.48,0,0,1,.148.637m-.947-.126v.9l-.017,0-.452-.782a.946.946,0,0,0-.456-.4,2.363,2.363,0,0,1,.478-.2.479.479,0,0,1,.447.477m-1.448,3.242a.473.473,0,0,1,.222-.29l.783-.453.012.012-.452.784a.95.95,0,0,0-.121.6,2.387,2.387,0,0,1-.414-.316.469.469,0,0,1-.03-.332m.979.292.452-.783.017,0v.9a.956.956,0,0,0,.193.576,2.433,2.433,0,0,1-.514-.066.478.478,0,0,1-.148-.636m.947.126v-.9l.017,0,.452.783a.946.946,0,0,0,.455.4,2.407,2.407,0,0,1-.478.2.479.479,0,0,1-.446-.477m-1.983-3.487a.483.483,0,0,1,.622.191l.452.784-.012.012-.784-.452a.948.948,0,0,0-.595-.12,2.43,2.43,0,0,1,.317-.415m3.487,3.313a.48.48,0,0,1-.622-.191l-.452-.784.012-.012.784.453a.954.954,0,0,0,.475.128.978.978,0,0,0,.12-.008,2.462,2.462,0,0,1-.317.414"/></g><g transform="translate(-3815 -3473)"><path class="a" d="M4940.6,4351.372a4.08,4.08,0,1,0,1.195,2.885,4.056,4.056,0,0,0-1.195-2.885m-2.885,6.487a3.6,3.6,0,1,1,3.6-3.6,3.606,3.606,0,0,1-3.6,3.6"/><path class="a" d="M4937.714,4351.372a2.885,2.885,0,1,0,2.885,2.885,2.888,2.888,0,0,0-2.885-2.885m1.7,3.593-.783-.452.005-.017h.9a.956.956,0,0,0,.576-.193,2.482,2.482,0,0,1-.065.514.479.479,0,0,1-.637.148m-4.011-.022a.479.479,0,0,1,.477-.447h.9l0,.017-.783.452a.942.942,0,0,0-.4.456,2.438,2.438,0,0,1-.2-.478m.6-1.394.783.452,0,.017h-.9a.945.945,0,0,0-.576.194,2.423,2.423,0,0,1,.065-.515.48.48,0,0,1,.637-.148m4.011.023a.479.479,0,0,1-.477.446h-.9l-.005-.017.783-.452a.95.95,0,0,0,.4-.455,2.387,2.387,0,0,1,.2.478m-2.307,1.163a.478.478,0,1,1,.478-.478.479.479,0,0,1-.478.478m1.687-1.89a.473.473,0,0,1-.222.29l-.783.452-.012-.011.452-.784a.95.95,0,0,0,.12-.6,2.46,2.46,0,0,1,.415.316.48.48,0,0,1,.03.332m-.979-.292-.452.783-.017,0v-.9a.954.954,0,0,0-.193-.576,2.4,2.4,0,0,1,.514.066.479.479,0,0,1,.148.636m-.947-.126v.9l-.017,0-.452-.783a.95.95,0,0,0-.455-.4,2.4,2.4,0,0,1,.478-.2.479.479,0,0,1,.446.477m-1.448,3.243a.474.474,0,0,1,.222-.291l.783-.452.012.012-.452.784a.941.941,0,0,0-.12.595,2.393,2.393,0,0,1-.415-.317.478.478,0,0,1-.03-.331m.979.291.452-.783.017,0v.9a.952.952,0,0,0,.193.576,2.406,2.406,0,0,1-.514-.065.481.481,0,0,1-.148-.637m.947.126v-.9l.017,0,.452.783a.939.939,0,0,0,.455.4,2.407,2.407,0,0,1-.477.2.479.479,0,0,1-.447-.477m-1.983-3.487a.481.481,0,0,1,.622.192l.452.784-.012.011-.783-.452a.948.948,0,0,0-.6-.12,2.518,2.518,0,0,1,.317-.415m3.488,3.314a.483.483,0,0,1-.622-.191l-.452-.784.012-.012.783.452a.946.946,0,0,0,.476.128,1,1,0,0,0,.12-.008,2.411,2.411,0,0,1-.317.415"/></g><g transform="translate(-3815 -3473)"><path class="a" d="M4949.744,4358.993a4.08,4.08,0,1,0,1.195,2.885,4.055,4.055,0,0,0-1.195-2.885m-2.885,6.487a3.6,3.6,0,1,1,3.6-3.6,3.6,3.6,0,0,1-3.6,3.6"/><path class="a" d="M4946.859,4358.993a2.885,2.885,0,1,0,2.885,2.885,2.887,2.887,0,0,0-2.885-2.885m1.7,3.593-.782-.452,0-.017h.9a.954.954,0,0,0,.576-.193,2.45,2.45,0,0,1-.065.514.479.479,0,0,1-.637.148m-4.011-.022a.479.479,0,0,1,.477-.447h.9l0,.017-.783.452a.951.951,0,0,0-.4.456,2.47,2.47,0,0,1-.2-.478m.6-1.394.783.452,0,.017h-.9a.945.945,0,0,0-.576.194,2.419,2.419,0,0,1,.066-.515.479.479,0,0,1,.636-.148m4.011.023a.478.478,0,0,1-.477.446h-.9l0-.017.782-.452a.941.941,0,0,0,.4-.455,2.4,2.4,0,0,1,.2.478m-2.307,1.163a.478.478,0,1,1,.479-.478.479.479,0,0,1-.479.478m1.687-1.89a.475.475,0,0,1-.221.29l-.784.453-.012-.012.452-.784a.95.95,0,0,0,.12-.6,2.406,2.406,0,0,1,.415.316.475.475,0,0,1,.03.332m-.979-.292-.452.783-.017,0v-.9a.953.953,0,0,0-.193-.576,2.4,2.4,0,0,1,.514.066.477.477,0,0,1,.148.636m-.947-.126v.9l-.017,0-.451-.783a.958.958,0,0,0-.456-.4,2.432,2.432,0,0,1,.478-.2.479.479,0,0,1,.446.477m-1.448,3.243a.474.474,0,0,1,.222-.291l.784-.452.012.012-.453.784a.942.942,0,0,0-.12.595,2.43,2.43,0,0,1-.415-.317.478.478,0,0,1-.03-.331m.98.291.451-.783.017.005v.9a.948.948,0,0,0,.194.576,2.487,2.487,0,0,1-.515-.065.48.48,0,0,1-.147-.637m.946.126v-.9l.017-.005.452.783a.939.939,0,0,0,.456.4,2.47,2.47,0,0,1-.478.2.479.479,0,0,1-.447-.477m-1.983-3.487a.48.48,0,0,1,.622.192l.453.784-.012.012-.784-.453a.947.947,0,0,0-.6-.12,2.441,2.441,0,0,1,.316-.415m3.488,3.314a.483.483,0,0,1-.622-.191l-.452-.784.012-.012.784.452a.94.94,0,0,0,.475.128,1,1,0,0,0,.12-.008,2.411,2.411,0,0,1-.317.415"/></g></g></svg>