<svg xmlns="http://www.w3.org/2000/svg" width="18" height="18" viewBox="0 0 18 18"><defs><style>.a{fill:#887a5b;}</style></defs><g transform="translate(-3262.554 -4274.313)"><circle class="a" cx="0.814" cy="0.814" r="0.814" transform="translate(3275.715 4287.474)"/><path class="a" d="M3280.314,4287.527l-.723-.326a3.141,3.141,0,0,0-.128-.311l.28-.741a.4.4,0,0,0-.093-.432l-.551-.551a.407.407,0,0,0-.432-.093l-.741.28a3.2,3.2,0,0,0-.311-.128l-.326-.723a.406.406,0,0,0-.371-.24h-.779a.407.407,0,0,0-.371.24l-.326.723a3.17,3.17,0,0,0-.311.128l-.741-.28a.407.407,0,0,0-.432.093l-.551.551a.407.407,0,0,0-.093.432l.28.741a3.082,3.082,0,0,0-.128.311l-.723.326a.406.406,0,0,0-.239.371v.779a.405.405,0,0,0,.239.371l.723.326a3.082,3.082,0,0,0,.128.311l-.28.741a.407.407,0,0,0,.093.432l.551.551a.4.4,0,0,0,.432.093l.741-.28a3.17,3.17,0,0,0,.311.128l.326.723a.407.407,0,0,0,.371.24h.779a.406.406,0,0,0,.371-.24l.326-.723a3.2,3.2,0,0,0,.311-.128l.741.28a.405.405,0,0,0,.432-.093l.551-.551a.4.4,0,0,0,.093-.432l-.28-.741a3.141,3.141,0,0,0,.128-.311l.723-.326a.406.406,0,0,0,.24-.371v-.779A.407.407,0,0,0,3280.314,4287.527Zm-.574.887-.648.293a.408.408,0,0,0-.224.258,2.347,2.347,0,0,1-.206.5.4.4,0,0,0-.024.341l.251.664-.179.18-.665-.251a.4.4,0,0,0-.341.024,2.364,2.364,0,0,1-.5.206.407.407,0,0,0-.258.224l-.293.648h-.253l-.292-.648a.411.411,0,0,0-.259-.224,2.38,2.38,0,0,1-.5-.206.4.4,0,0,0-.341-.024l-.664.251-.18-.18.252-.664a.409.409,0,0,0-.025-.341,2.413,2.413,0,0,1-.206-.5.405.405,0,0,0-.224-.258l-.647-.293v-.253l.647-.292a.41.41,0,0,0,.224-.259,2.458,2.458,0,0,1,.206-.5.408.408,0,0,0,.025-.341l-.252-.664.18-.18.664.252a.407.407,0,0,0,.341-.025,2.417,2.417,0,0,1,.5-.206.412.412,0,0,0,.258-.224l.292-.647h.253l.293.647a.407.407,0,0,0,.258.224,2.415,2.415,0,0,1,.5.206.407.407,0,0,0,.341.025l.665-.252.179.18-.251.664a.4.4,0,0,0,.024.341,2.39,2.39,0,0,1,.206.5.413.413,0,0,0,.224.259l.648.292Z"/><path class="a" d="M3271.1,4289.205h-.471a24.538,24.538,0,0,0,0-11.785h7.558c.255,0,.661.482,1,1.559a15.238,15.238,0,0,1,.555,4.334c0,.294-.007.59-.02.879a.407.407,0,0,0,.389.425h.018a.408.408,0,0,0,.407-.389c.013-.3.02-.61.02-.916,0-3.333-.812-6.707-2.365-6.707h-7.821c-.51-1.387-1.213-2.293-2.1-2.293h-2.64c-.563,0-1.379.381-2.07,2.2a18.025,18.025,0,0,0-.947,4.964.407.407,0,1,0,.812.054c.264-3.956,1.35-6.4,2.205-6.4.945,0,2.263,3.114,2.263,8.186s-1.318,8.186-2.263,8.186c-.855,0-1.941-2.449-2.205-6.4a.407.407,0,1,0-.812.054,18.024,18.024,0,0,0,.947,4.963c.691,1.819,1.507,2.2,2.07,2.2h2.64c.884,0,1.587-.906,2.1-2.294h.734a.407.407,0,1,0,0-.814Zm-2.831,2.294h-1.3c1.136-1.52,1.737-4.929,1.737-8.186s-.6-6.667-1.737-8.186h1.3c.945,0,2.264,3.114,2.264,8.186S3269.216,4291.5,3268.271,4291.5Z"/><path class="a" d="M3262.961,4283.72h2.67a.407.407,0,0,0,0-.814h-2.67a.407.407,0,0,0,0,.814Z"/><path class="a" d="M3273.782,4279.1a.407.407,0,1,0,0,.814h3.257a.407.407,0,1,0,0-.814Z"/></g></svg>