<svg xmlns="http://www.w3.org/2000/svg" width="19.183" height="13.039" viewBox="0 0 19.183 13.039"><defs><style>.a{fill:#887a5b;}</style></defs><g transform="translate(-2607.067 -4349.811)"><path class="a" d="M2616.69,4349.811a1.622,1.622,0,1,0,1.622,1.621,1.624,1.624,0,0,0-1.622-1.621m0,2.589a.978.978,0,0,1-.961-.968.962.962,0,0,1,1.923,0,.979.979,0,0,1-.962.968"/><path class="a" d="M2618.471,4353.145h-1a.321.321,0,0,0-.256.119l-.529.678-.529-.678a.329.329,0,0,0-.261-.119h-1a1.112,1.112,0,0,0-1.109,1.115v2.913a1.123,1.123,0,0,0,1.04,1.12v3.436a1.122,1.122,0,0,0,1.115,1.12,1.122,1.122,0,0,1,1.479,0,1.125,1.125,0,0,0,1.115-1.12v-3.436a1.128,1.128,0,0,0,1.048-1.12v-2.913a1.122,1.122,0,0,0-1.121-1.115m.46,4.028a.459.459,0,0,1-.46.46h-.256a.329.329,0,0,0-.324.33v3.766a.464.464,0,0,1-.462.461.449.449,0,0,1-.431-.3.337.337,0,0,0-.308-.211.324.324,0,0,0-.3.211.462.462,0,0,1-.893-.165v-3.766a.334.334,0,0,0-.329-.33h-.262a.457.457,0,0,1-.455-.46v-2.913a.461.461,0,0,1,.455-.461h.837l.688.876a.339.339,0,0,0,.261.126.321.321,0,0,0,.256-.126l.688-.876h.837a.471.471,0,0,1,.46.461Z"/><path class="a" d="M2623.8,4351.831a1.37,1.37,0,1,0,1.371,1.372,1.372,1.372,0,0,0-1.371-1.372m0,2.188a.827.827,0,0,1-.812-.816.813.813,0,1,1,1.625,0,.827.827,0,0,1-.813.816"/><path class="a" d="M2625.3,4354.649h-.842a.268.268,0,0,0-.216.1l-.448.572-.446-.572a.278.278,0,0,0-.221-.1h-.842a.94.94,0,0,0-.937.942v2.461a.95.95,0,0,0,.88.947v2.9a.948.948,0,0,0,.942.948.943.943,0,0,1,1.249,0,.952.952,0,0,0,.943-.948V4359a.954.954,0,0,0,.885-.947v-2.461a.948.948,0,0,0-.947-.942m.389,3.4a.388.388,0,0,1-.389.39h-.217a.276.276,0,0,0-.273.279v3.181a.391.391,0,0,1-.391.39.381.381,0,0,1-.364-.25.283.283,0,0,0-.261-.178.272.272,0,0,0-.254.178.392.392,0,0,1-.37.25.387.387,0,0,1-.385-.39v-3.181a.281.281,0,0,0-.279-.279h-.221a.387.387,0,0,1-.384-.39v-2.461a.39.39,0,0,1,.384-.389H2623l.581.74a.288.288,0,0,0,.22.106.273.273,0,0,0,.217-.106l.582-.74h.707a.4.4,0,0,1,.389.389Z"/><path class="a" d="M2609.513,4351.831a1.37,1.37,0,1,0,1.37,1.372,1.373,1.373,0,0,0-1.37-1.372m0,2.188a.827.827,0,0,1-.812-.816.812.812,0,1,1,1.624,0,.827.827,0,0,1-.812.816"/><path class="a" d="M2611.018,4354.649h-.842a.266.266,0,0,0-.215.1l-.448.572-.446-.572a.278.278,0,0,0-.221-.1H2608a.939.939,0,0,0-.937.942v2.461a.95.95,0,0,0,.88.947v2.9a.948.948,0,0,0,.941.948.945.945,0,0,1,1.25,0,.952.952,0,0,0,.943-.948V4359a.954.954,0,0,0,.884-.947v-2.461a.948.948,0,0,0-.947-.942m.389,3.4a.388.388,0,0,1-.389.39h-.217a.277.277,0,0,0-.273.279v3.181a.391.391,0,0,1-.39.39.382.382,0,0,1-.365-.25.282.282,0,0,0-.26-.178.272.272,0,0,0-.255.178.392.392,0,0,1-.37.25.387.387,0,0,1-.384-.39v-3.181a.282.282,0,0,0-.279-.279H2608a.387.387,0,0,1-.384-.39v-2.461a.389.389,0,0,1,.384-.389h.707l.581.74a.289.289,0,0,0,.221.106.272.272,0,0,0,.217-.106l.581-.74h.707a.4.4,0,0,1,.389.389Z"/></g></svg>