<svg xmlns="http://www.w3.org/2000/svg" width="18.929" height="17.309" viewBox="0 0 18.929 17.309"><defs><style>.a{fill:#887a5b;fill-rule:evenodd;}</style></defs><path class="a" d="M2487.718,4350.62v8.982l7.777,4.49-.536-1.986.853-.228.815,3.016.115.426-.429.114-3.019.8-.225-.853,1.987-.528-7.78-4.491-7.779,4.491,1.988.529-.225.853-3.019-.8-.429-.114.115-.426.815-3.016.853.228-.537,1.988,7.777-4.49v-8.983l-1.45,1.456-.625-.621,2.2-2.213.312-.314.313.314,2.2,2.213-.625.621Z" transform="translate(-2477.812 -4348.928)"/></svg>