<svg xmlns="http://www.w3.org/2000/svg" width="25.399" height="30.075" viewBox="0 0 25.399 30.075">
  <path id="Path_1957" data-name="Path 1957" d="M2475.83,6375.035a.7.7,0,0,0-.883-.434l-5.933,1.761c.829-2.635.454-5.062-1.087-5.9-1.614-.875-3.986.273-5.775,2.607l-1.914-6.447a.669.669,0,1,0-1.278.381l2.237,7.533c-.009.016-.018.028-.026.043a10,10,0,0,0-1.278,4.488l-8.909,2.647a.668.668,0,1,0,.38,1.276l8.651-2.568a3.806,3.806,0,0,0,.411,1.076l-4.227,7.8-4.8.465-.721,1.33,4.589.363,1.979,1.074,2.807,3.645.72-1.328-2.23-4.277,4.227-7.8a3.59,3.59,0,0,0,.827-.147l2.477,8.342a.669.669,0,1,0,1.279-.377l-2.528-8.516a9.788,9.788,0,0,0,3.338-3.7c.077-.143.146-.286.216-.43l6.949-2.062a.7.7,0,0,0,.5-.844" transform="translate(-2450.457 -6366.098)" fill="#887a5b"/>
</svg>
