<svg xmlns="http://www.w3.org/2000/svg" width="20.008" height="10.672" viewBox="0 0 20.008 10.672">
  <path id="Path_1954" data-name="Path 1954" d="M2452.115,6514.1h14.674a2.668,2.668,0,0,0,1.02-5.133,3.928,3.928,0,0,0,.313-1.537,4.005,4.005,0,0,0-4-4,3.974,3.974,0,0,1-5.336,0,3.978,3.978,0,0,0-3.768,2.678,3.316,3.316,0,0,0-3.516,2.729,2.669,2.669,0,0,0,.614,5.265m12.006-9.339a2.673,2.673,0,0,1,2.668,2.669,2.622,2.622,0,0,1-.549,1.6.67.67,0,0,0-.066.7.646.646,0,0,0,.639.37,1.334,1.334,0,0,1-.024,2.667h-3.04a2.634,2.634,0,0,0,.372-1.334,2.671,2.671,0,0,0-1.648-2.464,3.906,3.906,0,0,0,.313-1.537,3.976,3.976,0,0,0-.491-1.919,2.615,2.615,0,0,1,1.826-.75m-12.006,5.337a.667.667,0,0,0,.667-.668,2,2,0,0,1,2-2,1.946,1.946,0,0,1,.543.087.675.675,0,0,0,.538-.079.667.667,0,0,0,.3-.451,2.661,2.661,0,1,1,4.741,2.042.665.665,0,0,0-.066.7.645.645,0,0,0,.638.37,1.334,1.334,0,0,1-.025,2.667h-9.337a1.333,1.333,0,0,1,0-2.667" transform="translate(-2449.448 -6503.43)" fill="#887a5b"/>
</svg>
