<svg xmlns="http://www.w3.org/2000/svg" width="19.289" height="19.289" viewBox="0 0 19.289 19.289">
  <g id="Group_182" data-name="Group 182" transform="translate(-2449.877 -6456.688)">
    <path id="Path_1952" data-name="Path 1952" d="M2466.341,6459.513a9.644,9.644,0,1,0,2.825,6.82,9.578,9.578,0,0,0-2.825-6.82m-6.82,15.334a8.514,8.514,0,1,1,8.514-8.514,8.523,8.523,0,0,1-8.514,8.514" fill="#887a5b"/>
    <path id="Path_1953" data-name="Path 1953" d="M2459.521,6459.513a6.819,6.819,0,1,0,6.82,6.819,6.827,6.827,0,0,0-6.82-6.819m4.029,8.493-1.85-1.069.011-.04h2.137a2.245,2.245,0,0,0,1.361-.457,5.677,5.677,0,0,1-.154,1.216,1.133,1.133,0,0,1-1.5.35m-9.481-.054a1.131,1.131,0,0,1,1.127-1.055h2.136l.012.04-1.851,1.069a2.242,2.242,0,0,0-.95,1.077,5.636,5.636,0,0,1-.474-1.131m1.424-3.293,1.851,1.068-.012.04H2455.2a2.249,2.249,0,0,0-1.362.458,5.678,5.678,0,0,1,.155-1.216,1.13,1.13,0,0,1,1.5-.35m9.482.053a1.132,1.132,0,0,1-1.127,1.055h-2.137l-.011-.04,1.85-1.068a2.237,2.237,0,0,0,.95-1.077,5.669,5.669,0,0,1,.475,1.13m-5.454,2.751a1.13,1.13,0,1,1,1.131-1.131,1.132,1.132,0,0,1-1.131,1.131m3.989-4.47a1.127,1.127,0,0,1-.524.687l-1.853,1.069a.3.3,0,0,0-.028-.028l1.069-1.853a2.238,2.238,0,0,0,.284-1.407,5.75,5.75,0,0,1,.98.749,1.12,1.12,0,0,1,.072.783m-2.314-.689-1.069,1.85-.04-.01v-2.138a2.251,2.251,0,0,0-.457-1.361,5.671,5.671,0,0,1,1.216.154,1.133,1.133,0,0,1,.35,1.505m-2.239-.3v2.138l-.04.01-1.068-1.85a2.245,2.245,0,0,0-1.077-.95,5.632,5.632,0,0,1,1.13-.475,1.132,1.132,0,0,1,1.055,1.127m-3.423,7.665a1.115,1.115,0,0,1,.525-.686l1.851-1.07.029.029-1.069,1.852a2.239,2.239,0,0,0-.285,1.407,5.8,5.8,0,0,1-.98-.748,1.121,1.121,0,0,1-.071-.784m2.315.69,1.068-1.851.04.012v2.136a2.248,2.248,0,0,0,.457,1.362,5.667,5.667,0,0,1-1.216-.155,1.132,1.132,0,0,1-.349-1.5m2.238.3v-2.136l.04-.012,1.069,1.851a2.235,2.235,0,0,0,1.076.95,5.672,5.672,0,0,1-1.129.474,1.131,1.131,0,0,1-1.056-1.127m-4.687-8.242a1.11,1.11,0,0,1,.783-.071,1.124,1.124,0,0,1,.687.523l1.069,1.853c-.009.009-.02.018-.029.028l-1.852-1.069a2.24,2.24,0,0,0-1.407-.284,5.716,5.716,0,0,1,.749-.98m8.244,7.833a1.136,1.136,0,0,1-1.47-.453l-1.069-1.852.028-.029,1.853,1.07a2.237,2.237,0,0,0,1.123.3,2.538,2.538,0,0,0,.284-.018,5.8,5.8,0,0,1-.749.98" fill="#887a5b"/>
  </g>
</svg>
