<svg xmlns="http://www.w3.org/2000/svg" width="28.813" height="35.679" viewBox="0 0 28.813 35.679">
  <g id="Group_183" data-name="Group 183" transform="translate(-2446.448 -6574.761)">
    <path id="Path_1958" data-name="Path 1958" d="M2475.246,6586.458a.383.383,0,0,0-.485-.238l-3.257.967c.456-1.447.25-2.78-.6-3.238-.886-.48-2.188.15-3.17,1.433l-1.051-3.54a.367.367,0,1,0-.7.208l1.229,4.136-.015.023a5.508,5.508,0,0,0-.7,2.464l-4.889,1.452a.367.367,0,1,0,.209.7l4.748-1.409a2.041,2.041,0,0,0,.226.59l-2.321,4.279-2.635.256-.4.73,2.519.2,1.087.59,1.541,2,.4-.73-1.223-2.348,2.319-4.279a2.038,2.038,0,0,0,.454-.08l1.361,4.58a.367.367,0,1,0,.7-.208l-1.389-4.676a5.359,5.359,0,0,0,1.832-2.032c.043-.078.081-.156.12-.235l3.814-1.132a.383.383,0,0,0,.275-.464" fill="#887a5b"/>
    <path id="Path_1959" data-name="Path 1959" d="M2460.376,6598.837a.383.383,0,0,0-.485-.238l-3.257.966c.455-1.446.25-2.779-.6-3.237-.885-.48-2.188.149-3.17,1.431l-1.05-3.539a.367.367,0,1,0-.7.209l1.228,4.135c0,.009-.01.015-.014.023a5.5,5.5,0,0,0-.7,2.464l-4.889,1.453a.366.366,0,1,0,.208.7l4.748-1.41a2.108,2.108,0,0,0,.225.592l-2.319,4.279-2.636.256-.4.729,2.519.2,1.087.59,1.54,2,.4-.729-1.223-2.349,2.32-4.279a1.955,1.955,0,0,0,.454-.08l1.359,4.58a.367.367,0,1,0,.7-.208l-1.387-4.675a5.385,5.385,0,0,0,1.832-2.032c.042-.079.08-.157.119-.236l3.815-1.132a.382.382,0,0,0,.275-.463" fill="#887a5b"/>
    <path id="Path_1960" data-name="Path 1960" d="M2461.351,6579.667a.383.383,0,0,0-.485-.238l-3.257.967c.456-1.446.25-2.779-.6-3.237-.885-.48-2.188.149-3.17,1.431l-1.05-3.54a.367.367,0,1,0-.7.209l1.228,4.135c0,.009-.01.015-.014.024a5.5,5.5,0,0,0-.7,2.464l-4.889,1.453a.366.366,0,1,0,.208.7l4.748-1.41a2.087,2.087,0,0,0,.226.591l-2.32,4.279-2.636.256-.4.729,2.519.2,1.087.59,1.54,2,.4-.728-1.223-2.349,2.32-4.28a1.932,1.932,0,0,0,.454-.08l1.359,4.58a.367.367,0,1,0,.7-.208l-1.387-4.674a5.4,5.4,0,0,0,1.832-2.032c.042-.079.08-.157.119-.236l3.815-1.132a.383.383,0,0,0,.275-.464" fill="#887a5b"/>
  </g>
</svg>
