<svg xmlns="http://www.w3.org/2000/svg" width="22.104" height="14.569" viewBox="0 0 22.104 14.569">
  <g id="Group_169" data-name="Group 169" transform="translate(-2741.014 -6670.719)">
    <path id="Path_1917" data-name="Path 1917" d="M2761.811,6683.98h-19.489v-11.954h19.489Zm.307-13.261h-20.1a1,1,0,0,0-1,1v12.569a1,1,0,0,0,1,1h20.1a1,1,0,0,0,1-1v-12.569a1,1,0,0,0-1-1" fill="#887a5b"/>
    <path id="Path_1918" data-name="Path 1918" d="M2741.472,6676.647c.941-.891,2.347.387,3.331.583,1.125.223,1.408-.327,2.113-.957,1.418-1.269,1.65.372,3.063.579,1.246.183,1.637-.777,2.625-1.03,1.4-.359,1.457,1.687,2.916.93,1.183-.614.971-1.645,2.124-.35,1.139,1.279,1.367.4,2.421-.036,1.118-.461,1.461,1.169,2.623.4" fill="#887a5b"/>
  </g>
</svg>
