<svg xmlns="http://www.w3.org/2000/svg" width="15.757" height="22.844" viewBox="0 0 15.757 22.844"><defs><style>.a{fill:#887a5b;}</style></defs><g transform="translate(-2744.188 -6581.064)"><path class="a" d="M2752.066,6581.064a7.883,7.883,0,0,0-7.878,7.879c0,2.366,1.261,5.524,3.759,9.4a52.77,52.77,0,0,0,3.711,5.081l.408.481.409-.481a52.964,52.964,0,0,0,3.711-5.081c2.5-3.879,3.759-7.037,3.759-9.4a7.884,7.884,0,0,0-7.879-7.879m0,21.162c-1.524-1.91-6.8-8.828-6.8-13.283a6.8,6.8,0,1,1,13.595,0c0,4.455-5.273,11.361-6.8,13.283"/><path class="a" d="M2752.066,6583.658a5.284,5.284,0,1,0,5.285,5.285,5.284,5.284,0,0,0-5.285-5.285m0,9.488a4.2,4.2,0,1,1,4.2-4.2,4.209,4.209,0,0,1-4.2,4.2"/></g></svg>