<svg xmlns="http://www.w3.org/2000/svg" width="39.901" height="34.99" viewBox="0 0 39.901 34.99"><defs><style>.a{fill:#887a5b;}</style></defs><g transform="translate(-5050.413 -5452.339)"><path class="a" d="M5085.848,5466.876l-2.137-9.9a.512.512,0,0,0-.04-.115,2.822,2.822,0,0,0-2.536-1.6h-4.6v-.172a1.263,1.263,0,0,0-1.261-1.261.2.2,0,0,1-.147-.062l-1.009-1.043a1.264,1.264,0,0,0-.906-.385h-5.439a1.263,1.263,0,0,0-.906.385l-1.009,1.043a.2.2,0,0,1-.147.062,1.262,1.262,0,0,0-1.26,1.261v.172h-4.6a2.822,2.822,0,0,0-2.536,1.6.552.552,0,0,0-.037.1l-2.391,9.908a4.916,4.916,0,0,0-4.475,4.888v4.282a4.926,4.926,0,0,0,4.382,4.888v4.617a1.781,1.781,0,0,0,1.779,1.779h2.436a1.781,1.781,0,0,0,1.779-1.779v-4.587h19.149v4.587a1.781,1.781,0,0,0,1.779,1.779h2.436a1.782,1.782,0,0,0,1.779-1.779v-4.617a4.926,4.926,0,0,0,4.382-4.888v-4.282A4.914,4.914,0,0,0,5085.848,5466.876Zm-20.34-11.786a.2.2,0,0,1,.2-.2,1.27,1.27,0,0,0,.907-.384l1.009-1.044a.206.206,0,0,1,.146-.062h5.439a.209.209,0,0,1,.147.062l1.008,1.044a1.268,1.268,0,0,0,.907.384.2.2,0,0,1,.2.2v.172h-9.971Zm-7.215,2.182a1.758,1.758,0,0,1,1.559-.953h21.283a1.761,1.761,0,0,1,1.557.948l2.07,9.586h-1.691l-1.738-8.049a.517.517,0,0,0-.039-.116,2.411,2.411,0,0,0-2.165-1.367h-17.448a2.409,2.409,0,0,0-2.164,1.367.539.539,0,0,0-.037.1l-1.945,8.061h-1.554Zm23.7,9.581h-23.368l1.871-7.755a1.348,1.348,0,0,1,1.188-.72h17.448a1.349,1.349,0,0,1,1.185.714Zm-22.258,18.7a.722.722,0,0,1-.722.722h-2.436a.722.722,0,0,1-.722-.722v-4.587h3.88Zm24.421.722h-2.436a.722.722,0,0,1-.722-.722v-4.587h3.88v4.587A.722.722,0,0,1,5084.153,5486.272Zm5.1-10.227a3.867,3.867,0,0,1-3.862,3.862h-30.063a3.867,3.867,0,0,1-3.862-3.862v-4.282a3.858,3.858,0,0,1,3.854-3.853h30.08a3.857,3.857,0,0,1,3.853,3.853Z"/><path class="a" d="M5083.225,5475.782H5057.5a2.675,2.675,0,0,0-2.672,2.672.529.529,0,0,0,1.057,0,1.617,1.617,0,0,1,1.615-1.615h25.723a1.616,1.616,0,0,1,1.615,1.615.529.529,0,0,0,1.057,0A2.675,2.675,0,0,0,5083.225,5475.782Z"/><path class="a" d="M5058.567,5472.023a2.932,2.932,0,1,0-2.932,2.932A2.936,2.936,0,0,0,5058.567,5472.023Zm-4.807,0a1.875,1.875,0,1,1,1.875,1.875A1.877,1.877,0,0,1,5053.76,5472.023Z"/><path class="a" d="M5085,5469.091a2.932,2.932,0,1,0,2.932,2.932A2.936,2.936,0,0,0,5085,5469.091Zm0,4.807a1.875,1.875,0,1,1,1.875-1.875A1.877,1.877,0,0,1,5085,5473.9Z"/><path class="a" d="M5063.355,5471.047h13.914a.528.528,0,1,0,0-1.057h-13.914a.528.528,0,0,0,0,1.057Z"/><path class="a" d="M5063.355,5474.121h13.914a.529.529,0,1,0,0-1.057h-13.914a.529.529,0,0,0,0,1.057Z"/></g></svg>