<svg xmlns="http://www.w3.org/2000/svg" width="50.462" height="44.934" viewBox="0 0 50.462 44.934"><defs><style>.a{fill:#887a5b;}</style></defs><g transform="translate(-3122.06 -5454.839)"><path class="a" d="M3128.571,5487.018l-6.511-9.114h2.669v-.6a22.492,22.492,0,0,1,22.466-22.467v1a21.491,21.491,0,0,0-21.466,21.467v1.6H3124l4.473,6.263,3.579-6.263h-1.836v-1.6a16.977,16.977,0,0,1,31.338-9.053l-.846.534a15.977,15.977,0,0,0-29.492,8.519v.6h2.559Z"/><path class="a" d="M3147.387,5499.773v-1a21.491,21.491,0,0,0,21.466-21.467v-1.6h1.725l-4.473-6.263-3.578,6.263h1.835v1.6a16.977,16.977,0,0,1-31.338,9.053l.846-.534a15.977,15.977,0,0,0,29.492-8.519v-.6H3160.8l5.208-9.114,6.51,9.114h-2.669v.6A22.492,22.492,0,0,1,3147.387,5499.773Z"/><rect class="a" width="13.98" height="1" transform="translate(3142.448 5482.444) rotate(-45)"/><rect class="a" width="1" height="13.98" transform="matrix(0.707, -0.707, 0.707, 0.707, 3142.448, 5473.266)"/></g></svg>