<svg xmlns="http://www.w3.org/2000/svg" width="26.213" height="25.858" viewBox="0 0 26.213 25.858"><defs><style>.a{fill:none;stroke:#887a5b;stroke-miterlimit:10;}</style></defs><g transform="translate(-4709.899 -5460.839)"><path class="a" d="M4730.679,5475.042c1.24-4.127,4.933-4.983,4.933-8.77a4.933,4.933,0,1,0-9.866,0c0,3.787,3.694,4.643,4.933,8.77"/><path class="a" d="M4730.686,5464.628a1.638,1.638,0,1,1-1.651,1.637A1.644,1.644,0,0,1,4730.686,5464.628Z"/><path class="a" d="M4715.332,5486.553c1.239-4.127,4.933-4.984,4.933-8.77a4.933,4.933,0,0,0-9.866,0c0,3.786,3.693,4.643,4.933,8.77"/><path class="a" d="M4715.339,5476.138a1.638,1.638,0,1,1-1.652,1.638A1.646,1.646,0,0,1,4715.339,5476.138Z"/><path class="a" d="M4718.621,5483.812h13.448a1.1,1.1,0,0,0,.818-1.826l-10.583-11.863,2.894-.014"/><path class="a" d="M4724.65,5467.369h-6.82a1.1,1.1,0,0,0-.807,1.838l10.367,10.768h-6.029"/></g></svg>