<svg xmlns="http://www.w3.org/2000/svg" width="35.741" height="18.425" viewBox="0 0 35.741 18.425"><defs><style>.a{fill:#887a5b;}</style></defs><g transform="translate(-2559.554 -5462.339)"><path class="a" d="M2594,5480.764h-33.141a1.3,1.3,0,0,1-1.3-1.3v-.633a1.6,1.6,0,0,1,1.6-1.6h1.609a.789.789,0,0,0,.538-.213l3.836-6.033a.4.4,0,0,1,.051-.065,1.606,1.606,0,0,1,1.148-.487h18.186a1.607,1.607,0,0,1,1.147.487.416.416,0,0,1,.051.065l3.837,6.033a.785.785,0,0,0,.537.213h1.609a1.6,1.6,0,0,1,1.6,1.6v.633A1.3,1.3,0,0,1,2594,5480.764Zm-32.845-2.717a.785.785,0,0,0-.784.784v.633a.489.489,0,0,0,.488.488H2594a.489.489,0,0,0,.489-.488v-.633a.785.785,0,0,0-.785-.784h-1.609a1.6,1.6,0,0,1-1.147-.487.441.441,0,0,1-.051-.064l-3.837-6.033a.788.788,0,0,0-.537-.214h-18.186a.791.791,0,0,0-.538.214l-3.837,6.033a.451.451,0,0,1-.05.064,1.609,1.609,0,0,1-1.148.487Z"/><path class="a" d="M2574.845,5473.655h-3.425a.405.405,0,1,1,0-.811h3.425a.405.405,0,1,1,0,.811Z"/><path class="a" d="M2573.132,5478.337a.405.405,0,0,1-.405-.406v-4.681a.406.406,0,1,1,.811,0v4.681A.406.406,0,0,1,2573.132,5478.337Z"/><path class="a" d="M2578.088,5478.346a.406.406,0,0,1-.384-.274l-1.217-3.522-1.218,3.522a.406.406,0,1,1-.767-.265l1.6-4.632a.406.406,0,0,1,.767,0l1.6,4.632a.405.405,0,0,1-.251.516A.417.417,0,0,1,2578.088,5478.346Z"/><path class="a" d="M2577.471,5476.624h-1.941a.406.406,0,1,1,0-.812h1.941a.406.406,0,1,1,0,.812Z"/><path class="a" d="M2581.9,5478.357a.407.407,0,0,1-.346-.193l-2.855-4.644a.406.406,0,1,1,.691-.425l2.855,4.643a.406.406,0,0,1-.345.619Z"/><path class="a" d="M2579.048,5478.357a.406.406,0,0,1-.345-.619l2.855-4.643a.406.406,0,1,1,.691.425l-2.855,4.644A.407.407,0,0,1,2579.048,5478.357Z"/><path class="a" d="M2583.18,5478.337a.406.406,0,0,1-.406-.406v-4.681a.406.406,0,0,1,.812,0v4.681A.406.406,0,0,1,2583.18,5478.337Z"/><path class="a" d="M2577.471,5467.376a.406.406,0,0,1-.406-.406v-4.225a.406.406,0,1,1,.812,0v4.225A.406.406,0,0,1,2577.471,5467.376Z"/><path class="a" d="M2569.8,5468.691a.4.4,0,0,1-.306-.139l-3.14-3.611a.405.405,0,1,1,.612-.532l3.14,3.61a.405.405,0,0,1-.306.672Z"/><path class="a" d="M2585.168,5468.729a.405.405,0,0,1-.306-.672l3.14-3.61a.406.406,0,0,1,.612.532l-3.14,3.611A.4.4,0,0,1,2585.168,5468.729Z"/></g></svg>