<svg xmlns="http://www.w3.org/2000/svg" width="37.03" height="36.156" viewBox="0 0 37.03 36.156"><defs><style>.a{fill:#887a5b;}</style></defs><g transform="translate(-2843.554 -5455.985)"><path class="a" d="M2863.7,5455.985a16.789,16.789,0,0,0-11.8,4.805.47.47,0,1,0,.656.672,15.944,15.944,0,1,1,13.393,27.19.469.469,0,0,0,.065.934.522.522,0,0,0,.067,0,16.883,16.883,0,0,0-2.384-33.6Z"/><path class="a" d="M2865.314,5485.24l-1.4-2.577a3.169,3.169,0,0,0-4.3-1.27,2.231,2.231,0,0,1-3.028-.894l-3.764-6.916a2.232,2.232,0,0,1,.894-3.028,3.172,3.172,0,0,0,1.27-4.3l-1.4-2.577a3.169,3.169,0,0,0-4.3-1.269l-4.068,2.213a3.172,3.172,0,0,0-1.27,4.3l11.733,21.563a3.17,3.17,0,0,0,4.3,1.27l4.068-2.214a3.17,3.17,0,0,0,1.27-4.3Zm-.645,2.148a2.213,2.213,0,0,1-1.074,1.329l-4.068,2.213a2.228,2.228,0,0,1-3.028-.894l-11.733-21.563a2.233,2.233,0,0,1,.894-3.028l4.068-2.214a2.231,2.231,0,0,1,3.028.894l1.4,2.577a2.23,2.23,0,0,1-.894,3.028,3.175,3.175,0,0,0-1.27,4.3l3.764,6.916a3.17,3.17,0,0,0,4.3,1.27,2.231,2.231,0,0,1,3.028.894l1.4,2.577A2.218,2.218,0,0,1,2864.669,5487.388Z"/><path class="a" d="M2861.5,5468.184h-5.35a.469.469,0,0,0,0,.939h2.206v6.926a.469.469,0,1,0,.939,0v-6.926h2.2a.469.469,0,1,0,0-.939Z"/><path class="a" d="M2865.948,5472.91l-1.472-4.259a.469.469,0,0,0-.887,0l-2.439,7.054a.47.47,0,0,0,.888.307l.8-2.326h2.381l.8,2.326a.469.469,0,0,0,.444.316.455.455,0,0,0,.153-.026.469.469,0,0,0,.29-.6l-.851-2.464,0-.024A.464.464,0,0,0,2865.948,5472.91Zm-2.782-.163.866-2.506.867,2.506Z"/><path class="a" d="M2867.688,5476.276a.464.464,0,0,0,.245.069.47.47,0,0,0,.4-.223l1.774-2.886,1.774,2.886a.47.47,0,1,0,.8-.492l-2.023-3.29,2.023-3.29a.469.469,0,1,0-.8-.492l-1.774,2.886-1.774-2.886a.47.47,0,1,0-.8.492l2.023,3.29-2.023,3.29A.469.469,0,0,0,2867.688,5476.276Z"/><path class="a" d="M2874.562,5476.049v-7.4a.469.469,0,0,0-.939,0v7.4a.469.469,0,1,0,.939,0Z"/></g></svg>